<svg xmlns="http://www.w3.org/2000/svg" width="320" height="161" viewBox="0 0 320 161">
  <g fill="none" fill-rule="evenodd" transform="translate(-.143 .598)">
    <g transform="translate(127.905 52)">
      <g fill-rule="nonzero" transform="translate(0 9.673)">
        <text fill="#333838" font-family="GaramondPremrPro-Smbd, Garamond Premier Pro" font-size="7" font-weight="500">
          <tspan x="18.359" y="30.729">SCHOOL</tspan>
        </text>
        <path stroke="#222F3C" stroke-linecap="round" stroke-linejoin="round" stroke-width=".5" d="M27.6619873,19.7999268 C27.8989258,19.7999268 28.0919189,19.6069336 28.0919189,19.3679199 L28.0919189,17.276001 C28.0919189,16.9370117 27.8189697,16.6629639 27.4819336,16.6629639 L22.9089355,16.6629639 L22.9089355,0.613037109 C22.9089355,0.275024414 22.6350098,0 22.2989502,0 L14.0458984,0 L5.79296875,0 C5.45690918,0 5.1829834,0.275024414 5.1829834,0.613037109 L5.1829834,16.6629639 L0.609985352,16.6629639 C0.272949219,16.6629639 0,16.9370117 0,17.276001 L0,19.3679199 C0,19.6069336 0.192993164,19.7999268 0.430908203,19.7999268" transform="translate(18.909 39.65)"/>
        <path stroke="#222F3C" stroke-width=".5" d="M34.4720049,6.40002441 C35.6559648,6.40002441 36.5819902,6.10205078 37.3979082,5.8380127 C38.0700273,5.62194824 38.6499834,5.43395996 39.269002,5.43395996 C39.8990068,5.43395996 40.506917,5.6340332 41.1869707,6.06396484 C41.2599687,6.10998535 41.3460283,6.1340332 41.4329424,6.1340332 C41.5109453,6.1340332 41.5869951,6.11499023 41.657918,6.0760498 C41.8059893,5.99499512 41.8979082,5.83898926 41.8979082,5.67004395 L41.8979082,0.678955078 C41.8979082,0.50402832 41.8009844,0.345947266 41.6459551,0.265014648 C41.2969561,0.0870361328 40.9159746,0 40.4789629,0 C39.7979326,0 39.0769854,0.213989258 38.3139238,0.440063477 C37.4369707,0.699951172 36.5309648,0.968994141 35.5539141,0.968994141 L35.5539141,0.968994141 C34.7469072,0.968994141 34.0019121,0.781982422 33.2740068,0.395996094 C33.131917,0.322021484 32.9529619,0.327026367 32.815999,0.409057617 C32.6779375,0.494018555 32.592,0.645996094 32.592,0.807983398 L32.592,10.3620605"/>
        <path stroke="#222F3C" stroke-linecap="round" stroke-linejoin="round" stroke-width=".5" d="M0,18.9772949 L0,15.7431641 L32.5853271,0 L65.90979,15.7745361 L65.90979,19.020752" transform="translate(0 10.147)"/>
        <path stroke="#222F3C" stroke-linecap="round" stroke-linejoin="round" stroke-width=".5" d="M0,45.418335 L0,14.1688232 L29.3269043,0 L59.3188477,14.1971436 L59.3188477,45.4573975" transform="translate(3.296 13.793)"/>
      </g>
      <g transform="translate(62.609 29.454)">
        <g transform="translate(0 11.002)">
          <path stroke="#222F3C" stroke-linecap="round" stroke-linejoin="round" stroke-width=".5" d="M28.4272295,2.02905273 C27.605208,1.20800781 26.6932207,0.534057617 25.7242266,0 L14.1602617,0 C13.1912676,0.534057617 12.2781816,1.20800781 11.4572588,2.02905273 C6.77024707,6.71508789 6.77024707,14.3140869 11.4572588,19 C16.1431719,23.6860352 23.7411943,23.6860352 28.4272295,19 C33.1132646,14.3140869 33.1132646,6.71606445 28.4272295,2.02905273 Z"/>
          <g fill-rule="nonzero" stroke="#222F3C" stroke-linecap="round" stroke-linejoin="round" stroke-width=".5" transform="translate(18.469 10.186)">
            <line x1="2.003" x2="4.213" y1=".807" y2="2.861"/>
            <line x2=".942" y1="1.862" y2=".92"/>
            <circle cx="1.555" cy=".5" r="1"/>
          </g>
          <circle cx="19.942" cy="10.515" r="10" stroke="#222F3C" stroke-linecap="round" stroke-linejoin="round" stroke-width=".25"/>
          <g fill-rule="nonzero" stroke="#222F3C" stroke-linecap="round" stroke-linejoin="round" stroke-width=".5" transform="translate(28.427 17.719)">
            <path d="M0 1.281C2.35095215 3.63207422 6.1619873 3.63207422 8.51403809 1.281M9.57375464.219818115C9.28078589-.0732727051 8.8058103-.0732727051 8.51381812.219818115 8.22072729.512786865 8.22072729.987762451 8.51381812 1.2807312 8.80678687 1.57272339 9.28078589 1.57272339 9.57375464 1.2807312 9.86672339.987762451 9.86672339.512786865 9.57375464.219818115z"/>
          </g>
          <g fill-rule="nonzero" stroke="#222F3C" stroke-linecap="round" stroke-linejoin="round" stroke-width=".5" transform="translate(0 13.14)">
            <path d="M9.51506934 3.2902539C8.00603613.327241205 4.3820127-.851713873 1.419.656220698M.081818587 1.33685179C.269806868 1.70587034.721833235 1.852843 1.09072972 1.66485472 1.45877171 1.47686644 1.60574437 1.02484007 1.41873265.655821517 1.22976781.286802962.778840071.139830306.409821517.327818587.040802962.515806868-.106169694.967833235.081818587 1.33685179z"/>
          </g>
          <line x2="8.6" y1="13.064" stroke="#222F3C" stroke-linecap="round" stroke-linejoin="round" stroke-width=".5" transform="translate(37.985 4.701)"/>
        </g>
        <g fill-rule="nonzero" stroke="#222F3C" stroke-linecap="round" stroke-linejoin="round" stroke-width=".5" transform="translate(7.942)">
          <path d="M18.0447998,6.0625 L24,4.09509277 L12,0 L0,4.09509277 L5.99353027,6.0625"/>
          <path d="M18,4.0950293 L18,10.9750342 L6,10.9750342 L6,4.0950293 L6,4.10210938 C6,3.52911133 8.68603516,3.065 12,3.065 C15.3139648,3.065 18,3.52911133 18,4.10210938 L18,4.0950293 Z"/>
        </g>
        <path fill="#222F3C" fill-rule="nonzero" d="M19.5709478,29.4328358 C19.5509283,29.2228749 19.711939,29.0428211 19.9218999,29.0328114 L19.9218999,29.0328114 C20.1208745,29.0228016 20.3009283,29.1828358 20.3119146,29.382909 L20.3119146,29.382909 C20.3209478,29.59287 20.1718999,29.7728016 19.961939,29.7828114 L19.961939,29.7828114 L19.961939,29.7828114 L19.961939,29.7828114 L19.9419195,29.7828114 L19.9419195,29.7828114 C19.7408697,29.7828114 19.5819341,29.632909 19.5709478,29.4328358 Z M15.8918706,28.6998036 C15.7019292,28.639867 15.5919439,28.4299061 15.6509038,28.2298329 L15.6509038,28.2298329 C15.7219488,28.0298817 15.9319097,27.9198963 16.1308843,27.9898426 L16.1308843,27.9898426 C16.3219243,28.0499012 16.4319097,28.2598622 16.3718511,28.4598133 L16.3718511,28.4598133 C16.3219243,28.6198475 16.1709234,28.7198231 16.0118658,28.7198231 L16.0118658,28.7198231 C15.9719488,28.7198231 15.9319097,28.7098133 15.8918706,28.6998036 Z M23.5438482,28.5278065 C23.4548589,28.3378651 23.534937,28.1178944 23.7248784,28.0278065 L23.7248784,28.0278065 C23.9039556,27.9378407 24.1349126,28.0177967 24.2248784,28.2078602 L24.2248784,28.2078602 C24.3049566,28.3877918 24.2248784,28.6178944 24.0438482,28.6978504 L24.0438482,28.6978504 C23.994898,28.7278797 23.9349615,28.7378895 23.8849126,28.7378895 L23.8849126,28.7378895 C23.744898,28.7378895 23.6039068,28.6578114 23.5438482,28.5278065 Z M12.7508794,25.6208241 C12.6509038,25.441869 12.7109624,25.2107899 12.8908941,25.1117909 L12.8908941,25.1117909 C13.0809576,25.0108387 13.310938,25.0809071 13.4109136,25.2608387 L13.4109136,25.2608387 C13.5008794,25.441869 13.4409429,25.6718495 13.2608892,25.7708485 L13.2608892,25.7708485 C13.2009527,25.8008778 13.1408941,25.8218739 13.0809576,25.8218739 L13.0809576,25.8218739 C12.9409429,25.8108875 12.8209478,25.7408192 12.7508794,25.6208241 Z M26.645899,25.7958729 C26.4559576,25.7258045 26.3558599,25.5058338 26.435938,25.3158924 L26.435938,25.3158924 C26.5058843,25.1158192 26.725855,25.0258534 26.9259283,25.1058094 L26.9259283,25.1058094 C27.1158697,25.1758778 27.2059576,25.3958485 27.1358892,25.5857899 L27.1358892,25.5857899 C27.0759527,25.7358143 26.935938,25.8259022 26.7859136,25.8259022 L26.7859136,25.8259022 C26.7358648,25.8259022 26.685938,25.8158924 26.645899,25.7958729 Z M11.6979009,21.5428211 L11.6979009,21.5428211 L11.6979009,21.5428211 C11.6778814,21.3328602 11.817896,21.1528065 12.027857,21.1228993 L12.027857,21.1228993 C12.2279302,21.1028797 12.4178716,21.2428944 12.4479009,21.4528553 L12.4479009,21.4528553 C12.4679204,21.6528065 12.3279058,21.84287 12.1179449,21.8728993 L12.1179449,21.8728993 L12.067896,21.8728993 L12.067896,21.8728993 C11.8878423,21.8728993 11.7279302,21.7328846 11.6979009,21.5428211 Z M27.5759527,21.500829 L27.5759527,21.500829 C27.5759527,21.290868 27.7458745,21.1198475 27.9459478,21.1198475 L27.9459478,21.1198475 C28.1549322,21.1198475 28.3259527,21.290868 28.3259527,21.500829 L28.3259527,21.500829 C28.3259527,21.6998036 28.1549322,21.8698475 27.9459478,21.8698475 L27.9459478,21.8698475 C27.7458745,21.8698475 27.5759527,21.6998036 27.5759527,21.500829 Z M12.9309331,17.8578846 C12.7618658,17.7388661 12.7319585,17.5088856 12.850855,17.3378651 L12.850855,17.3378651 C12.9708501,17.1678211 13.2009527,17.1388905 13.3708745,17.2588856 L13.3708745,17.2588856 C13.5409185,17.3779041 13.5809576,17.6078846 13.4509527,17.7789051 L13.4509527,17.7789051 C13.3818609,17.8779041 13.270899,17.9378407 13.1518804,17.9378407 L13.1518804,17.9378407 C13.0719243,17.9378407 13.0008794,17.90891 12.9309331,17.8578846 Z M26.4858648,17.7887928 L26.4858648,17.7887928 C26.3658697,17.6188709 26.395899,17.3788807 26.5659429,17.2588856 L26.5659429,17.2588856 C26.7358648,17.1388905 26.9658452,17.1788075 27.0958501,17.3488514 L27.0958501,17.3488514 C27.2158452,17.5088856 27.1759283,17.7488758 27.0058843,17.8688709 L27.0058843,17.8688709 C26.9459478,17.9187977 26.8658697,17.9388172 26.7859136,17.9388172 L26.7859136,17.9388172 C26.6759283,17.9388172 26.5559331,17.8888905 26.4858648,17.7887928 Z M15.692896,14.8698475 C15.5829107,14.6998036 15.6329595,14.4598133 15.8028814,14.349828 L15.8028814,14.349828 C15.9829351,14.2388661 16.2129156,14.2898915 16.3229009,14.4698231 L16.3229009,14.4698231 C16.4328863,14.639867 16.3829595,14.8698475 16.2029058,14.9888661 L16.2029058,14.9888661 C16.1428472,15.0198719 16.0729009,15.0398915 16.0029546,15.0398915 L16.0029546,15.0398915 C15.8829595,15.0398915 15.7628423,14.9798329 15.692896,14.8698475 Z M23.7229253,15.0068104 C23.5428716,14.8978016 23.4929449,14.6678211 23.6029302,14.4867909 L23.6029302,14.4867909 C23.7129156,14.316869 23.9529058,14.2668202 24.1229497,14.3779041 L24.1229497,14.3779041 C24.2928716,14.4867909 24.3529302,14.7168934 24.2429449,14.8978016 L24.2429449,14.8978016 C24.1628667,15.0068104 24.0428716,15.066869 23.9228765,15.066869 L23.9228765,15.066869 C23.8529302,15.066869 23.7828618,15.0468495 23.7229253,15.0068104 Z M19.8918706,14.0508778 C19.6819097,14.0098622 19.5519048,13.8108875 19.5919439,13.6108143 L19.5919439,13.6108143 C19.6308843,13.4098866 19.8219243,13.2708485 20.0318853,13.3108875 L20.0318853,13.3108875 C20.2308599,13.349828 20.3619634,13.5508778 20.3319341,13.750829 L20.3319341,13.750829 C20.2909185,13.9299061 20.1308843,14.0508778 19.9519292,14.0508778 L19.9519292,14.0508778 L19.8918706,14.0508778 Z"/>
        <g fill-rule="nonzero" stroke="#222F3C" stroke-linejoin="round" stroke-width=".5" transform="translate(15.771 17.662)">
          <path d="M2.71801758 0C2.71801758.634033203 2.10900879 1.14807129 1.35900879 1.14807129.608032227 1.14807129 0 .634033203 0 0M8.56701758 0C8.56701758.634033203 7.95898535 1.14807129 7.20800879 1.14807129 6.45800879 1.14807129 5.849.634033203 5.849 0"/>
        </g>
        <line x1="24.225" x2="24.225" y1="19.704" y2="22.304" stroke="#222F3C" stroke-linecap="round" stroke-width=".5"/>
      </g>
      <g fill-rule="nonzero" stroke="#222F3C" stroke-width=".5" transform="translate(11.961)">
        <path d="M34.4710049,6.40002441 C35.6560635,6.40002441 36.5809902,6.10192871 37.3970303,5.8380127 C38.0690273,5.62194824 38.64996,5.43395996 39.268002,5.43395996 C39.8980068,5.43395996 40.5070156,5.6340332 41.1859707,6.06396484 C41.2600674,6.10998535 41.3450283,6.1340332 41.433041,6.1340332 C41.5100674,6.1340332 41.5859951,6.11499023 41.6580166,6.07592773 C41.8049893,5.99499512 41.8970303,5.83898926 41.8970303,5.66992188 L41.8970303,0.678955078 C41.8970303,0.50402832 41.8009609,0.345947266 41.6449551,0.265014648 C41.2959561,0.0870361328 40.9149746,0 40.4790615,0 C39.7970547,0 39.0769619,0.213989258 38.3130459,0.439941406 C37.4369473,0.699951172 36.5299648,0.968994141 35.5530361,0.968994141 L35.5530361,0.968994141 C34.7470059,0.968994141 34.0010342,0.781982422 33.2730068,0.395996094 C33.1310391,0.322021484 32.9530605,0.327026367 32.814999,0.408935547 C32.6770596,0.494018555 32.591,0.645996094 32.591,0.807983398 L32.591,10.3619385"/>
        <g stroke-linecap="round" stroke-linejoin="round" transform="translate(0 10.147)">
          <path d="M32.5853154,0.000493164062 L65.9096562,15.7751514 L65.9096562,19.0213672"/>
          <line x1="30.211" x2="32.585" y1="1.248"/>
          <line x2="20.568" y1="15.743" y2="5.778"/>
        </g>
      </g>
    </g>
    <g fill-rule="nonzero" stroke="#222F3C" stroke-width=".5" transform="translate(59.647 85.865)">
      <g transform="translate(19.807)">
        <path d="M15.0591807 39.271L15.0591807 44.3515664 17.8726572 44.3515664 18.2032236 39.271 15.0591807 39.271zM7.32918066 39.271L7.659625 44.3515664 10.4732236 44.3515664 10.4732236 39.271 7.32918066 39.271zM20.9421426 9.70403125C20.6351357 9.62700488 20.3361855 9.5450957 20.0811807 9.45500781 17.5081826 8.55803516 15.9711953 7.23406055 15.2791787 5.747 13.8671914 7.72099902 10.6572305 9.10002734 6.91724023 9.10002734 6.2541543 9.10002734 5.50317773 9.05608203 4.76416406 8.97307422 4.56518945 9.65703418 4.45618066 10.3770049 4.45618066 11.122 4.45618066 15.5200713 8.17615137 19.0859893 12.7662393 19.0859893 17.3562051 19.0859893 21.0761758 15.5200713 21.0761758 11.122 21.0761758 10.6379912 21.0291787 10.1639922 20.9421426 9.70403125zM15.0587158 44.3518193L17.709464 44.3518193C18.6194964 44.3518193 19.3572235 45.0895464 19.3572235 45.9995789L19.3572235 45.9995806 19.3572235 45.9995806 15.0587158 45.9995806 15.0587158 44.3518193z"/>
        <path d="M6.17518066,44.352 L10.4736884,44.352 L10.4736884,44.3520017 C10.4736884,45.2620341 9.73596127,45.9997612 8.8259288,45.9997612 L6.17518066,45.9997612 L6.17518066,45.9997612 L6.17518066,44.352 Z" transform="rotate(180 8.324 45.176)"/>
        <path d="M12.7529287,35.5083193 L12.7529287,39.2707705 L19.0701895,39.2707705 L19.0701895,30.131 L6.46118066,30.131 L6.46118066,39.2707705 L12.7784414,39.2707705 L12.7784414,35.5497012"/>
        <g transform="translate(3.023 10.854)">
          <path d="M1.4329834.267944336C1.4329834.177978516 1.43701172.0889892578 1.43994141 0 .63293457.0660400391 0 .713989258 0 1.50402832 0 2.3380127.704956055 3.01403809 1.57592773 3.01403809L1.93994141 3.01403809C1.61193848 2.15795898 1.4329834 1.23303223 1.4329834.267944336zM18.046 0C18.0489297.0889892578 18.052958.177978516 18.052958.267944336 18.052958 1.23303223 17.8740029 2.15795898 17.546 3.01403809L17.9100137 3.01403809C18.7809854 3.01403809 19.4859414 2.3380127 19.4859414 1.50402832 19.4859414.713989258 18.8530068.0660400391 18.046 0z"/>
        </g>
        <g transform="translate(7.894 11.74)">
          <path d="M9.74403711 0C9.74403711.493041992 9.32704492.891967773 8.81203027.891967773 8.29799219.891967773 7.881.493041992 7.881 0M1.86303711 0C1.86303711.493041992 1.44604492.891967773.932006836.891967773.416992188.891967773 0 .493041992 0 0"/>
        </g>
        <path d="M11.1901807 15.543C11.1901807 16.3779609 11.8962354 17.0539863 12.7662305 17.0539863 13.6362256 17.0539863 14.3421582 16.3779609 14.3421582 15.543M22.4081709 22.6610107C21.4961836 20.7860107 19.9501631 19.3210449 18.0131514 18.4730225 17.759123 18.3170166 17.4721357 18.2080078 17.1631758 18.157959 17.0621016 18.1369629 16.9611494 18.125 16.8581221 18.125 16.8421309 18.125 16.8280928 18.1259766 16.8132002 18.1269531L16.778166 18.125 16.7271406 18.125C15.5501387 18.7380371 14.2001631 19.0859375 12.7662031 19.0859375 11.3321211 19.0859375 9.98214551 18.7380371 8.80514355 18.125L8.75411816 18.125 8.71920605 18.1269531C8.70419141 18.1259766 8.68917676 18.125 8.67416211 18.125 8.57113477 18.125 8.47018262 18.1369629 8.3691084 18.157959 8.06014844 18.2080078 7.77316113 18.3170166 7.51913281 18.4730225 5.58212109 19.3210449 4.03610059 20.7860107 3.12411328 22.6610107 3.05013867 22.8129883 2.98214551 22.9659424 2.91818066 23.1209717L5.72616406 23.7469482C5.92916699 23.342041 6.1770918 22.9659424 6.46212598 22.6230469L6.46212598 30.1379395 19.0701582 30.1379395 19.0701582 22.6230469C19.3551924 22.9659424 19.6031172 23.342041 19.8061201 23.7469482L22.6141035 23.1209717C22.5501387 22.9659424 22.4821455 22.8129883 22.4081709 22.6610107zM12.766291 0C7.67327344 0 3.53826367 3.91796875 3.45623242 8.7800293 3.45623242 8.82800293 3.45318066 8.87597656 3.45318066 8.92492676 3.45318066 9.6739502 3.55022656 10.4019775 3.7322334 11.0970459 3.94524609 10.9620361 4.19426953 10.8759766 4.46319043 10.8530273 4.48528516 10.2039795 4.58928906 9.57397461 4.76421582 8.9720459 5.50322949 9.05603027 6.25420605 9.09997559 6.91729199 9.09997559 10.6572822 9.09997559 13.8682197 7.72094727 15.2792305 5.74694824 15.9712471 7.23400879 17.5082344 8.5579834 20.0812324 9.45495605 20.3372139 9.54504395 20.6351875 9.62695312 20.9421943 9.70397949 21.0132393 10.0789795 21.056208 10.4620361 21.0692695 10.8530273 21.3381904 10.8759766 21.5872139 10.9620361 21.8002266 11.0970459 21.898249 10.7230225 21.9702705 10.3399658 22.0172676 9.94897461 22.0582832 9.61303711 22.0792793 9.27197266 22.0792793 8.92492676 22.0792793 3.99597168 17.9102119 0 12.766291 0z"/>
        <path d="M20.5061904,27.913999 C20.7171279,27.8140234 20.9541885,27.75604 21.205165,27.75604 C21.8151504,27.75604 22.3421279,28.0880713 22.6051895,28.5730566 C23.1501113,26.742002 23.0061904,24.8550391 22.3041641,23.19 L20.1211807,23.676084 C20.7500869,24.966001 20.9181777,26.4609961 20.5061904,27.913999 Z"/>
        <ellipse cx="21.206" cy="29.266" rx="1.576" ry="1.51"/>
        <path d="M2.27815137,27.2869902 C2.05317578,27.178958 1.66914258,27.1209746 1.43318066,27.1209746 C2.47712598,25.9959746 3.16816602,24.5949736 3.20515332,23.172 L5.38508496,23.6679717 C5.2401875,25.4589873 4.49116406,27.2099639 3.15107617,28.6159697 C3.14216504,28.0699492 2.82417188,27.547 2.27815137,27.2869902 Z"/>
        <ellipse cx="1.576" cy="28.639" rx="1.576" ry="1.51"/>
      </g>
      <g transform="translate(0 .05)">
        <path d="M17.486,9.45600781 C14.9139785,8.55903516 13.3769912,7.23506055 12.683998,5.748 C11.2729873,7.72102246 8.06302637,9.10102734 4.32303613,9.10102734 C3.69498437,9.10102734 2.94400781,8.99299512 2.20499414,8.85700879 C1.98294824,9.57502637 1.861,10.3350361 1.861,11.123 C1.861,15.5210713 5.58194727,19.0869893 10.1720352,19.0869893 C14.762001,19.0869893 18.4819717,15.5210713 18.4819717,11.123 C18.4819717,10.6320332 18.433998,10.1530293 18.3450088,9.68696484 C18.0249404,9.61506543 17.7219619,9.53803906 17.486,9.45600781 Z"/>
        <g transform="translate(3.581 39.248)">
          <path d="M8.88341211,5.05381934 L11.5341598,5.05381934 C12.4441922,5.05381934 13.1819193,5.79154642 13.1819193,6.70157889 L13.1819193,6.70158056 L13.1819193,6.70158056 L8.88341211,6.70158056 L8.88341211,5.05381934 Z"/>
          <path d="M2.27373675e-13,5.054 L4.29850769,5.054 L4.29850769,5.05400179 C4.29850769,5.9640342 3.56078066,6.70176123 2.65074825,6.70176123 L2.27373675e-13,6.70176123 L2.27373675e-13,6.70176123 L2.27373675e-13,5.054 Z" transform="rotate(180 2.15 5.878)"/>
          <path d="M8.883.034L8.883 5.05426367 11.6964766 5.05426367 12.0230146.034 8.883.034zM1.156 0L1.48473535 5.05407715 4.29833398 5.05407715 4.29833398 0 1.156 0z"/>
        </g>
        <path d="M3.86784082 30.113L3.231 39.2305537 17.1135684 39.2305537 16.4768496 30.113 3.86784082 30.113zM18.3390547 13.8689795L17.9740645 13.8689795C17.2739912 15.6950293 15.8970381 17.2079688 14.133 18.1260596L14.1840254 18.1260596 14.2190596 18.1270361C14.2339521 18.1270361 14.2479902 18.1260596 14.2630049 18.1260596 14.3660322 18.1260596 14.4679609 18.1380225 14.5690352 18.1590186 14.8779951 18.2090674 15.1649824 18.3180762 15.4190107 18.474082 16.2830244 18.8520117 17.0680586 19.3539648 17.7549482 19.9590674 18.8360029 17.9460059 19.3429609 15.5270605 19.5780684 13.29 19.2899824 13.6420508 18.8419844 13.8689795 18.3390547 13.8689795zM2.3700791 13.8689326L2.0049668 13.8689326C1.50008398 13.8689326 1.05208594 13.6410273.764 13.288.998985352 15.5249385 1.50801855 17.9449824 2.58907324 19.9590205 3.27608496 19.353918 4.06099707 18.8519648 4.92501074 18.4740352 5.1780625 18.3180293 5.46602637 18.2090205 5.77498633 18.1589717 5.87508398 18.1379756 5.9770127 18.1260127 6.08004004 18.1260127 6.09505469 18.1260127 6.11006934 18.1269893 6.12508398 18.1269893L6.15999609 18.1260127 6.21102148 18.1260127C4.4469834 17.2079219 3.07003027 15.6949824 2.3700791 13.8689326z"/>
        <g transform="translate(.429 10.855)">
          <path d="M1.43200684.267944336C1.43200684.177978516 1.43603516.0889892578 1.43896484 0 .63293457.0659179688 0 .713012695 0 1.50390625 0 2.3380127.704956055 3.01391602 1.57592773 3.01391602L1.93994141 3.01391602C1.61193848 2.15795898 1.43200684 1.23291016 1.43200684.267944336zM18.046 0C18.0489297.0889892578 18.052958.177978516 18.052958.267944336 18.052958 1.23291016 17.8740029 2.15795898 17.546 3.01391602L17.9100137 3.01391602C18.7800088 3.01391602 19.4859414 2.3380127 19.4859414 1.50390625 19.4859414.713012695 18.8530068.0659179688 18.046 0z"/>
        </g>
        <g transform="translate(5.3 11.741)">
          <path d="M9.74306055.891967773C9.74306055.398925781 9.32704492 0 8.81203027 0 8.29799219 0 7.881.398925781 7.881.891967773M1.86303711.891967773C1.86303711.398925781 1.44604492 0 .932006836 0 .416992188 0 0 .398925781 0 .891967773"/>
        </g>
        <path d="M8.596 15.544C8.596 16.3779844 9.30095605 17.0549863 10.1720498 17.0549863 11.0420449 17.0549863 11.7479775 16.3779844 11.7479775 15.544M10.1720977 0C5.10410449 0 .956033203 3.76403809.600076172 8.53405762.582986328 8.75402832.572 8.97607422.572 9.20007324.572 9.91906738.585061523 10.7390137.632058594 11.6170654.881082031 11.1950684 1.33603809 10.8990479 1.86704395 10.8551025 1.8910918 10.1630859 2.00803516 9.49304199 2.20505664 8.85705566L2.20310352 8.8560791C2.94309375 8.99206543 3.69504687 9.10107422 4.32309863 9.10107422 8.06308887 9.10107422 11.2730498 7.72106934 12.6840605 5.74804688 13.3770537 7.23510742 14.914041 8.55908203 17.4860625 9.45605469 17.7220244 9.53808594 18.0250029 9.6151123 18.3450713 9.68701172 18.4170928 10.0670166 18.4610381 10.4570313 18.4760527 10.8551025 19.006082 10.8980713 19.4610381 11.1940918 19.7110381 11.6160889 19.7420439 11.0421143 19.7590117 10.4910889 19.7660918 9.97900391 19.769998 9.70910645 19.7720732 9.44812012 19.7720732 9.20007324 19.7720732 4.11901855 15.4740996 0 10.1720977 0zM1.73164341 27.75704C1.98359654 27.75704 2.22065709 27.8150234 2.43159459 27.914999 2.01960728 26.4619961 2.1876981 24.967001 2.81660435 23.6769619L.633620952 23.191C-.0693819773 24.8560391-.213302876 26.743002.332595562 28.5740566.594680523 28.0890713 1.12263462 27.75704 1.73164341 27.75704z"/>
        <ellipse cx="1.732" cy="29.267" rx="1.576" ry="1.51"/>
        <path d="M19.8139668,22.6609121 C18.9019795,20.7870107 17.355959,19.3219229 15.4189473,18.4740225 C15.1649189,18.3180166 14.8779316,18.2090078 14.5689717,18.158959 C14.4678975,18.1379629 14.3659687,18.126 14.2629414,18.126 C14.2479268,18.126 14.2338887,18.1269766 14.2189961,18.1269766 L14.1839619,18.126 L14.1329365,18.126 C12.954958,18.738915 11.605959,19.0869375 10.171999,19.0869375 C8.73791699,19.0869375 7.38794141,18.738915 6.21093945,18.126 L6.15991406,18.126 L6.12500195,18.1269766 C6.1099873,18.1269766 6.09497266,18.126 6.07995801,18.126 C5.97693066,18.126 5.87500195,18.1379629 5.7749043,18.158959 C5.46594434,18.2090078 5.17798047,18.3180166 4.92492871,18.4740225 C2.98791699,19.3219229 1.44091992,20.7870107 0.528932617,22.6609121 C0.454958008,22.8130117 0.387941406,22.9669424 0.323,23.1219717 L3.13195996,23.7469717 C3.33496289,23.3419424 3.5828877,22.9669424 3.86694531,22.6229482 L3.86694531,30.165917 L16.4759541,30.165917 L16.4759541,22.6229482 C16.7609883,22.9669424 17.0089131,23.3419424 17.211916,23.7469717 L20.0198994,23.1219717 C19.9559346,22.9669424 19.8879414,22.8130117 19.8139668,22.6609121 Z"/>
        <path d="M20.6880557,27.3149902 C20.9130312,27.206958 21.298041,27.1489746 21.5330264,27.1489746 C20.488959,26.0239746 19.798041,24.6229736 19.7610537,23.2 L17.581,23.6959717 C17.7269961,25.4869873 18.475043,27.2379639 19.8150088,28.6439697 C19.8250186,28.0979492 20.1420352,27.575 20.6880557,27.3149902 Z"/>
        <ellipse cx="21.39" cy="28.667" rx="1.576" ry="1.51"/>
      </g>
    </g>
    <text fill="#333838" fill-rule="nonzero" font-family="GaramondPremrPro-Disp, Garamond Premier Pro" font-size="11">
      <tspan x="229.264" y="61.402">“We miss them</tspan> <tspan x="229.264" y="73.402"> between </tspan> <tspan x="266.862" y="73.402" font-family="GaramondPremrPro-SmbdDisp, Garamond Premier Pro" font-weight="500">12 to 15</tspan> <tspan x="297.002" y="73.402"> </tspan> <tspan x="229.264" y="85.402"> </tspan> <tspan x="234.148" y="85.402" font-family="GaramondPremrPro-SmbdDisp, Garamond Premier Pro" font-weight="500">hours</tspan> <tspan x="255.829" y="85.402"> every week. ” </tspan>
    </text>
    <rect width="320" height="160" x=".143" y=".063" stroke="#FFF" stroke-width=".5"/>
  </g>
</svg>
