<svg xmlns="http://www.w3.org/2000/svg" width="320" height="161" viewBox="0 0 320 161">
  <g fill="none" fill-rule="evenodd" transform="translate(-.238 .489)">
    <g transform="translate(19 50)">
      <g transform="translate(0 10.417)">
        <g transform="translate(9.223 10.635)">
          <g fill-rule="nonzero" stroke="#222F3C" stroke-linecap="round" stroke-linejoin="round" stroke-width=".5" transform="translate(.584 7.492)">
            <g transform="translate(10.711 5.164)">
              <line x1="7.64" x2="7.64" y1="4.289" y2="6.487"/>
              <g transform="translate(.623 9.128)">
                <g transform="translate(0 1.02)">
                  <line x1="16.046" x2="16.046" y2="3.627"/>
                  <line y2="3.627"/>
                </g>
                <rect width="4.267" height="4.718" x="4.864" rx="1" transform="rotate(-180 6.997 2.359)"/>
                <line y2="3.627" transform="translate(26.569 1.02)"/>
              </g>
              <path d="M23.5020811,8.61950684 L15.3004209,8.61950684 L7.68543066,0 L21.2327939,0 L22.4646055,1.45678711"/>
              <line x1="7.615" y1=".012" y2="8.632"/>
            </g>
            <line x1="7.64" x2="7.64" y1="4.29" y2="6.487"/>
            <g transform="translate(.623 9.022)">
              <line y2="3.627" transform="translate(0 1.029)"/>
              <rect width="4.267" height="4.718" x="4.864" rx="1" transform="rotate(-180 6.997 2.359)"/>
            </g>
            <path d="M15.3002363,8.61950684 L7.68536816,0 L21.2326094,0 L25.8478438,5.1307373"/>
            <line x1="7.615" y1=".012" y2="8.632"/>
          </g>
          <g transform="translate(44.852 3.326)">
            <g transform="translate(0 9.33)">
              <g transform="translate(0 9.022)">
                <rect width="4.267" height="4.718" x="17.438" stroke="#222F3C" stroke-linecap="round" stroke-linejoin="round" stroke-width=".5" rx="1"/>
              </g>
              <g fill-rule="nonzero" stroke="#222F3C" stroke-linecap="round" stroke-linejoin="round" stroke-width=".5" transform="translate(2.528)">
                <path d="M0,8.61950684 L9.36437988,8.61950684 L16.979248,0 L3.43200684,0 L0.0266113281,4.01062012"/>
                <line x1="17.049" x2="24.664" y1=".012" y2="8.632"/>
              </g>
            </g>
            <g fill-rule="nonzero" stroke="#222F3C" stroke-linecap="round" stroke-linejoin="round" stroke-width=".5" transform="translate(12.056)">
              <path d="M4.26696777,2.50097656 L4.26696777,1 C4.26696777,0.447998047 3.81896973,0 3.26696777,0 L1,0 C0.447998047,0 0,0.447998047 0,1 L0,3.71801758 C0,4.27001953 0.447998047,4.71801758 1,4.71801758 L2.26696777,4.71801758" transform="translate(16.093 13.241)"/>
              <g transform="translate(0 4.166)">
                <path d="M10.5474854,8.61950684 L18.1623535,0 L4.6151123,0 L0,5.1307373"/>
                <line x1="18.232" x2="25.847" y1=".012" y2="8.632"/>
              </g>
              <g transform="translate(4.234)">
                <path d="M12.4024658,4.13012695 L16.0585938,0 L2.51135254,0 L0,2.8371582"/>
                <line x1="16.129" x2="23.744" y1=".012" y2="8.632"/>
              </g>
              <line y2="3.703" transform="translate(27.331 10.148)"/>
            </g>
          </g>
          <g fill-rule="nonzero" stroke="#222F3C" stroke-linecap="round" stroke-linejoin="round" stroke-width=".5">
            <path d="M0,0 L9.17028809,0 L12.5554199,3.52209473" transform="translate(22.773 5.164)"/>
            <path d="M11.531666,4.10717773 L7.68498633,0 L21.2322275,0 L25.8474619,5.13061523"/>
            <line x1="7.615" y1=".012" y2="8.631"/>
          </g>
        </g>
        <g fill-rule="nonzero" stroke="#222F3C" stroke-linecap="round" stroke-linejoin="round" stroke-width=".5" transform="translate(0 31.868)">
          <line x1="103.57" x2="16.852" y1="5.289" y2="5.289"/>
          <line x1="16.232"/>
        </g>
        <g fill-rule="nonzero" stroke="#222F3C" stroke-linecap="round" stroke-linejoin="round" stroke-width=".5" transform="translate(41.399 21.768)">
          <path d="M8.55395508,2.82702637 C8.4630127,1.2520752 7.10192871,0 5.4329834,0 C3.76293945,0 2.4029541,1.2520752 2.31091309,2.82702637 C0.979980469,3.17102051 0,4.33203125 0,5.71398926 C0,7.09509277 0.979003906,8.25500488 2.3079834,8.60009766 C2.30700684,8.6361084 2.30200195,8.67199707 2.30200195,8.70800781 C2.30200195,10.3620605 3.70397949,11.7020264 5.4329834,11.7020264 C7.1619873,11.7020264 8.56298828,10.3620605 8.56298828,8.70800781 C8.56298828,8.67199707 8.55895996,8.6361084 8.55700684,8.60009766"/>
          <line x1="5.47" x2="7.921" y1="6.562" y2="4.35"/>
          <line x1="5.297" x2="3.195" y1="7.859" y2="5.097"/>
          <g transform="translate(8.609 3.467)">
            <path d="M0,5.11999512 C0.246948242,5.86901855 0.872924805,6.45605469 1.67590332,6.6640625 C1.67492676,6.69104004 1.67089844,6.71899414 1.67089844,6.74694824 C1.67089844,8.0279541 2.76599121,9.0670166 4.11694336,9.0670166 C5.46691895,9.0670166 6.56201172,8.0279541 6.56201172,6.74694824 C6.56201172,6.71899414 6.5579834,6.69104004 6.55700684,6.6640625 C7.59594727,6.39599609 8.35998535,5.49694824 8.35998535,4.42700195 C8.35998535,3.35595703 7.5949707,2.45703125 6.55493164,2.19006348 C6.48291016,0.969970703 5.42089844,0 4.11694336,0 C3.22998047,0 2.4630127,0.45300293 2.03491211,1.12304688"/>
            <line x1="4.142" x2="6.06" y1="5.288" y2="3.37"/>
            <line x1="4.011" x2="2.369" y1="6.089" y2="3.949"/>
          </g>
        </g>
        <path stroke="#222F3C" stroke-linecap="round" stroke-linejoin="round" stroke-width=".5" d="M0,0 C1.13098145,0.118041992 1.20495605,1.26403809 1.20703125,1.31298828 L1.23498535,1.83898926 L1.65197754,1.51806641 C3.00402832,0.473022461 4.74902344,0.906005859 4.76696777,0.911010742" transform="translate(4.953 11.152)"/>
        <path stroke="#222F3C" stroke-linecap="round" stroke-linejoin="round" stroke-width=".5" d="M0,0 C1.13098145,0.119018555 1.20495605,1.26501465 1.20800781,1.31396484 L1.23596191,1.83898926 L1.65197754,1.51904297 C3.00402832,0.473999023 4.74902344,0.906982422 4.76696777,0.911987305" transform="translate(5.238)"/>
        <g transform="translate(63.567 41.958)">
          <g fill-rule="nonzero" stroke="#231F20" stroke-linecap="round" stroke-linejoin="round" stroke-width=".4">
            <path d="M0.109008789,10.5599365 C0.0490722656,10.5599365 0,10.5109863 0,10.4509277 L0,0.109008789 C0,0.0489501953 0.0490722656,0 0.109008789,0 L8.70300293,0 C8.72399902,0 8.74401855,0.00598144531 8.76208496,0.0169677734 C8.84802246,0.0720214844 10.8510742,1.36901855 11.4770508,3.03601074 C11.6700439,3.04003906 12.236084,3.02294922 12.6209717,2.67199707 C12.8840332,2.4329834 13.0169678,2.08093262 13.0169678,1.625" transform="translate(1.163)"/>
            <g transform="translate(9.113 3.25)">
              <path d="M0.658008789,7.30995117 C0.597950195,7.30995117 0.549,7.26100098 0.549,7.20094238 L0.549,4.485"/>
              <path d="M5.55090332,0 L7.51000977,2.93798828 C7.52197266,2.95593262 7.5279541,2.97692871 7.5279541,2.99804688 L7.5279541,4.32592773 C7.5279541,4.38598633 7.47900391,4.43493652 7.41894531,4.43493652 L2.94689941,4.43493652 L2.94689941,7.20092773 C2.94689941,7.26098633 2.89794922,7.30993652 2.8380127,7.30993652 L1.70092773,7.30993652 C1.64001465,7.30993652 1.59191895,7.26098633 1.59191895,7.20092773 L1.59191895,4.46594238 L0,4.46594238"/>
            </g>
            <path d="M1.31994629,1.70800781 L1.31994629,2.76904297 C1.31994629,2.82800293 1.27197266,2.87597656 1.21398926,2.87597656 L0.105957031,2.87597656 C0.0469970703,2.87597656 0,2.82800293 0,2.76904297 L0,0" transform="translate(2.224 7.684)"/>
            <path d="M5.89196777,0 L1.82995605,0 C1.8059082,0.989013672 0.994018555,1.78503418 0,1.78503418" transform="translate(3.879 7.713)"/>
            <path d="M0,4.01293945 L0,3.18591309 C0,3.15698242 0.0109863281,3.12902832 0.0310058594,3.10900879 L0.405029297,2.73498535 L0.405029297,0" transform="translate(0 1.067)"/>
            <g transform="translate(13.955 4.764)">
              <path d="M0.869995117,0 C0.869995117,0.0599365234 0.821044922,0.109008789 0.760986328,0.109008789 L0.109008789,0.109008789 C0.0490722656,0.109008789 0,0.0599365234 0,0"/>
            </g>
            <g transform="translate(9.309 10.451)">
              <path d="M7.33203125,0 C7.33203125,0.0600585938 7.28308105,0.109008789 7.22302246,0.109008789 L0,0.109008789"/>
            </g>
          </g>
        </g>
        <g fill-rule="nonzero" stroke="#222F3C" stroke-linecap="round" stroke-linejoin="round" stroke-width=".4" transform="translate(86.642 44.289)">
          <g transform="translate(0 1.244)">
            <path d="M6.20779575,8.52807617 L3.26284946,8.52807617 C3.24185337,8.52807617 3.22183384,8.52099609 3.20486607,8.50805664 L1.34280552,6.96899414 C1.32278599,6.95202637 1.3108231,6.92700195 1.3108231,6.90002441 L1.3108231,5.20898438 C1.3108231,5.19702148 1.31277622,5.18505859 1.31778111,5.17407227 L1.82388462,3.95605469 L1.80581821,1.46203613 L0.0898758318,1.46203613 C0.0528885271,1.46203613 0.0207840349,1.44006348 0.00686801929,1.40698242 C-0.00717006665,1.37304688 0.000886573975,1.33508301 0.0257889177,1.30908203 L0.512849465,0.822021484 C0.52285923,0.812011719 0.533845558,0.805053711 0.546785011,0.801025391 L0.880769386,0.685058594 L1.58682407,0.0240478516 C1.60379185,0.00903320312 1.62478794,0 1.64785923,0 L3.2618729,0 C3.3108231,0 3.35086216,0.0400390625 3.35086216,0.0900878906 L3.35183872,4.73901367 L4.31582798,4.73901367 C5.42984165,4.73901367 6.52786411,4.92797852 7.57681431,5.30004883 L8.74478306,5.7130127 C8.7807938,5.72607422 8.80484165,5.76000977 8.80484165,5.7980957 L8.80484165,6.27307129 C8.80484165,6.30102539 8.79178013,6.32800293 8.76883091,6.34399414 L7.48184361,7.31005859 L6.26980747,8.50305176 C6.25381626,8.51904297 6.23086704,8.52807617 6.20779575,8.52807617 Z M3.35183872,5.45007324 L3.35183872,6.01403809"/>
            <path d="M0,1.265625 L1.1105957,0.505981445 L1.1105957,0" transform="translate(3.668 8.999)"/>
            <path d="M0,0 L1.10168457,1.15917969 L3.54772949,1.15917969" transform="translate(3.376 6.031)"/>
          </g>
          <path d="M0,1.23400879 L0,0.0900878906 C0,0.041015625 0.0400390625,0 0.0900878906,0 L0.509033203,0 C0.532104492,0 0.555053711,0.0100097656 0.572021484,0.0270996094 L0.893066406,0.347045898 L1.13708496,0.347045898 C1.16101074,0.347045898 1.18408203,0.357055664 1.2010498,0.374023438 L1.4720459,0.645019531 C1.48901367,0.662109375 1.49804688,0.685058594 1.49804688,0.709106445 L1.49804688,1.23400879" transform="translate(1.74)"/>
          <path d="M0.741088867,1.48303223 L0.0891113281,1.48303223 C0.0400390625,1.48303223 0,1.44299316 0,1.39404297 L0,0.805053711 C0,0.793945312 0.00109863281,0.783935547 0.00500488281,0.774047852 L0.291992188,0" transform="translate(1.063 3.112)"/>
        </g>
      </g>
      <g fill-rule="nonzero" stroke="#231F20" stroke-linecap="round" stroke-linejoin="round" stroke-width=".4" transform="translate(38.128 56.334)">
        <path d="M3.67895508,7.35705566 C1.65100098,7.35705566 0,5.70703125 0,3.67797852 C0,1.65002441 1.65100098,0 3.67895508,0 C5.70703125,0 7.35803223,1.65002441 7.35803223,3.67797852 C7.35803223,5.70703125 5.70703125,7.35705566 3.67895508,7.35705566 Z" transform="translate(1.507 2.584)"/>
        <path d="M2.79797363,5.59509277 C1.25500488,5.59509277 0,4.34008789 0,2.79699707 C0,1.25500488 1.25500488,0 2.79797363,0 C4.34106445,0 5.59594727,1.25500488 5.59594727,2.79699707 C5.59594727,4.34008789 4.34106445,5.59509277 2.79797363,5.59509277 Z" transform="translate(13.299 4.346)"/>
        <path d="M2.22290039,0 C3.44897461,0 4.44592285,0.996948242 4.44592285,2.22192383 C4.44592285,3.44799805 3.44897461,4.44494629 2.22290039,4.44494629 C0.996948242,4.44494629 0,3.44799805 0,2.22192383 C0,1.79699707 0.12097168,1.38293457 0.348999023,1.02600098" transform="translate(2.963 4.04)"/>
        <path d="M1.3449707,2.69104004 C0.603027344,2.69104004 0,2.08703613 0,1.3449707 C0,0.603027344 0.603027344,0 1.3449707,0 C2.08703613,0 2.69104004,0.603027344 2.69104004,1.3449707 C2.69104004,2.08703613 2.08703613,2.69104004 1.3449707,2.69104004 Z" transform="translate(14.752 5.798)"/>
        <line x1="1.678" y1=".02" transform="translate(11.654 6.704)"/>
        <path d="M0.130981445,3.65393066 C0.0589599609,3.65393066 0,3.5949707 0,3.52294922 L0,0.130981445 C0,0.0589599609 0.0589599609,0 0.130981445,0 L7.4979248,0 C7.93994141,0 8.29992676,0.359985352 8.29992676,0.802001953 L8.29992676,3.42297363 C8.29992676,3.86499023 7.93994141,4.22497559 7.4979248,4.22497559 L7.35192871,4.22497559" transform="translate(11.532 3.05)"/>
        <path d="M1.49389648,5.97998047 L0.802001953,5.97998047 C0.359985352,5.97998047 0,5.61999512 0,5.17797852 L0,0.802001953 C0,0.359985352 0.359985352,0 0.802001953,0 L1.63891602,0" transform="translate(0 .749)"/>
        <path d="M0,0 L2.72900391,0 C3.05895996,0 3.35998535,0.208007812 3.47802734,0.515991211" transform="translate(3.464 .749)"/>
        <path d="M1.13598633,1.60900879 L0.130981445,1.60900879 C0.0589599609,1.60900879 0,1.5579834 0,1.49597168 L0,0.112915039 C0,0.0499267578 0.0589599609,0 0.130981445,0 L1.13598633,0 C1.20898437,0 1.26696777,0.0499267578 1.26696777,0.112915039 L1.26696777,1.49597168 C1.26696777,1.5579834 1.20898437,1.60900879 1.13598633,1.60900879 Z" transform="translate(14.262 1.441)"/>
        <line x2=".626" y2=".629" transform="translate(10.913 2.421)"/>
        <line x1="1.495" y2="1.495" transform="translate(10.074 1.772)"/>
        <path d="M0,0 L1.21520996,3.18688965 L2.5871582,3.18688965" transform="translate(6.572 .223)"/>
      </g>
      <g fill-rule="nonzero" stroke="#222F3C" stroke-linecap="round" stroke-linejoin="round" stroke-width=".5" transform="translate(38.802)">
        <path d="M12.1090088,8.57507324 L1.09301758,8.57507324 C0.703979492,8.57507324 0,8.02807617 0,7.16003418 C0,6.29101562 0.703979492,5.74401855 1.57299805,5.74401855 L2.23095703,5.74401855 C2.07104492,5.74401855 1.97900391,5.00109863 1.97900391,4.59899902 C1.97900391,3.12304688 3.17602539,1.91711426 4.65100098,1.91711426 C5.35205078,1.91711426 5.98901367,2.18408203 6.46496582,2.62609863 C6.94299316,1.79003906 7.84106445,1.2220459 8.87304687,1.2220459 C9.31896973,1.2220459 9.73901367,1.32910156 10.1120605,1.51611328 C10.7890625,0.598022461 11.8740234,0 13.1020508,0 C15.1540527,0 16.8179932,1.68408203 16.8179932,3.73608398 C16.8179932,4.46801758 16.6040039,5.39111328 16.2380371,5.74401855" transform="translate(0 5.18)"/>
        <path d="M9.94152629,6.44280347 C9.57250774,3.89873609 11.1975077,0.638848394 14.4334696,0.0807429248 C17.43054,-0.435248286 20.2785624,1.57573804 20.7955302,4.57280835 C21.3515605,7.80181226 18.8365458,10.4318171 16.3034648,10.9347468"/>
        <path d="M11.3930664,0.87902832 C11.3930664,2.01208496 10.4749756,2.93908691 9.34204102,2.93908691 C8.80297852,2.93908691 8.31506348,2.73303223 7.94897461,2.39404297 C7.58203125,3.03601074 6.89196777,3.4720459 6.09997559,3.4720459 C5.75805664,3.4720459 5.43505859,3.39001465 5.14904785,3.24707031 C4.62902832,3.9510498 3.79602051,4.41101074 2.85302734,4.41101074 C1.27697754,4.41101074 0,3.11804199 0,1.54199219 C0,0.979003906 0.1640625,0.270996094 0.445068359,0" transform="translate(12.099 11.82)"/>
        <path d="M22.458,5.263 C24.5450361,5.263 26.2359541,6.9550166 26.2359541,9.04107617 C26.2359541,11.1270137 24.5450361,12.8190303 22.458,12.8190303"/>
      </g>
    </g>
    <g fill-rule="nonzero" transform="translate(124.909 72.511)">
      <path fill="#333838" d="M7.5785,11.121 C7.7875,11.121 7.9855,11.11 8.0845,11.066 C8.1615,11.044 8.2055,11 8.2055,10.978 C8.2055,10.945 8.1395,10.912 8.0625,10.912 C7.8535,10.901 7.5675,10.824 7.2375,10.483 C7.0065,10.252 6.7755,9.966 6.4345,9.482 C6.0825,8.965 5.4555,7.942 5.2465,7.524 C5.2025,7.414 5.1915,7.348 5.2355,7.326 C5.4005,7.26 5.6975,7.139 5.8625,6.985 C6.1155,6.798 6.4895,6.468 6.4895,5.753 C6.4895,5.247 6.2805,4.774 5.8075,4.433 C5.4445,4.169 4.9935,4.037 4.3335,4.037 C3.7615,4.037 3.4645,4.092 3.0025,4.092 C2.6175,4.092 2.2985,4.059 2.1445,4.059 C2.0125,4.059 1.9465,4.081 1.9465,4.125 C1.9465,4.18 2.0345,4.202 2.1335,4.224 C2.5955,4.301 2.6065,4.466 2.6285,4.774 C2.64920588,5.126 2.68939965,5.76057439 2.69405669,7.10874944 L2.6945,7.37 C2.6945,8.745 2.6725,9.625 2.6395,10.252 C2.6065,10.703 2.4965,10.802 2.1335,10.879 C1.9905,10.901 1.9245,10.934 1.9245,10.978 C1.9245,11.033 2.0015,11.055 2.1115,11.055 C2.3205,11.055 2.7165,11 3.1125,11 C3.5195,11 3.8495,11.055 4.0475,11.055 C4.1685,11.055 4.2565,11.022 4.2565,10.978 C4.2565,10.934 4.2125,10.901 4.0915,10.879 C3.7065,10.813 3.6185,10.692 3.5855,10.56 C3.5415,10.461 3.4975,10.098 3.4975,9.515 C3.4865,9.097 3.4865,7.821 3.5085,7.689 C3.5195,7.634 3.5635,7.59 3.6075,7.579 C3.8385,7.568 3.9705,7.59 4.0695,7.612 C4.2125,7.634 4.3225,7.733 4.4655,7.92 C4.6855,8.261 5.4885,9.603 5.9725,10.241 C6.4125,10.813 6.8965,11.121 7.5785,11.121 Z M3.8385,7.414 C3.7615,7.414 3.6295,7.414 3.5745,7.392 C3.5305,7.392 3.4865,7.348 3.4865,7.205 L3.48689232,7.0702085 C3.48894444,6.53291358 3.49872222,4.69577778 3.5085,4.51 C3.5195,4.323 3.5525,4.312 3.5745,4.301 C3.6295,4.257 3.7835,4.224 3.9265,4.224 C4.4765,4.224 4.8615,4.356 5.1805,4.664 C5.4665,4.95 5.6205,5.368 5.6205,5.929 C5.6205,6.523 5.3125,6.952 5.0045,7.172 C4.7625,7.326 4.1245,7.403 3.8385,7.414 Z M9.3165,5.874 C9.4595,5.874 9.7235,5.753 9.7235,5.456 C9.7235,5.269 9.5915,5.038 9.3385,5.038 C9.1625,5.038 8.9535,5.192 8.9535,5.467 C8.9535,5.687 9.1185,5.874 9.3165,5.874 Z M9.9215,11.044 C10.0095,11.044 10.0975,11.022 10.0975,10.967 C10.0975,10.923 10.0425,10.901 9.9325,10.879 C9.7565,10.835 9.6465,10.78 9.6245,10.56 C9.60721429,10.4130714 9.6035102,9.87906633 9.60271647,9.20875984 L9.60294628,8.07484298 C9.60413636,7.59854545 9.6085,7.2 9.6245,7.04 C9.6355,6.919 9.6135,6.886 9.5805,6.886 C9.5585,6.886 9.5035,6.908 9.4155,6.963 C9.1845,7.062 8.9205,7.172 8.6235,7.249 C8.5245,7.271 8.4915,7.304 8.4915,7.337 C8.4915,7.359 8.5245,7.392 8.5795,7.425 C8.8875,7.59 8.8985,7.656 8.8985,7.81 C8.8985,7.92 8.8765,9.922 8.8655,10.252 C8.8545,10.703 8.7555,10.791 8.5135,10.857 C8.3595,10.879 8.3045,10.912 8.3045,10.956 C8.3045,11 8.3815,11.022 8.4585,11.022 C8.5795,11.022 8.7555,11 9.1185,11 C9.4155,11 9.8225,11.044 9.9215,11.044 Z M12.3195,11.154 C12.3525,11.154 12.3965,11.132 12.4515,10.967 C12.5725,10.582 12.7705,10.197 12.9795,9.735 C13.0895,9.471 13.6505,8.239 13.9035,7.689 C14.0355,7.381 14.1565,7.249 14.3765,7.194 C14.4755,7.161 14.5415,7.139 14.5415,7.095 C14.5415,7.051 14.4645,7.029 14.3875,7.029 C14.2885,7.029 14.0025,7.062 13.8265,7.062 C13.5845,7.062 13.4195,7.029 13.2875,7.029 C13.1995,7.029 13.1555,7.04 13.1555,7.073 C13.1555,7.117 13.1995,7.15 13.2875,7.172 C13.5845,7.238 13.6505,7.359 13.6505,7.425 C13.6505,7.557 13.5955,7.678 13.5295,7.876 C13.3975,8.272 12.7815,9.735 12.6385,9.999 C12.6275,10.032 12.6055,10.021 12.5945,9.977 C12.4515,9.713 11.7915,8.008 11.6925,7.667 C11.6045,7.337 11.6265,7.271 11.9125,7.194 C12.0005,7.172 12.0665,7.139 12.0665,7.095 C12.0665,7.051 12.0115,7.029 11.9015,7.029 C11.7255,7.029 11.5385,7.062 11.2415,7.062 C10.9115,7.062 10.7245,7.018 10.4165,7.018 C10.2845,7.018 10.2295,7.051 10.2295,7.095 C10.2295,7.128 10.2845,7.161 10.3835,7.183 C10.6585,7.249 10.7685,7.359 10.8785,7.568 C11.0655,7.92 11.7145,9.636 11.9125,10.142 C12.0665,10.56 12.1435,10.824 12.1985,10.989 C12.2425,11.143 12.2865,11.154 12.3195,11.154 Z M16.5215,11.121 C17.1485,11.121 17.6105,10.901 18.0505,10.428 C18.1165,10.351 18.1605,10.285 18.1605,10.252 C18.1605,10.197 18.1165,10.175 18.0285,10.263 C17.7645,10.516 17.4345,10.615 16.9835,10.615 C16.6205,10.615 16.1805,10.494 15.8835,10.164 C15.5975,9.845 15.3775,9.394 15.3775,8.833 C15.3775,8.525 15.4105,8.36 15.4655,8.228 C15.4875,8.195 15.5425,8.14 15.5645,8.14 L16.1585,8.14 C16.4115,8.14 17.8415,8.162 17.9295,8.173 C17.9845,8.173 18.0395,8.107 18.0395,8.052 C18.0395,7.381 17.3465,6.93 16.6975,6.93 C16.1255,6.93 15.6195,7.194 15.3225,7.48 C14.8605,7.931 14.6845,8.58 14.6845,9.086 C14.6845,9.68 14.8825,10.208 15.2125,10.56 C15.5425,10.912 16.0045,11.121 16.5215,11.121 Z M15.6085,7.986 C15.5865,7.986 15.5645,7.964 15.5645,7.942 C15.5645,7.854 15.6635,7.645 15.7955,7.491 C16.0375,7.238 16.3125,7.084 16.5985,7.084 C16.8515,7.084 17.0385,7.183 17.1485,7.293 C17.2695,7.425 17.3025,7.623 17.3025,7.755 C17.3025,7.854 17.2805,7.975 17.0385,7.975 L15.6085,7.986 Z M18.6555,11.066 C18.8095,11.066 18.9305,11 19.3265,11 C19.7885,11 20.1515,11.044 20.3605,11.044 C20.5255,11.044 20.6245,11.022 20.6245,10.967 C20.6245,10.912 20.5695,10.89 20.4155,10.868 C19.9975,10.824 19.8655,10.747 19.8215,10.406 C19.7995,10.175 19.7775,9.603 19.7775,8.789 C19.7775,8.569 19.7665,8.25 19.7885,8.118 C19.7995,7.986 19.8545,7.865 19.9755,7.733 C20.1185,7.601 20.2945,7.513 20.4595,7.513 C20.5805,7.513 20.7235,7.568 20.8445,7.645 C20.9655,7.711 21.0205,7.722 21.0425,7.722 C21.0755,7.722 21.1195,7.711 21.2185,7.623 C21.3505,7.502 21.4605,7.326 21.4605,7.249 C21.4605,7.194 21.4385,7.139 21.3835,7.095 C21.2735,7.007 21.1305,6.952 20.9985,6.952 C20.5585,6.952 20.1185,7.359 19.8105,7.744 C19.7775,7.777 19.7555,7.766 19.7555,7.733 C19.7555,7.557 19.7665,7.139 19.7665,7.018 C19.7665,6.908 19.7445,6.864 19.7225,6.864 C19.6895,6.864 19.6345,6.875 19.5575,6.919 C19.3815,7.018 19.0735,7.128 18.8535,7.183 C18.7545,7.216 18.6885,7.26 18.6885,7.282 C18.6885,7.304 18.6995,7.337 18.7765,7.392 C18.9855,7.568 19.0625,7.601 19.0625,7.678 L19.0625,8.899 C19.0625,9.625 19.0515,10.252 19.0295,10.439 C18.9855,10.736 18.8645,10.835 18.6335,10.89 C18.5455,10.912 18.4685,10.967 18.4685,11 C18.4685,11.044 18.5235,11.066 18.6555,11.066 Z M6.77,23.209 C6.825,23.209 6.858,23.143 6.935,22.956 C7.441,21.746 8.332,19.667 9.025,18.149 C9.718,16.587 9.916,16.356 10.378,16.235 C10.576,16.202 10.631,16.158 10.631,16.114 C10.631,16.07 10.576,16.059 10.433,16.059 C10.235,16.059 9.938,16.103 9.63,16.103 C9.3,16.103 9.146,16.059 8.86,16.059 C8.706,16.059 8.673,16.081 8.673,16.125 C8.673,16.169 8.739,16.191 8.915,16.246 C9.278,16.356 9.289,16.543 9.234,16.785 C9.003,17.599 7.672,20.679 7.144,21.823 C7.111,21.889 7.089,21.9 7.045,21.823 C6.671,20.998 6.187,19.953 5.912,19.304 C5.89,19.249 5.89,19.194 5.901,19.172 C6.088,18.831 6.627,17.742 6.913,17.192 C7.276,16.554 7.485,16.323 7.892,16.235 C8.046,16.202 8.101,16.169 8.101,16.114 C8.101,16.07 8.046,16.059 7.914,16.059 C7.661,16.059 7.485,16.103 7.1,16.103 C6.814,16.103 6.638,16.07 6.363,16.07 C6.231,16.07 6.165,16.092 6.165,16.125 C6.165,16.169 6.198,16.213 6.396,16.257 C6.869,16.367 6.88,16.477 6.539,17.28 C6.308,17.819 6.077,18.325 5.813,18.864 C5.78,18.919 5.736,18.908 5.725,18.886 C5.362,18.05 5.032,17.302 4.856,16.84 C4.691,16.433 4.801,16.301 5.098,16.246 C5.241,16.213 5.307,16.18 5.307,16.125 C5.307,16.081 5.23,16.059 5.12,16.059 C4.867,16.059 4.614,16.103 4.218,16.103 C3.822,16.103 3.613,16.059 3.294,16.059 C3.151,16.059 3.085,16.092 3.085,16.125 C3.085,16.18 3.14,16.224 3.316,16.257 C3.657,16.345 3.745,16.477 4.064,17.159 C4.306,17.687 5.043,19.359 5.219,19.777 C5.219,19.799 5.219,19.876 5.197,19.909 C4.9,20.613 4.636,21.163 4.328,21.79 C4.295,21.845 4.251,21.867 4.218,21.79 C3.47,20.14 2.381,17.797 1.919,16.653 C1.842,16.455 1.842,16.323 2.15,16.268 C2.282,16.246 2.348,16.213 2.348,16.158 C2.348,16.114 2.282,16.081 2.128,16.081 C1.897,16.081 1.633,16.103 1.391,16.103 C1.061,16.103 0.61,16.059 0.346,16.059 C0.203,16.059 0.126,16.103 0.126,16.136 C0.126,16.18 0.225,16.224 0.357,16.235 C0.775,16.29 0.863,16.488 1.259,17.346 C1.776,18.424 2.513,20.052 3.118,21.449 C3.261,21.779 3.602,22.582 3.745,22.945 C3.822,23.143 3.844,23.209 3.91,23.209 C3.954,23.209 4.02,23.121 4.086,22.945 C4.328,22.307 4.911,21.02 5.329,20.206 C5.351,20.173 5.384,20.173 5.406,20.217 C5.725,20.921 6.352,22.285 6.583,22.956 C6.649,23.132 6.693,23.209 6.77,23.209 Z M12.017,23.121 C12.369,23.121 12.71,22.956 12.864,22.648 C12.908,22.549 12.864,22.516 12.798,22.549 C12.677,22.615 12.567,22.648 12.479,22.648 C12.171,22.648 12.072,22.439 12.072,22.23 C12.072,21.944 12.105,20.899 12.105,20.492 C12.105,20.151 12.061,19.7 11.951,19.491 C11.819,19.15 11.478,18.93 11.104,18.93 C10.917,18.93 10.697,18.996 10.444,19.128 C10.224,19.238 9.861,19.469 9.608,19.766 C9.476,19.92 9.399,20.019 9.399,20.096 C9.399,20.14 9.454,20.206 9.509,20.195 C9.586,20.184 9.916,20.03 10.026,19.953 C10.048,19.931 10.07,19.898 10.07,19.865 C10.07,19.788 10.07,19.7 10.081,19.656 C10.103,19.535 10.169,19.458 10.246,19.392 C10.411,19.293 10.521,19.26 10.686,19.26 C10.818,19.26 11.005,19.326 11.148,19.436 C11.335,19.579 11.412,19.887 11.412,20.338 C11.412,20.492 11.412,20.712 11.39,20.844 C11.39,20.888 11.335,20.987 11.247,21.009 C11.016,21.097 10.015,21.394 9.751,21.537 C9.652,21.592 9.355,21.812 9.355,22.164 C9.355,22.736 9.795,23.11 10.235,23.11 C10.653,23.11 10.983,22.923 11.313,22.615 C11.324,22.604 11.357,22.604 11.368,22.626 C11.467,22.879 11.709,23.121 12.017,23.121 Z M10.719,22.692 C10.378,22.692 10.059,22.439 10.059,22.076 C10.059,21.757 10.202,21.592 10.334,21.526 C10.565,21.405 11.203,21.174 11.346,21.152 C11.368,21.141 11.39,21.196 11.39,21.207 C11.39,21.625 11.368,22.065 11.335,22.252 C11.324,22.373 11.258,22.472 11.214,22.516 C11.093,22.626 10.906,22.692 10.719,22.692 Z M14.602,23.099 C14.91,23.099 15.251,23 15.493,22.813 C15.636,22.703 15.735,22.593 15.735,22.527 C15.735,22.483 15.702,22.472 15.625,22.527 C15.526,22.593 15.328,22.692 15.02,22.692 C14.734,22.692 14.503,22.604 14.338,22.395 C14.261,22.285 14.239,22.153 14.217,21.801 C14.206,21.46 14.195,19.733 14.195,19.546 C14.195,19.48 14.217,19.447 14.349,19.447 C14.646,19.447 15.185,19.458 15.57,19.458 C15.625,19.458 15.68,19.37 15.68,19.183 C15.68,19.106 15.636,19.029 15.614,19.029 C15.383,19.029 14.47,19.062 14.272,19.062 C14.228,19.062 14.217,18.996 14.217,18.963 C14.206,18.831 14.228,18.523 14.228,18.424 C14.228,18.369 14.151,18.347 14.052,18.457 C13.788,18.798 13.425,19.095 13.15,19.194 C13.029,19.249 13.018,19.282 13.018,19.304 C13.018,19.348 13.073,19.381 13.161,19.403 C13.26,19.425 13.381,19.447 13.425,19.469 C13.469,19.491 13.48,19.568 13.48,19.689 L13.48,21.966 C13.48,22.23 13.524,22.45 13.612,22.593 C13.799,22.945 14.14,23.099 14.602,23.099 Z M17.825,23.121 C18.452,23.121 18.914,22.901 19.354,22.428 C19.42,22.351 19.464,22.285 19.464,22.252 C19.464,22.197 19.42,22.175 19.332,22.263 C19.068,22.516 18.738,22.615 18.287,22.615 C17.924,22.615 17.484,22.494 17.187,22.164 C16.901,21.845 16.681,21.394 16.681,20.833 C16.681,20.525 16.714,20.36 16.769,20.228 C16.791,20.195 16.846,20.14 16.868,20.14 L17.462,20.14 C17.715,20.14 19.145,20.162 19.233,20.173 C19.288,20.173 19.343,20.107 19.343,20.052 C19.343,19.381 18.65,18.93 18.001,18.93 C17.429,18.93 16.923,19.194 16.626,19.48 C16.164,19.931 15.988,20.58 15.988,21.086 C15.988,21.68 16.186,22.208 16.516,22.56 C16.846,22.912 17.308,23.121 17.825,23.121 Z M16.912,19.986 C16.89,19.986 16.868,19.964 16.868,19.942 C16.868,19.854 16.967,19.645 17.099,19.491 C17.341,19.238 17.616,19.084 17.902,19.084 C18.155,19.084 18.342,19.183 18.452,19.293 C18.573,19.425 18.606,19.623 18.606,19.755 C18.606,19.854 18.584,19.975 18.342,19.975 L16.912,19.986 Z M19.959,23.066 C20.113,23.066 20.234,23 20.63,23 C21.092,23 21.455,23.044 21.664,23.044 C21.829,23.044 21.928,23.022 21.928,22.967 C21.928,22.912 21.873,22.89 21.719,22.868 C21.301,22.824 21.169,22.747 21.125,22.406 C21.103,22.175 21.081,21.603 21.081,20.789 C21.081,20.569 21.07,20.25 21.092,20.118 C21.103,19.986 21.158,19.865 21.279,19.733 C21.422,19.601 21.598,19.513 21.763,19.513 C21.884,19.513 22.027,19.568 22.148,19.645 C22.269,19.711 22.324,19.722 22.346,19.722 C22.379,19.722 22.423,19.711 22.522,19.623 C22.654,19.502 22.764,19.326 22.764,19.249 C22.764,19.194 22.742,19.139 22.687,19.095 C22.577,19.007 22.434,18.952 22.302,18.952 C21.862,18.952 21.422,19.359 21.114,19.744 C21.081,19.777 21.059,19.766 21.059,19.733 C21.059,19.557 21.07,19.139 21.07,19.018 C21.07,18.908 21.048,18.864 21.026,18.864 C20.993,18.864 20.938,18.875 20.861,18.919 C20.685,19.018 20.377,19.128 20.157,19.183 C20.058,19.216 19.992,19.26 19.992,19.282 C19.992,19.304 20.003,19.337 20.08,19.392 C20.289,19.568 20.366,19.601 20.366,19.678 L20.366,20.899 C20.366,21.625 20.355,22.252 20.333,22.439 C20.289,22.736 20.168,22.835 19.937,22.89 C19.849,22.912 19.772,22.967 19.772,23 C19.772,23.044 19.827,23.066 19.959,23.066 Z" transform="translate(132.45 35)"/>
      <path stroke="#222F3C" stroke-linecap="round" stroke-width=".5" d="M115.292,27.9878975 L118.56202,24.718 L121.831795,27.9878975"/>
      <g stroke="#222F3C" stroke-dasharray="0 3 0 3" stroke-linecap="round" stroke-linejoin="round" transform="translate(0 19.144)">
        <g transform="translate(43.129 .054)">
          <path d="M64.697 8.643C64.697 11.6190742 67.1100859 14.0320381 70.085916 14.0320381 73.0629668 14.0320381 75.4760527 11.6190742 75.4760527 8.643M53.918 5.38903809C53.918 2.41296387 56.3309639 0 59.3080146 0 62.2839668 0 64.6969307 2.41296387 64.6969307 5.38903809L64.6969307 6.12902832M43.135 6.086L43.135 8.64288477C43.135 11.6179824 45.5460107 14.0309463 48.5209863 14.0319229M48.521 14.0319443L48.5240518 14.0319443 48.5240518 14.0319443C51.5000039 14.0319443 53.9130898 11.6189805 53.9130898 8.64290625L53.9130898 5.389M32.351 5.38903809C32.351 2.41296387 34.7639639 0 37.739916 0 40.7169668 0 43.1299307 2.41296387 43.1299307 5.38903809L43.1299307 6.12902832M26.954 14.0319443L26.9569297 14.0319443C29.9330039 14.0319443 32.3459678 11.6189805 32.3459678 8.64290625L32.3459678 5.389"/>
          <path d="M21.567 6.086L21.567 8.64288477C21.567 11.6179824 23.9789873 14.0309463 26.954085 14.0319229M10.784 5.38903809C10.784 2.41296387 13.1959873 0 16.1730381 0 19.1489902 0 21.5619541 2.41296387 21.5619541 5.38903809L21.5619541 6.12902832M0 6.086L0 8.64288477C0 11.6179824 2.41101074 14.0309463 5.38708496 14.0319229"/>
          <path d="M5.387,14.0319443 L5.38895312,14.0319443 C8.36600391,14.0319443 10.7789678,11.6189805 10.7789678,8.64290625 L10.7789678,5.389"/>
        </g>
        <path d="M32.351 5.38891602C32.351 2.41296387 34.7639639 0 37.7400381 0 40.7169668 0 43.1300527 2.41296387 43.1300527 5.38891602L43.1300527 6.12890625M26.954 14.0320664L26.9569297 14.0320664C29.9330039 14.0320664 32.3459678 11.6189805 32.3459678 8.64302832L32.3459678 5.389"/>
        <path d="M21.567 6.086L21.567 8.64300684C21.567 11.6179824 23.9791094 14.0310684 26.954085 14.0320449M10.784 5.38891602C10.784 2.41296387 13.1969639 0 16.1730381 0 19.1499668 0 21.5620762 2.41296387 21.5620762 5.38891602L21.5620762 6.12890625M0 6.086L0 8.64300684C0 11.6179824 2.4119873 14.0310684 5.38696289 14.0320449M5.387 14.0320664L5.38895312 14.0320664C8.36600391 14.0320664 10.7789678 11.6189805 10.7789678 8.64302832L10.7789678 5.389"/>
      </g>
      <g stroke-linecap="round" transform="translate(124.11 17.596)">
        <g stroke="#222F3C" stroke-width=".4" transform="translate(16.45 5.021)">
          <g transform="translate(1.636 1.982)">
            <path d="M.0723769531 1.483L.447621094 2.19308301.036 2.93954297M.0361328125 2.959L.411621094 3.66920508 0 4.41554297M.109376953 0L.484621094.710083008.073 1.45654297"/>
          </g>
          <path d="M.0723769531 1.482L.447621094 2.19208301.036 2.9384209M.0363769531 2.958L.411621094 3.66808301 0 4.41454297M.110376953 0L.485621094.710083008.074 1.45654297"/>
          <g transform="translate(3.978)">
            <g transform="translate(1.636 1.982)">
              <path d="M.0723769531 1.483L.447621094 2.19308301.036 2.93954297M.0363769531 2.959L.411621094 3.66920508 0 4.41554297M.110376953 0L.485621094.710083008.074 1.45654297"/>
            </g>
            <path d="M.0733769531 1.482L.448621094 2.19208301.037 2.9384209M.0363769531 2.958L.411621094 3.66808301 0 4.41454297M.110376953 0L.485865234.710083008.074 1.45654297"/>
          </g>
          <g transform="translate(7.956)">
            <g transform="translate(1.636 1.982)">
              <path d="M.0733769531 1.483L.448621094 2.19308301.037 2.93954297M.0363769531 2.959L.411621094 3.66920508 0 4.41554297M.110132812 0L.485621094.710083008.074 1.45654297"/>
            </g>
            <path d="M.0733769531 1.482L.448621094 2.19208301.037 2.9384209M.0363769531 2.958L.411621094 3.66808301 0 4.41454297M.110376953 0L.485621094.710083008.074 1.45654297"/>
          </g>
          <g transform="translate(11.934)">
            <path d="M.0731328125 1.482L.448621094 2.19208301.037 2.9384209M.0363769531 2.958L.411621094 3.66808301 0 4.41454297M.110376953 0L.485621094.710083008.074 1.45654297"/>
          </g>
        </g>
        <g stroke="#231F20" stroke-linejoin="round" stroke-width=".5" transform="translate(6.195)">
          <path d="M20.513916 2.53849731C9.46606445-.790482178 5.12304688.218428954 0 2.41947876M20.027 2.39111328C29.5968242 4.76611328 35.1388164 5.20910645 44.8939434 0"/>
        </g>
        <g stroke="#231F20" stroke-linejoin="round" stroke-width=".5" transform="translate(0 13.07)">
          <path d="M9.67211914.74403125C4.36914062 2.34205371 1.68798828 2.38795215 0 .162M9.438.813632153C14.0319941-.325405933 16.6921504-.538296558 21.3740352 1.96170344"/>
        </g>
        <path stroke="#231F20" stroke-linejoin="round" stroke-width=".5" d="M11.9838867,0.422973633 C7.46801758,1.83898926 4.82495117,2.2130127 0,0" transform="translate(20.974 14.852)"/>
      </g>
      <path fill="#333838" d="M3.575,11.055 C3.718,11.055 3.784,11.022 3.784,10.978 C3.784,10.934 3.729,10.89 3.608,10.868 C3.146,10.791 3.091,10.725 3.058,10.043 C3.036,9.57 3.014,7.26 3.025,6.336 C3.047,5.621 3.058,4.642 3.058,4.499 C3.058,4.433 3.036,4.422 3.014,4.422 C2.959,4.422 2.871,4.466 2.772,4.499 C2.464,4.631 1.859,4.719 1.375,4.785 C1.287,4.796 1.221,4.829 1.221,4.862 C1.221,4.906 1.32,4.939 1.386,4.95 C1.496,4.972 1.573,4.983 1.661,5.016 C1.749,5.06 1.793,5.137 1.804,5.258 C1.826,5.533 1.837,5.896 1.837,7.227 C1.837,9.108 1.815,9.702 1.782,10.043 C1.76,10.692 1.661,10.791 1.144,10.879 C1.034,10.901 0.968,10.923 0.968,10.967 C0.968,11.033 1.056,11.055 1.155,11.055 C1.54,11.055 1.749,11 2.288,11 C2.673,11 3.014,11.055 3.575,11.055 Z M14.707,11.066 C14.828,11.066 14.905,11.033 14.905,10.989 C14.905,10.934 14.828,10.901 14.729,10.868 C14.278,10.736 14.168,10.604 14.124,9.977 C14.102,9.603 14.047,8.503 14.047,7.304 C14.047,6.765 14.047,5.643 14.069,5.203 C14.102,4.598 14.124,4.455 14.762,4.323 C14.839,4.312 14.938,4.268 14.938,4.213 C14.938,4.169 14.883,4.136 14.74,4.136 C14.069,4.136 13.739,4.202 13.244,4.202 C13.189,4.202 13.112,4.345 13.112,4.367 C13.046,4.587 12.947,4.84 12.771,5.258 C12.529,5.797 11.209,8.514 10.901,9.064 C10.879,9.108 10.846,9.141 10.824,9.075 C10.439,8.371 8.888,5.225 8.514,4.345 C8.481,4.279 8.426,4.202 8.382,4.202 C7.788,4.202 7.073,4.147 6.655,4.136 C6.589,4.136 6.468,4.158 6.468,4.213 C6.468,4.279 6.567,4.312 6.644,4.334 C6.853,4.378 7.029,4.411 7.216,4.598 C7.425,4.818 7.458,4.961 7.458,5.621 C7.458,6.457 7.315,8.701 7.249,9.328 C7.172,10.109 7.117,10.362 6.996,10.538 C6.886,10.703 6.721,10.769 6.402,10.857 C6.248,10.901 6.215,10.945 6.215,10.978 C6.215,11.033 6.259,11.055 6.424,11.055 C6.556,11.055 6.864,11 7.216,11 C7.59,11 7.975,11.055 8.173,11.044 C8.283,11.055 8.382,11.033 8.382,10.956 C8.382,10.912 8.316,10.868 8.206,10.846 C7.876,10.78 7.667,10.615 7.623,10.362 C7.59,10.186 7.579,10.043 7.579,9.603 C7.579,8.844 7.678,6.226 7.722,5.764 C7.744,5.61 7.766,5.61 7.81,5.709 C8.096,6.27 9.691,9.79 10.087,10.736 C10.142,10.857 10.197,11.022 10.263,11.022 C10.329,11.022 10.373,10.945 10.461,10.769 C10.89,9.735 12.078,7.271 12.804,5.764 C12.826,5.676 12.859,5.753 12.859,5.797 L12.8585253,6.08918848 C12.8561073,6.99942561 12.8441176,9.13129412 12.815,9.636 C12.782,10.483 12.716,10.725 12.265,10.824 C12.188,10.846 12.078,10.901 12.078,10.945 C12.078,11.022 12.199,11.033 12.276,11.033 C12.43,11.033 12.969,11 13.398,11 C13.827,11 14.311,11.066 14.707,11.066 Z M16.401,6.039 C16.643,6.039 16.94,5.874 16.94,5.489 C16.94,5.236 16.731,4.972 16.456,4.972 C16.225,4.972 15.939,5.148 15.939,5.533 C15.939,5.819 16.17,6.039 16.401,6.039 Z M17.204,11.055 C17.292,11.055 17.369,11.033 17.369,10.978 C17.369,10.934 17.336,10.901 17.215,10.868 C16.995,10.813 16.94,10.714 16.918,10.527 C16.902875,10.4135625 16.8981484,9.96217578 16.8966714,9.29079712 L16.8963437,7.89164062 C16.897375,7.528125 16.9015,7.16925 16.918,6.996 C16.929,6.875 16.907,6.842 16.874,6.842 C16.841,6.842 16.797,6.875 16.709,6.908 C16.324,7.062 16.126,7.139 15.631,7.238 C15.51,7.271 15.477,7.304 15.477,7.326 C15.477,7.37 15.51,7.403 15.565,7.447 C15.851,7.645 15.851,7.689 15.851,7.898 C15.851,8.008 15.818,9.922 15.818,10.252 C15.818,10.637 15.741,10.78 15.455,10.846 C15.323,10.868 15.257,10.89 15.257,10.945 C15.257,10.989 15.345,11.022 15.444,11.022 C15.565,11.022 15.818,11 16.302,11 C16.764,11 17.017,11.055 17.204,11.055 Z M19.69,11.033 C19.8,11.033 19.91,11 19.91,10.956 C19.91,10.901 19.833,10.868 19.767,10.857 C19.481,10.791 19.415,10.747 19.404,10.395 C19.393,10.197 19.382,9.757 19.382,8.327 L19.382,7.469 C19.382,5.566 19.415,3.729 19.415,3.652 C19.415,3.597 19.393,3.531 19.371,3.531 C19.327,3.531 19.272,3.553 19.217,3.575 C18.986,3.652 18.557,3.817 18.106,3.883 C18.007,3.905 17.941,3.938 17.941,3.971 C17.941,4.004 17.974,4.048 18.051,4.092 C18.304,4.224 18.359,4.301 18.359,4.554 C18.37,4.928 18.359,6.094 18.359,6.699 C18.348,7.755 18.304,9.801 18.282,10.252 C18.26,10.725 18.194,10.791 17.897,10.846 C17.809,10.868 17.732,10.89 17.732,10.945 C17.732,11 17.82,11.022 17.93,11.022 C18.227,11.022 18.458,11 18.755,11 C18.92,11 19.36,11.033 19.69,11.033 Z M22.319,11.132 C23.034,11.132 23.595,10.78 23.936,10.296 C23.991,10.219 24.013,10.186 24.013,10.131 C24.013,10.076 23.969,10.054 23.892,10.142 C23.617,10.406 23.276,10.472 22.869,10.472 C22.594,10.472 22.176,10.34 21.912,10.043 C21.615,9.724 21.428,9.317 21.428,8.745 C21.428,8.58 21.45,8.393 21.483,8.294 C21.505,8.261 21.549,8.206 21.582,8.206 L21.978,8.206 C22.275,8.206 23.639,8.228 23.76,8.239 C23.815,8.239 23.892,8.162 23.892,8.085 C23.892,7.458 23.309,6.897 22.506,6.897 C21.923,6.897 21.461,7.139 21.164,7.392 C20.669,7.81 20.427,8.481 20.427,9.075 C20.427,9.647 20.614,10.197 20.955,10.56 C21.296,10.923 21.758,11.132 22.319,11.132 Z M21.593,8.041 C21.56,8.041 21.538,7.997 21.538,7.975 C21.538,7.865 21.648,7.59 21.78,7.414 C21.967,7.205 22.154,7.051 22.396,7.051 C22.583,7.051 22.726,7.15 22.803,7.238 C22.913,7.392 22.957,7.557 22.957,7.766 C22.957,7.865 22.935,8.03 22.638,8.03 L21.593,8.041 Z M27.621,11.099 C27.929,11.099 28.27,11 28.512,10.813 C28.655,10.703 28.754,10.593 28.754,10.527 C28.754,10.483 28.721,10.472 28.644,10.527 C28.545,10.593 28.347,10.692 28.039,10.692 C27.753,10.692 27.522,10.604 27.357,10.395 C27.28,10.285 27.258,10.153 27.236,9.801 C27.225,9.46 27.214,7.733 27.214,7.546 C27.214,7.48 27.236,7.447 27.368,7.447 C27.665,7.447 28.204,7.458 28.589,7.458 C28.644,7.458 28.699,7.37 28.699,7.183 C28.699,7.106 28.655,7.029 28.633,7.029 C28.402,7.029 27.489,7.062 27.291,7.062 C27.247,7.062 27.236,6.996 27.236,6.963 C27.225,6.831 27.247,6.523 27.247,6.424 C27.247,6.369 27.17,6.347 27.071,6.457 C26.807,6.798 26.444,7.095 26.169,7.194 C26.048,7.249 26.037,7.282 26.037,7.304 C26.037,7.348 26.092,7.381 26.18,7.403 C26.279,7.425 26.4,7.447 26.444,7.469 C26.488,7.491 26.499,7.568 26.499,7.689 L26.499,9.966 C26.499,10.23 26.543,10.45 26.631,10.593 C26.818,10.945 27.159,11.099 27.621,11.099 Z M31.141,11.132 C31.537,11.132 32.043,10.978 32.384,10.714 C32.736,10.439 33.231,9.845 33.231,9.009 C33.231,7.843 32.318,6.93 31.119,6.93 C30.591,6.93 30.096,7.161 29.799,7.392 C29.392,7.722 29.007,8.261 29.007,9.097 C29.007,10.241 30.008,11.132 31.141,11.132 Z M31.295,10.945 C30.954,10.945 30.558,10.769 30.261,10.362 C29.909,9.9 29.799,9.317 29.799,8.855 C29.799,7.711 30.393,7.117 30.954,7.117 C31.922,7.117 32.45,8.151 32.45,9.196 C32.45,9.988 32.153,10.516 31.988,10.67 C31.812,10.824 31.559,10.945 31.295,10.945 Z M39.402,11.143 C39.435,11.143 39.479,11.099 39.545,10.934 C39.677,10.582 39.875,10.087 40.062,9.647 C40.403,8.866 40.733,8.107 40.931,7.711 C41.074,7.414 41.206,7.26 41.404,7.205 C41.569,7.161 41.602,7.128 41.602,7.084 C41.602,7.04 41.547,7.029 41.448,7.029 C41.283,7.029 41.008,7.062 40.898,7.062 C40.722,7.062 40.524,7.029 40.337,7.029 C40.26,7.029 40.194,7.051 40.194,7.095 C40.194,7.128 40.227,7.161 40.37,7.205 C40.656,7.282 40.7,7.381 40.7,7.48 C40.7,7.557 40.623,7.755 40.524,8.008 C40.392,8.382 39.864,9.636 39.732,9.911 C39.732,9.933 39.71,9.977 39.677,9.922 C39.523,9.581 38.94,7.986 38.819,7.645 C38.687,7.304 38.753,7.26 39.006,7.205 C39.094,7.183 39.171,7.139 39.171,7.095 C39.171,7.062 39.127,7.04 39.006,7.04 C38.808,7.04 38.676,7.062 38.357,7.062 C38.126,7.062 37.84,7.018 37.609,7.018 C37.499,7.018 37.444,7.051 37.444,7.095 C37.444,7.139 37.499,7.161 37.598,7.183 C37.829,7.238 37.928,7.359 38.016,7.546 L38.203,7.997 C38.225,8.052 38.192,8.129 38.181,8.184 C38.071,8.47 37.587,9.537 37.411,9.911 C37.4,9.944 37.356,9.933 37.345,9.9 C37.092,9.284 36.619,8.03 36.454,7.524 C36.41,7.348 36.399,7.249 36.663,7.205 C36.74,7.194 36.85,7.15 36.85,7.117 C36.85,7.062 36.762,7.029 36.663,7.029 C36.443,7.029 36.223,7.062 36.025,7.062 C35.717,7.062 35.387,7.018 35.244,7.018 C35.123,7.018 35.046,7.04 35.046,7.095 C35.046,7.139 35.112,7.172 35.2,7.194 C35.475,7.26 35.607,7.414 35.684,7.623 C35.805,7.821 36.432,9.449 36.63,9.999 C36.817,10.516 36.883,10.791 36.938,10.945 C36.971,11.066 37.004,11.143 37.048,11.143 C37.092,11.143 37.147,11.077 37.202,10.934 C37.323,10.604 37.422,10.362 37.587,9.999 C37.741,9.614 38.203,8.591 38.302,8.393 C38.324,8.338 38.346,8.36 38.357,8.393 L39.017,10.186 L39.281,10.945 C39.325,11.099 39.358,11.143 39.402,11.143 Z M44.396,11.121 C44.748,11.121 45.089,10.956 45.243,10.648 C45.287,10.549 45.243,10.516 45.177,10.549 C45.056,10.615 44.946,10.648 44.858,10.648 C44.55,10.648 44.451,10.439 44.451,10.23 C44.451,9.944 44.484,8.899 44.484,8.492 C44.484,8.151 44.44,7.7 44.33,7.491 C44.198,7.15 43.857,6.93 43.483,6.93 C43.296,6.93 43.076,6.996 42.823,7.128 C42.603,7.238 42.24,7.469 41.987,7.766 C41.855,7.92 41.778,8.019 41.778,8.096 C41.778,8.14 41.833,8.206 41.888,8.195 C41.965,8.184 42.295,8.03 42.405,7.953 C42.427,7.931 42.449,7.898 42.449,7.865 C42.449,7.788 42.449,7.7 42.46,7.656 C42.482,7.535 42.548,7.458 42.625,7.392 C42.79,7.293 42.9,7.26 43.065,7.26 C43.197,7.26 43.384,7.326 43.527,7.436 C43.714,7.579 43.791,7.887 43.791,8.338 C43.791,8.492 43.791,8.712 43.769,8.844 C43.769,8.888 43.714,8.987 43.626,9.009 C43.395,9.097 42.394,9.394 42.13,9.537 C42.031,9.592 41.734,9.812 41.734,10.164 C41.734,10.736 42.174,11.11 42.614,11.11 C43.032,11.11 43.362,10.923 43.692,10.615 C43.703,10.604 43.736,10.604 43.747,10.626 C43.846,10.879 44.088,11.121 44.396,11.121 Z M43.098,10.692 C42.757,10.692 42.438,10.439 42.438,10.076 C42.438,9.757 42.581,9.592 42.713,9.526 C42.944,9.405 43.582,9.174 43.725,9.152 C43.747,9.141 43.769,9.196 43.769,9.207 C43.769,9.625 43.747,10.065 43.714,10.252 C43.703,10.373 43.637,10.472 43.593,10.516 C43.472,10.626 43.285,10.692 43.098,10.692 Z M47.113,11.022 C47.256,11.022 47.333,10.989 47.333,10.945 C47.333,10.912 47.256,10.879 47.19,10.868 C46.882,10.813 46.816,10.736 46.805,10.439 C46.794,10.23 46.783,9.713 46.783,8.327 L46.783,7.161 C46.783,5.511 46.827,3.608 46.827,3.531 C46.827,3.476 46.816,3.41 46.794,3.41 C46.75,3.41 46.695,3.432 46.662,3.443 C46.42,3.531 46.156,3.63 45.837,3.696 C45.738,3.718 45.672,3.751 45.672,3.784 C45.672,3.817 45.705,3.839 45.782,3.883 C46.068,4.059 46.09,4.114 46.09,4.356 C46.101,4.84 46.09,5.742 46.09,6.633 C46.079,7.953 46.035,9.812 46.013,10.219 C45.969,10.703 45.903,10.802 45.628,10.857 C45.485,10.89 45.43,10.901 45.43,10.956 C45.43,11.011 45.485,11.022 45.617,11.022 C45.782,11.022 46.068,11 46.354,11 C46.541,11 46.937,11.022 47.113,11.022 Z M52.261,11.055 C52.349,11.055 52.448,11.044 52.448,10.978 C52.448,10.934 52.382,10.901 52.283,10.879 C51.953,10.802 51.799,10.681 51.491,10.362 C50.974,9.834 50.182,8.987 49.852,8.602 C49.841,8.58 49.819,8.547 49.841,8.525 C50.05,8.327 50.589,7.854 50.875,7.645 C51.326,7.293 51.513,7.227 51.887,7.161 C52.019,7.139 52.052,7.095 52.052,7.073 C52.052,7.029 52.008,6.996 51.887,6.996 C51.601,6.996 51.161,7.062 50.919,7.062 C50.798,7.062 50.545,7.051 50.369,7.051 C50.27,7.051 50.193,7.084 50.193,7.128 C50.193,7.172 50.281,7.205 50.38,7.216 C50.622,7.26 50.699,7.326 50.699,7.392 C50.699,7.436 50.644,7.513 50.578,7.579 C50.38,7.843 49.83,8.338 49.39,8.69 C49.302,8.756 49.214,8.811 49.17,8.811 C49.137,8.811 49.115,8.756 49.115,8.635 C49.115,7.425 49.17,5.973 49.17,5.632 C49.17,4.818 49.203,3.85 49.225,3.487 C49.225,3.432 49.203,3.399 49.192,3.399 C49.148,3.399 49.093,3.421 49.016,3.454 C48.961,3.476 48.675,3.597 48.235,3.718 C48.125,3.751 48.059,3.773 48.059,3.817 C48.059,3.839 48.103,3.861 48.158,3.894 C48.29,3.96 48.389,4.026 48.411,4.114 C48.444,4.235 48.455,4.367 48.455,4.62 C48.455,5.478 48.422,6.886 48.411,7.744 C48.411,8.602 48.4,9.526 48.356,10.329 C48.334,10.692 48.257,10.791 47.916,10.879 C47.839,10.89 47.773,10.923 47.773,10.956 C47.773,11 47.839,11.033 47.949,11.033 C48.081,11.033 48.312,11 48.664,11 C48.95,11 49.181,11.033 49.489,11.033 C49.61,11.033 49.698,11.011 49.698,10.956 C49.698,10.912 49.643,10.89 49.533,10.857 C49.192,10.78 49.104,10.747 49.104,10.219 C49.093,9.614 49.104,9.251 49.115,9.053 C49.115,9.009 49.126,8.943 49.159,8.943 C49.1942,8.943 49.25052,8.99228 49.316696,9.057048 L49.368,9.108 C49.698,9.438 50.479,10.263 50.71,10.527 C50.809,10.681 50.787,10.78 50.6,10.824 C50.402,10.868 50.347,10.89 50.347,10.945 C50.347,11.011 50.424,11.011 50.545,11.011 C50.71,11.011 50.853,11 51.04,11 C51.469,11 51.887,11.055 52.261,11.055 Z M53.966,9.185 C54.021,9.185 54.065,9.086 54.087,8.855 C54.131,8.283 54.45,5.863 54.45,5.357 C54.45,4.972 54.274,4.587 53.955,4.587 C53.658,4.587 53.46,5.071 53.471,5.401 C53.493,6.083 53.735,7.865 53.834,8.888 C53.856,9.119 53.9,9.185 53.966,9.185 Z M53.977,11.11 C54.142,11.11 54.417,10.945 54.417,10.637 C54.417,10.483 54.307,10.109 53.977,10.109 C53.735,10.109 53.471,10.329 53.471,10.626 C53.471,10.956 53.768,11.11 53.977,11.11 Z" transform="translate(31.45)"/>
    </g>
    <rect width="320" height="160" x=".238" y=".196" stroke="#FFF" stroke-width=".5"/>
  </g>
</svg>
