<svg xmlns="http://www.w3.org/2000/svg" width="320" height="161" viewBox="0 0 320 161">
  <g fill="none" transform="translate(-.692)">
    <g stroke="#222F3C" stroke-linecap="round" stroke-linejoin="round" stroke-width=".5" transform="translate(151.885 86.471)">
      <line x1="8.259" x2="4.399" y1="8.267" y2="4.622"/>
      <path d="M9.82496387 8.28941158L13.5009893 4.39634517 9.11903125.0154857952 9.12000781.0145092327C9.11195117.00742915462 9.1040166.0023022015 9.0949834.000349076498 9.0859502-.000627486002 9.07594043.000349076498 9.0670293.00449946712L9.06593066.00449946712C9.05604297.00840571712 9.04896289.0145092327 9.04395801.0213451702 9.03895313.0284252484 9.037.0374584515 9.037.0494213421L9.037 4.38731197 9.037 4.47447017 9.037 4.85532955 9.037 7.50132564M9.02509863 7.50090625L9.02509863 4.70598437 9.02509863 4.70500781C9.02509863 4.69206836 9.02009375 4.68108203 9.01106055 4.67204883L9.01203711 4.67204883C9.00202734 4.66301562 8.99006445 4.65691211 8.97602637 4.65691211L4.399 4.622M10.5610791 9.05489258L13.4089795 9.05489258 13.4100781 9.05489258C13.4230176 9.05489258 13.4340039 9.0490332 13.4430371 9.04097656L13.4430371 9.04097656C13.4520703 9.03194336 13.4580518 9.01900391 13.4580518 9.00606445L13.4929639 4.415 9.83 8.29390625"/>
      <line x1="4.386" x2="4.387" y1="4.623" y2="4.622"/>
      <path d="M4.38598185 4.623L.0150101738 8.99409375.0140336113 8.99409375C.00695353314 9.00092969.00194865033 9.00996289.000972087829 9.01801953-.000981037171 9.02705273 0 9.0370625.00402384564 9.04707227L.00402384564 9.04707227C.00793009564 9.05708203.0140336113 9.06489453.0209916191 9.07002148.0279496269 9.07392773.0379593925 9.07710156.0489457206 9.07710156L4.3829301 9.07710156 4.46996623 9.07710156 4.85192424 9.07710156 7.52294474 9.07710156M4.38597656 4.62297656L4.385 4.622 4.38683105 4.622"/>
      <line x1="4.386" x2="8.252" y1="4.623" y2="8.274"/>
      <path d="M4.39920703,4.62185937 L4.39285938,4.616 L4.387,4.62185937"/>
      <line x1="4.399" x2="4.387" y1="4.622" y2="4.622"/>
      <line x1="9.776" x2="13.665" y1="9.84" y2="13.512"/>
      <path d="M8.26502637 9.818L4.563 13.7379219 8.94495801 18.1190254 8.94398145 18.120002C8.95203809 18.1268379 8.95997266 18.1319648 8.96900586 18.1329414 8.97803906 18.1348945 8.98804883 18.133918 8.99695996 18.1300117L8.99793652 18.1300117C9.00794629 18.1258613 9.01502637 30.614875 9.02003125 30.6068223 9.02503613 30.600959 9.02698926 18.0970527 9.02698926 18.0848457L9.02698926 13.7469551 9.02698926 13.660041 9.02698926 13.2789375 9.02698926 10.5799629M9.039 10.577L9.039 13.4278301 9.039 13.4288066C9.039 13.4410137 9.04400488 13.4529766 9.05303809 13.4620098L9.05206152 13.4620098C9.06207129 13.4707988 9.07403418 13.4769023 9.08807227 13.4769023L13.6650986 13.5118145M8.26008691 9.81288672L4.571 13.7188926 4.60603418 9.12807227C4.60603418 9.11488867 4.61201563 9.10194922 4.62104883 9.09291602L4.62104883 9.09291602C4.63008203 9.08388281 4.64106836 9.079 4.65400781 9.079L4.65510645 9.079 7.52607813 9.079"/>
      <line x1="13.678" x2="13.677" y1="13.511" y2="13.512"/>
      <path d="M13.6779951 13.5108574L18.0489668 9.14000781 18.0499434 9.14000781C18.0570234 9.13292773 18.0620283 9.12389453 18.0630049 9.11583789 18.064958 9.10680469 18.063977 9.09703906 18.0599531 9.0870293L18.0599531 9.0870293C18.0560469 9.07701953 18.0499434 9.06896289 18.0429854 9.06383594 18.0360273 9.05992969 18.0269941 9.057 18.0150313 9.057L13.6810469 9.057 13.5940107 9.057 13.2120527 9.057 10.558 9.057M13.6779766 13.511L13.6788311 13.5119766 13.677 13.5119766"/>
      <line x1="13.678" x2="9.783" y1="13.511" y2="9.833"/>
      <path d="M13.665,13.512 L13.6713477,13.5181035 L13.677207,13.5122441"/>
      <line x1="13.665" x2="13.677" y1="13.512" y2="13.512"/>
      <line x1="8.265" x2="8.26" y1="9.818" y2="9.813"/>
      <line x1="8.259" x2="8.252" y1="8.267" y2="8.274"/>
      <line x1="8.26" x2="7.526" y1="9.813" y2="9.079"/>
      <line x1="7.523" x2="7.526" y1="9.077" y2="9.079"/>
      <path d="M10.5607129 9.05498633L10.5759717 9.03984961 9.83 8.294M9.03847461 10.577L9.03102832 10.5845684 9.027 10.5806621"/>
      <line x1="9.039" x2="9.776" y1="10.577" y2="9.84"/>
      <path d="M9.025,7.50110352 L9.03098145,7.495 L9.03647461,7.50061523"/>
      <line x1="10.558" x2="9.783" y1="9.057" y2="9.833"/>
      <line x1="8.265" x2="9.027" y1="9.818" y2="10.58"/>
      <path d="M7.52374316,9.07673437 L7.487,9.03986914 L8.25274707,8.274"/>
      <line x1="9.025" x2="8.259" y1="7.501" y2="8.267"/>
      <line x1="9.825" x2="9.037" y1="8.289" y2="7.501"/>
      <line x1="9.776" x2="9.783" y1="9.839" y2="9.833"/>
      <line x1="10.558" x2="10.561" y1="9.057" y2="9.055"/>
      <line x1="9.825" x2="9.83" y1="8.289" y2="8.294"/>
    </g>
    <g transform="translate(188.802 47.388)">
      <path fill="#333838" d="M4.158,7.667 C4.246,7.667 4.356,7.656 4.356,7.601 C4.356,7.546 4.29,7.513 4.125,7.491 C3.74,7.414 3.663,7.293 3.641,6.776 C3.619,6.402 3.619,6.193 3.619,5.907 C3.619,5.39 3.619,4.752 3.641,4.4 C3.652,4.301 3.707,4.125 3.795,3.971 C4.125,3.432 4.873,2.134 5.445,1.397 C5.665,1.1 5.863,0.913 6.259,0.836 C6.435,0.814 6.501,0.77 6.501,0.726 C6.501,0.682 6.424,0.66 6.303,0.66 C6.138,0.66 5.786,0.715 5.522,0.715 C5.214,0.715 5.038,0.671 4.73,0.671 C4.62,0.671 4.554,0.693 4.554,0.726 C4.554,0.781 4.653,0.814 4.741,0.836 C5.027,0.891 5.148,0.979 5.148,1.111 C5.148,1.232 5.082,1.386 4.895,1.694 C4.664,2.09 3.96,3.245 3.586,3.861 C3.553,3.916 3.476,3.861 3.454,3.85 C3.19,3.487 2.222,1.815 2.024,1.474 C1.903,1.276 1.837,1.122 1.837,1.056 C1.837,0.979 1.903,0.913 2.167,0.858 C2.277,0.836 2.343,0.803 2.343,0.748 C2.343,0.704 2.288,0.682 2.167,0.682 C1.969,0.682 1.628,0.715 1.276,0.715 C0.946,0.715 0.407,0.66 0.209,0.66 C0.066,0.66 4.26325641e-14,0.66 4.26325641e-14,0.726 C4.26325641e-14,0.759 0.055,0.803 0.231,0.836 C0.561,0.902 0.759,1.067 1.111,1.551 C1.43,2.002 2.343,3.531 2.706,4.191 C2.739,4.235 2.772,4.345 2.783,4.433 C2.794,4.576 2.805,4.774 2.805,5.456 C2.805,5.929 2.783,6.655 2.761,6.875 C2.728,7.304 2.662,7.414 2.222,7.469 C2.09,7.491 1.98,7.524 1.98,7.568 C1.98,7.623 2.057,7.656 2.211,7.656 C2.519,7.656 2.728,7.612 3.102,7.612 C3.509,7.612 3.718,7.667 4.158,7.667 Z M7.315,7.744 C7.711,7.744 8.217,7.59 8.558,7.326 C8.91,7.051 9.405,6.457 9.405,5.621 C9.405,4.455 8.492,3.542 7.293,3.542 C6.765,3.542 6.27,3.773 5.973,4.004 C5.566,4.334 5.181,4.873 5.181,5.709 C5.181,6.853 6.182,7.744 7.315,7.744 Z M7.469,7.557 C7.128,7.557 6.732,7.381 6.435,6.974 C6.083,6.512 5.973,5.929 5.973,5.467 C5.973,4.323 6.567,3.729 7.128,3.729 C8.096,3.729 8.624,4.763 8.624,5.808 C8.624,6.6 8.327,7.128 8.162,7.282 C7.986,7.436 7.733,7.557 7.469,7.557 Z M13.2,7.722 C13.519,7.568 14.201,7.436 14.333,7.425 C14.443,7.403 14.542,7.381 14.542,7.337 C14.542,7.282 14.487,7.216 14.41,7.216 C14.344,7.216 14.069,7.282 13.959,7.315 C13.871,7.326 13.838,7.304 13.816,7.194 C13.7984,7.0972 13.79488,6.9652 13.794176,6.781104 L13.794,6.633 C13.794,5.357 13.816,4.257 13.871,3.74 C13.882,3.663 13.86,3.619 13.827,3.619 C13.706,3.619 13.53,3.685 13.068,3.685 L12.606,3.685 C12.54,3.685 12.441,3.707 12.441,3.751 C12.441,3.784 12.496,3.817 12.617,3.839 C12.98,3.916 13.09,3.971 13.101,4.345 C13.101,4.631 13.112,5.148 13.112,5.313 C13.112,5.709 13.112,6.138 13.09,6.435 C13.079,6.677 13.013,6.831 12.892,6.941 C12.606,7.205 12.342,7.293 11.957,7.293 C11.726,7.293 11.484,7.194 11.341,7.018 C11.275,6.93 11.187,6.754 11.176,6.292 C11.165,5.786 11.176,4.29 11.209,3.663 C11.22,3.597 11.187,3.531 11.154,3.542 C10.989,3.586 10.593,3.685 10.23,3.685 C10.109,3.685 10.054,3.707 10.054,3.74 C10.054,3.773 10.087,3.806 10.186,3.872 C10.307,3.949 10.417,4.037 10.428,4.235 C10.45,4.422 10.45,6.281 10.45,6.644 C10.461,6.853 10.505,7.139 10.659,7.315 C10.901,7.623 11.198,7.711 11.616,7.711 C11.803,7.711 12.056,7.634 12.265,7.546 C12.463,7.469 12.782,7.227 13.024,7.007 C13.046,6.974 13.057,7.051 13.057,7.084 C13.057,7.161 13.046,7.403 13.046,7.513 C13.046,7.634 13.046,7.689 13.068,7.722 C13.09,7.755 13.112,7.766 13.2,7.722 Z M18.425,7.733 C19.239,7.733 19.745,7.271 19.943,7.007 C20.009,6.93 20.031,6.875 20.031,6.831 C20.031,6.798 19.976,6.809 19.954,6.831 C19.569,7.172 19.283,7.249 18.81,7.249 C18.48,7.249 18.073,7.128 17.787,6.864 C17.523,6.633 17.237,6.171 17.237,5.434 C17.237,4.169 17.996,3.729 18.458,3.729 C18.579,3.729 18.744,3.751 18.876,3.817 C19.041,3.905 19.316,4.092 19.492,4.268 C19.558,4.334 19.635,4.378 19.679,4.378 C19.756,4.378 19.954,4.235 19.954,4.026 C19.954,3.971 19.921,3.883 19.8,3.817 C19.613,3.674 19.272,3.542 18.799,3.542 C18.084,3.542 17.512,3.861 17.171,4.18 C16.841,4.488 16.5,5.016 16.5,5.709 C16.5,6.314 16.698,6.842 17.05,7.194 C17.413,7.546 17.93,7.733 18.425,7.733 Z M23.243,7.733 C23.595,7.733 23.936,7.568 24.09,7.26 C24.134,7.161 24.09,7.128 24.024,7.161 C23.903,7.227 23.793,7.26 23.705,7.26 C23.397,7.26 23.298,7.051 23.298,6.842 C23.298,6.556 23.331,5.511 23.331,5.104 C23.331,4.763 23.287,4.312 23.177,4.103 C23.045,3.762 22.704,3.542 22.33,3.542 C22.143,3.542 21.923,3.608 21.67,3.74 C21.45,3.85 21.087,4.081 20.834,4.378 C20.702,4.532 20.625,4.631 20.625,4.708 C20.625,4.752 20.68,4.818 20.735,4.807 C20.812,4.796 21.142,4.642 21.252,4.565 C21.274,4.543 21.296,4.51 21.296,4.477 C21.296,4.4 21.296,4.312 21.307,4.268 C21.329,4.147 21.395,4.07 21.472,4.004 C21.637,3.905 21.747,3.872 21.912,3.872 C22.044,3.872 22.231,3.938 22.374,4.048 C22.561,4.191 22.638,4.499 22.638,4.95 C22.638,5.104 22.638,5.324 22.616,5.456 C22.616,5.5 22.561,5.599 22.473,5.621 C22.242,5.709 21.241,6.006 20.977,6.149 C20.878,6.204 20.581,6.424 20.581,6.776 C20.581,7.348 21.021,7.722 21.461,7.722 C21.879,7.722 22.209,7.535 22.539,7.227 C22.55,7.216 22.583,7.216 22.594,7.238 C22.693,7.491 22.935,7.733 23.243,7.733 Z M21.945,7.304 C21.604,7.304 21.285,7.051 21.285,6.688 C21.285,6.369 21.428,6.204 21.56,6.138 C21.791,6.017 22.429,5.786 22.572,5.764 C22.594,5.753 22.616,5.808 22.616,5.819 C22.616,6.237 22.594,6.677 22.561,6.864 C22.55,6.985 22.484,7.084 22.44,7.128 C22.319,7.238 22.132,7.304 21.945,7.304 Z M26.191,7.59 C26.191,7.535 26.136,7.513 26.004,7.48 C25.828,7.425 25.696,7.37 25.663,7.128 C25.641,6.974 25.608,6.688 25.597,5.973 C25.597,5.313 25.586,4.752 25.586,4.62 C25.586,4.532 25.641,4.367 25.718,4.29 C26.004,4.048 26.29,3.938 26.576,3.938 C26.829,3.938 27.038,4.015 27.203,4.147 C27.478,4.356 27.555,4.62 27.555,5.511 L27.555,7.007 C27.555,7.326 27.511,7.403 27.247,7.469 C27.104,7.502 27.038,7.546 27.038,7.59 C27.038,7.634 27.115,7.656 27.214,7.656 C27.379,7.656 27.522,7.612 27.896,7.612 C28.138,7.612 28.457,7.656 28.6,7.656 C28.71,7.656 28.798,7.645 28.798,7.579 C28.798,7.535 28.732,7.513 28.633,7.469 C28.336,7.392 28.303,7.326 28.292,6.578 C28.292,6.028 28.281,5.94 28.281,5.357 C28.27,4.73 28.182,4.18 27.929,3.916 C27.786,3.762 27.522,3.542 27.071,3.542 C26.884,3.542 26.653,3.564 26.422,3.674 C26.18,3.773 25.916,3.96 25.641,4.169 C25.619,4.191 25.586,4.158 25.586,4.136 C25.575,3.982 25.597,3.685 25.608,3.553 C25.619,3.498 25.564,3.454 25.531,3.465 C25.344,3.586 24.904,3.773 24.662,3.839 C24.563,3.872 24.508,3.905 24.508,3.927 C24.508,3.96 24.53,3.982 24.596,4.026 C24.86,4.169 24.882,4.29 24.882,4.4 C24.882,5.291 24.882,6.303 24.86,7.095 C24.849,7.315 24.805,7.392 24.53,7.447 C24.398,7.469 24.299,7.513 24.299,7.557 C24.299,7.612 24.387,7.634 24.508,7.634 C24.717,7.634 24.948,7.612 25.091,7.612 C25.344,7.612 25.883,7.656 25.971,7.656 C26.081,7.656 26.191,7.656 26.191,7.59 Z M32.494,10.89 C32.989,10.89 33.418,10.758 33.825,10.527 C34.474,10.175 35.057,9.482 35.057,8.734 C35.057,8.36 34.936,8.008 34.683,7.799 C34.474,7.634 34.276,7.513 33.825,7.513 C33.517,7.513 32.912,7.546 32.571,7.546 C31.999,7.546 31.548,7.436 31.548,7.084 C31.548,7.04 31.57,6.93 31.669,6.842 C31.779,6.71 31.933,6.545 32.054,6.479 C32.065,6.468 32.142,6.435 32.186,6.446 C32.285,6.468 32.505,6.501 32.648,6.501 C32.824,6.501 33.165,6.457 33.506,6.215 C33.902,5.929 34.199,5.39 34.199,4.73 C34.199,4.532 34.177,4.356 34.177,4.279 C34.177,4.257 34.221,4.213 34.243,4.213 C34.364,4.213 34.76,4.235 34.914,4.235 C34.958,4.235 35.035,4.147 35.035,4.037 C35.035,3.905 34.991,3.795 34.936,3.795 C34.771,3.795 34.331,3.817 34.122,3.817 C33.913,3.817 33.825,3.806 33.737,3.762 C33.627,3.696 33.154,3.476 32.615,3.476 C32.208,3.476 31.768,3.619 31.449,3.927 C31.174,4.18 30.987,4.488 30.987,4.983 C30.987,5.654 31.46,6.138 31.834,6.358 C31.856,6.369 31.867,6.413 31.856,6.424 C31.702,6.633 31.24,7.04 30.943,7.238 C30.921,7.249 30.877,7.293 30.877,7.348 C30.877,7.788 31.46,8.173 31.768,8.239 C31.801,8.25 31.79,8.316 31.779,8.338 C31.559,8.58 31.152,9.097 31.075,9.185 C30.987,9.284 30.877,9.438 30.877,9.658 C30.877,10.472 31.614,10.89 32.494,10.89 Z M32.725,6.336 C32.417,6.336 32.208,6.193 32.043,6.017 C31.878,5.83 31.702,5.357 31.702,4.84 C31.702,4.499 31.801,4.081 31.999,3.872 C32.164,3.718 32.351,3.619 32.56,3.619 C32.868,3.619 33.022,3.751 33.22,3.993 C33.462,4.29 33.561,4.741 33.561,5.225 C33.561,5.731 33.231,6.336 32.725,6.336 Z M32.945,10.516 C32.417,10.516 32.186,10.395 31.9,10.186 C31.581,9.944 31.471,9.559 31.471,9.35 C31.471,8.954 31.713,8.569 31.944,8.371 C31.988,8.338 32.065,8.294 32.318,8.272 C32.615,8.261 33.154,8.25 33.572,8.25 C34.276,8.25 34.562,8.657 34.562,9.119 C34.562,9.581 34.276,10.043 33.968,10.252 C33.616,10.505 33.198,10.516 32.945,10.516 Z M37.191,7.733 C37.818,7.733 38.28,7.513 38.72,7.04 C38.786,6.963 38.83,6.897 38.83,6.864 C38.83,6.809 38.786,6.787 38.698,6.875 C38.434,7.128 38.104,7.227 37.653,7.227 C37.29,7.227 36.85,7.106 36.553,6.776 C36.267,6.457 36.047,6.006 36.047,5.445 C36.047,5.137 36.08,4.972 36.135,4.84 C36.157,4.807 36.212,4.752 36.234,4.752 L36.828,4.752 C37.081,4.752 38.511,4.774 38.599,4.785 C38.654,4.785 38.709,4.719 38.709,4.664 C38.709,3.993 38.016,3.542 37.367,3.542 C36.795,3.542 36.289,3.806 35.992,4.092 C35.53,4.543 35.354,5.192 35.354,5.698 C35.354,6.292 35.552,6.82 35.882,7.172 C36.212,7.524 36.674,7.733 37.191,7.733 Z M36.278,4.598 C36.256,4.598 36.234,4.576 36.234,4.554 C36.234,4.466 36.333,4.257 36.465,4.103 C36.707,3.85 36.982,3.696 37.268,3.696 C37.521,3.696 37.708,3.795 37.818,3.905 C37.939,4.037 37.972,4.235 37.972,4.367 C37.972,4.466 37.95,4.587 37.708,4.587 L36.278,4.598 Z M40.788,7.711 C41.096,7.711 41.437,7.612 41.679,7.425 C41.822,7.315 41.921,7.205 41.921,7.139 C41.921,7.095 41.888,7.084 41.811,7.139 C41.712,7.205 41.514,7.304 41.206,7.304 C40.92,7.304 40.689,7.216 40.524,7.007 C40.447,6.897 40.425,6.765 40.403,6.413 C40.392,6.072 40.381,4.345 40.381,4.158 C40.381,4.092 40.403,4.059 40.535,4.059 C40.832,4.059 41.371,4.07 41.756,4.07 C41.811,4.07 41.866,3.982 41.866,3.795 C41.866,3.718 41.822,3.641 41.8,3.641 C41.569,3.641 40.656,3.674 40.458,3.674 C40.414,3.674 40.403,3.608 40.403,3.575 C40.392,3.443 40.414,3.135 40.414,3.036 C40.414,2.981 40.337,2.959 40.238,3.069 C39.974,3.41 39.611,3.707 39.336,3.806 C39.215,3.861 39.204,3.894 39.204,3.916 C39.204,3.96 39.259,3.993 39.347,4.015 C39.446,4.037 39.567,4.059 39.611,4.081 C39.655,4.103 39.666,4.18 39.666,4.301 L39.666,6.578 C39.666,6.842 39.71,7.062 39.798,7.205 C39.985,7.557 40.326,7.711 40.788,7.711 Z M45.397,7.711 C45.705,7.711 46.046,7.612 46.288,7.425 C46.431,7.315 46.53,7.205 46.53,7.139 C46.53,7.095 46.497,7.084 46.42,7.139 C46.321,7.205 46.123,7.304 45.815,7.304 C45.529,7.304 45.298,7.216 45.133,7.007 C45.056,6.897 45.034,6.765 45.012,6.413 C45.001,6.072 44.99,4.345 44.99,4.158 C44.99,4.092 45.012,4.059 45.144,4.059 C45.441,4.059 45.98,4.07 46.365,4.07 C46.42,4.07 46.475,3.982 46.475,3.795 C46.475,3.718 46.431,3.641 46.409,3.641 C46.178,3.641 45.265,3.674 45.067,3.674 C45.023,3.674 45.012,3.608 45.012,3.575 C45.001,3.443 45.023,3.135 45.023,3.036 C45.023,2.981 44.946,2.959 44.847,3.069 C44.583,3.41 44.22,3.707 43.945,3.806 C43.824,3.861 43.813,3.894 43.813,3.916 C43.813,3.96 43.868,3.993 43.956,4.015 C44.055,4.037 44.176,4.059 44.22,4.081 C44.264,4.103 44.275,4.18 44.275,4.301 L44.275,6.578 C44.275,6.842 44.319,7.062 44.407,7.205 C44.594,7.557 44.935,7.711 45.397,7.711 Z M51.084,7.667 C51.183,7.667 51.26,7.634 51.26,7.59 C51.26,7.546 51.227,7.524 51.084,7.491 C50.754,7.436 50.71,7.359 50.71,7.139 C50.699,6.721 50.699,6.039 50.688,5.214 C50.677,4.521 50.556,4.18 50.446,4.037 C50.182,3.663 49.797,3.542 49.456,3.542 C49.159,3.542 48.873,3.63 48.686,3.729 C48.466,3.839 48.158,4.059 48.026,4.18 C48.015,4.202 47.982,4.191 47.982,4.147 C47.971,3.938 48.015,0.528 48.026,0.231 C48.037,0.077 48.004,1.98951966e-13 47.971,1.98951966e-13 C47.949,1.98951966e-13 47.916,0.011 47.861,0.044 C47.652,0.154 47.399,0.209 47.058,0.308 C46.937,0.341 46.871,0.374 46.871,0.407 C46.871,0.44 46.904,0.462 46.948,0.495 C47.19,0.627 47.267,0.66 47.278,1.012 C47.3,1.43 47.278,2.101 47.278,3.762 C47.278,5.511 47.267,6.523 47.234,6.963 C47.223,7.381 47.146,7.414 46.827,7.491 C46.695,7.524 46.651,7.546 46.651,7.59 C46.651,7.634 46.706,7.656 46.827,7.656 C47.036,7.656 47.201,7.612 47.542,7.612 C47.861,7.612 48.147,7.656 48.455,7.656 C48.554,7.656 48.62,7.623 48.62,7.59 C48.62,7.535 48.543,7.513 48.378,7.48 C48.136,7.436 48.059,7.304 48.026,7.106 C48.004,6.919 47.96,6.391 47.971,4.741 C47.971,4.51 48.026,4.378 48.081,4.334 C48.257,4.147 48.587,3.927 49.049,3.927 C49.423,3.927 49.665,4.092 49.808,4.334 C49.94,4.576 49.973,4.884 49.973,5.159 C49.973,6.303 49.951,6.787 49.929,7.04 C49.885,7.359 49.863,7.436 49.566,7.502 C49.456,7.524 49.401,7.546 49.401,7.59 C49.401,7.623 49.445,7.656 49.577,7.656 C49.83,7.656 49.918,7.612 50.292,7.612 C50.589,7.612 50.798,7.667 51.084,7.667 Z M53.592,7.733 C54.219,7.733 54.681,7.513 55.121,7.04 C55.187,6.963 55.231,6.897 55.231,6.864 C55.231,6.809 55.187,6.787 55.099,6.875 C54.835,7.128 54.505,7.227 54.054,7.227 C53.691,7.227 53.251,7.106 52.954,6.776 C52.668,6.457 52.448,6.006 52.448,5.445 C52.448,5.137 52.481,4.972 52.536,4.84 C52.558,4.807 52.613,4.752 52.635,4.752 L53.229,4.752 C53.482,4.752 54.912,4.774 55,4.785 C55.055,4.785 55.11,4.719 55.11,4.664 C55.11,3.993 54.417,3.542 53.768,3.542 C53.196,3.542 52.69,3.806 52.393,4.092 C51.931,4.543 51.755,5.192 51.755,5.698 C51.755,6.292 51.953,6.82 52.283,7.172 C52.613,7.524 53.075,7.733 53.592,7.733 Z M52.679,4.598 C52.657,4.598 52.635,4.576 52.635,4.554 C52.635,4.466 52.734,4.257 52.866,4.103 C53.108,3.85 53.383,3.696 53.669,3.696 C53.922,3.696 54.109,3.795 54.219,3.905 C54.34,4.037 54.373,4.235 54.373,4.367 C54.373,4.466 54.351,4.587 54.109,4.587 L52.679,4.598 Z M58.41,7.744 C58.674,7.744 59.048,7.656 59.29,7.502 C59.51,7.359 59.862,7.062 59.862,6.578 C59.862,6.017 59.576,5.742 58.861,5.28 C58.586,5.115 58.168,4.851 58.168,4.389 C58.168,3.949 58.476,3.707 58.828,3.707 C59.037,3.707 59.224,3.784 59.345,3.872 C59.51,4.004 59.554,4.158 59.609,4.323 C59.642,4.4 59.664,4.455 59.708,4.455 C59.741,4.455 59.763,4.4 59.763,4.279 C59.752,4.103 59.708,3.883 59.697,3.762 C59.697,3.729 59.664,3.685 59.642,3.663 C59.51,3.619 59.191,3.542 58.894,3.542 C58.476,3.542 58.168,3.685 57.97,3.85 C57.728,4.026 57.552,4.323 57.552,4.719 C57.552,5.203 57.992,5.61 58.465,5.918 C58.905,6.193 59.191,6.424 59.191,6.842 C59.191,7.293 58.784,7.579 58.476,7.579 C58.311,7.579 58.146,7.557 57.981,7.447 C57.783,7.326 57.607,7.128 57.519,6.853 C57.442,6.644 57.409,6.644 57.376,6.644 C57.354,6.644 57.321,6.677 57.343,6.82 C57.354,6.941 57.376,7.216 57.376,7.37 C57.376,7.436 57.453,7.513 57.541,7.546 C57.871,7.678 58.124,7.744 58.41,7.744 Z M61.996,7.711 C62.304,7.711 62.645,7.612 62.887,7.425 C63.03,7.315 63.129,7.205 63.129,7.139 C63.129,7.095 63.096,7.084 63.019,7.139 C62.92,7.205 62.722,7.304 62.414,7.304 C62.128,7.304 61.897,7.216 61.732,7.007 C61.655,6.897 61.633,6.765 61.611,6.413 C61.6,6.072 61.589,4.345 61.589,4.158 C61.589,4.092 61.611,4.059 61.743,4.059 C62.04,4.059 62.579,4.07 62.964,4.07 C63.019,4.07 63.074,3.982 63.074,3.795 C63.074,3.718 63.03,3.641 63.008,3.641 C62.777,3.641 61.864,3.674 61.666,3.674 C61.622,3.674 61.611,3.608 61.611,3.575 C61.6,3.443 61.622,3.135 61.622,3.036 C61.622,2.981 61.545,2.959 61.446,3.069 C61.182,3.41 60.819,3.707 60.544,3.806 C60.423,3.861 60.412,3.894 60.412,3.916 C60.412,3.96 60.467,3.993 60.555,4.015 C60.654,4.037 60.775,4.059 60.819,4.081 C60.863,4.103 60.874,4.18 60.874,4.301 L60.874,6.578 C60.874,6.842 60.918,7.062 61.006,7.205 C61.193,7.557 61.534,7.711 61.996,7.711 Z M65.516,7.744 C65.912,7.744 66.418,7.59 66.759,7.326 C67.111,7.051 67.606,6.457 67.606,5.621 C67.606,4.455 66.693,3.542 65.494,3.542 C64.966,3.542 64.471,3.773 64.174,4.004 C63.767,4.334 63.382,4.873 63.382,5.709 C63.382,6.853 64.383,7.744 65.516,7.744 Z M65.67,7.557 C65.329,7.557 64.933,7.381 64.636,6.974 C64.284,6.512 64.174,5.929 64.174,5.467 C64.174,4.323 64.768,3.729 65.329,3.729 C66.297,3.729 66.825,4.763 66.825,5.808 C66.825,6.6 66.528,7.128 66.363,7.282 C66.187,7.436 65.934,7.557 65.67,7.557 Z M68.332,7.678 C68.486,7.678 68.607,7.612 69.003,7.612 C69.465,7.612 69.828,7.656 70.037,7.656 C70.202,7.656 70.301,7.634 70.301,7.579 C70.301,7.524 70.246,7.502 70.092,7.48 C69.674,7.436 69.542,7.359 69.498,7.018 C69.476,6.787 69.454,6.215 69.454,5.401 C69.454,5.181 69.443,4.862 69.465,4.73 C69.476,4.598 69.531,4.477 69.652,4.345 C69.795,4.213 69.971,4.125 70.136,4.125 C70.257,4.125 70.4,4.18 70.521,4.257 C70.642,4.323 70.697,4.334 70.719,4.334 C70.752,4.334 70.796,4.323 70.895,4.235 C71.027,4.114 71.137,3.938 71.137,3.861 C71.137,3.806 71.115,3.751 71.06,3.707 C70.95,3.619 70.807,3.564 70.675,3.564 C70.235,3.564 69.795,3.971 69.487,4.356 C69.454,4.389 69.432,4.378 69.432,4.345 C69.432,4.169 69.443,3.751 69.443,3.63 C69.443,3.52 69.421,3.476 69.399,3.476 C69.366,3.476 69.311,3.487 69.234,3.531 C69.058,3.63 68.75,3.74 68.53,3.795 C68.431,3.828 68.365,3.872 68.365,3.894 C68.365,3.916 68.376,3.949 68.453,4.004 C68.662,4.18 68.739,4.213 68.739,4.29 L68.739,5.511 C68.739,6.237 68.728,6.864 68.706,7.051 C68.662,7.348 68.541,7.447 68.31,7.502 C68.222,7.524 68.145,7.579 68.145,7.612 C68.145,7.656 68.2,7.678 68.332,7.678 Z M72.226,10.692 C72.347,10.692 72.479,10.659 72.589,10.505 C72.666,10.406 72.721,10.296 72.798,10.098 C72.952,9.724 73.37,8.58 73.634,7.942 C73.865,7.348 73.964,7.095 74.096,6.732 C74.261,6.314 74.943,4.62 75.075,4.345 C75.251,3.938 75.361,3.861 75.581,3.795 C75.691,3.762 75.735,3.718 75.735,3.685 C75.735,3.652 75.669,3.641 75.603,3.641 C75.438,3.641 75.295,3.674 75.097,3.674 C74.932,3.674 74.701,3.641 74.569,3.641 C74.47,3.641 74.415,3.663 74.415,3.707 C74.415,3.74 74.448,3.773 74.613,3.806 C74.8,3.861 74.855,3.949 74.855,4.026 C74.855,4.081 74.855,4.213 74.8,4.345 C74.712,4.598 74.096,6.182 73.953,6.556 C73.942,6.589 73.909,6.6 73.887,6.556 C73.667,6.094 73.062,4.609 72.919,4.224 C72.82,3.938 72.842,3.883 73.084,3.806 C73.15,3.795 73.227,3.762 73.227,3.718 C73.227,3.674 73.15,3.641 73.04,3.641 C72.897,3.641 72.611,3.674 72.457,3.674 C72.193,3.674 71.885,3.63 71.687,3.63 C71.61,3.63 71.511,3.652 71.511,3.707 C71.511,3.74 71.577,3.784 71.709,3.817 C71.896,3.861 72.028,3.971 72.105,4.114 C72.6,5.192 73.304,6.974 73.469,7.403 C73.502,7.502 73.524,7.612 73.48,7.755 C73.106,8.712 72.787,9.614 72.677,9.845 C72.611,9.999 72.523,10.032 72.391,10.032 C72.314,10.032 72.248,10.01 72.171,10.01 C72.006,10.01 71.863,10.164 71.863,10.329 C71.863,10.549 72.05,10.692 72.226,10.692 Z M2.508,19.744 C2.904,19.744 3.41,19.59 3.751,19.326 C4.103,19.051 4.598,18.457 4.598,17.621 C4.598,16.455 3.685,15.542 2.486,15.542 C1.958,15.542 1.463,15.773 1.166,16.004 C0.759,16.334 0.374,16.873 0.374,17.709 C0.374,18.853 1.375,19.744 2.508,19.744 Z M2.662,19.557 C2.321,19.557 1.925,19.381 1.628,18.974 C1.276,18.512 1.166,17.929 1.166,17.467 C1.166,16.323 1.76,15.729 2.321,15.729 C3.289,15.729 3.817,16.763 3.817,17.808 C3.817,18.6 3.52,19.128 3.355,19.282 C3.179,19.436 2.926,19.557 2.662,19.557 Z M5.357,19.656 C5.544,19.645 5.786,19.612 6.039,19.612 C6.6,19.612 6.776,19.645 7.095,19.645 C7.194,19.645 7.271,19.623 7.271,19.568 C7.271,19.524 7.205,19.502 7.073,19.469 C6.93,19.436 6.809,19.436 6.721,19.403 C6.611,19.37 6.523,19.282 6.49,18.864 C6.479,18.545 6.457,16.543 6.457,16.136 C6.457,16.125 6.479,16.037 6.512,16.037 C6.666,16.037 7.458,16.059 7.634,16.059 C7.766,16.059 7.788,16.015 7.788,15.861 C7.788,15.729 7.744,15.663 7.7,15.663 C7.579,15.663 6.644,15.685 6.545,15.685 C6.49,15.685 6.457,15.641 6.457,15.619 C6.446,15.553 6.446,15.388 6.446,15.267 C6.446,14.926 6.468,14.145 6.501,13.804 C6.611,12.627 6.996,12.308 7.491,12.308 C7.887,12.308 8.118,12.583 8.272,12.682 C8.316,12.726 8.426,12.748 8.492,12.704 C8.602,12.649 8.767,12.473 8.767,12.341 C8.767,12.176 8.47,11.989 8.019,11.989 C7.722,11.989 7.359,12.066 7.029,12.286 C6.457,12.627 6.105,13.155 5.918,13.749 C5.786,14.189 5.742,14.783 5.731,15.553 C5.731,15.586 5.698,15.663 5.621,15.707 L5.357,15.872 C5.28,15.916 5.225,15.949 5.225,15.982 C5.225,16.004 5.291,16.059 5.368,16.07 C5.5,16.081 5.621,16.081 5.676,16.081 C5.72,16.092 5.731,16.147 5.731,16.224 L5.731,18.864 C5.731,19.26 5.676,19.414 5.412,19.48 C5.269,19.513 5.192,19.546 5.192,19.59 C5.192,19.634 5.258,19.656 5.357,19.656 Z M13.552,19.81 C14.443,19.81 15.037,19.579 15.697,19.205 C15.752,19.172 15.785,19.106 15.807,19.04 C15.829,18.919 15.961,18.358 15.961,18.171 C15.961,18.105 15.939,18.006 15.895,18.006 C15.851,18.006 15.829,18.05 15.785,18.193 C15.62,18.644 15.356,19.029 14.938,19.271 C14.641,19.458 14.256,19.579 13.629,19.579 C13.046,19.579 12.287,19.348 11.748,18.765 C11.176,18.149 10.736,17.093 10.736,16.103 C10.736,15.047 11.099,14.068 11.572,13.551 C12.023,13.089 12.661,12.693 13.486,12.693 C14.124,12.693 14.762,12.869 15.169,13.243 C15.367,13.397 15.609,13.749 15.697,14.123 C15.719,14.211 15.752,14.266 15.796,14.266 C15.818,14.266 15.862,14.2 15.862,14.09 C15.862,13.98 15.807,13.507 15.829,13.243 C15.84,13.188 15.807,13.111 15.719,13.056 C15.356,12.858 14.454,12.517 13.563,12.517 C12.551,12.517 11.583,12.902 11,13.43 C10.296,14.068 9.768,14.893 9.768,16.213 C9.768,17.159 10.23,18.171 10.692,18.644 C11.374,19.326 12.232,19.81 13.552,19.81 Z M18.524,19.733 C19.151,19.733 19.613,19.513 20.053,19.04 C20.119,18.963 20.163,18.897 20.163,18.864 C20.163,18.809 20.119,18.787 20.031,18.875 C19.767,19.128 19.437,19.227 18.986,19.227 C18.623,19.227 18.183,19.106 17.886,18.776 C17.6,18.457 17.38,18.006 17.38,17.445 C17.38,17.137 17.413,16.972 17.468,16.84 C17.49,16.807 17.545,16.752 17.567,16.752 L18.161,16.752 C18.414,16.752 19.844,16.774 19.932,16.785 C19.987,16.785 20.042,16.719 20.042,16.664 C20.042,15.993 19.349,15.542 18.7,15.542 C18.128,15.542 17.622,15.806 17.325,16.092 C16.863,16.543 16.687,17.192 16.687,17.698 C16.687,18.292 16.885,18.82 17.215,19.172 C17.545,19.524 18.007,19.733 18.524,19.733 Z M17.611,16.598 C17.589,16.598 17.567,16.576 17.567,16.554 C17.567,16.466 17.666,16.257 17.798,16.103 C18.04,15.85 18.315,15.696 18.601,15.696 C18.854,15.696 19.041,15.795 19.151,15.905 C19.272,16.037 19.305,16.235 19.305,16.367 C19.305,16.466 19.283,16.587 19.041,16.587 L17.611,16.598 Z M20.658,19.678 C20.812,19.678 20.933,19.612 21.329,19.612 C21.791,19.612 22.154,19.656 22.363,19.656 C22.528,19.656 22.627,19.634 22.627,19.579 C22.627,19.524 22.572,19.502 22.418,19.48 C22,19.436 21.868,19.359 21.824,19.018 C21.802,18.787 21.78,18.215 21.78,17.401 C21.78,17.181 21.769,16.862 21.791,16.73 C21.802,16.598 21.857,16.477 21.978,16.345 C22.121,16.213 22.297,16.125 22.462,16.125 C22.583,16.125 22.726,16.18 22.847,16.257 C22.968,16.323 23.023,16.334 23.045,16.334 C23.078,16.334 23.122,16.323 23.221,16.235 C23.353,16.114 23.463,15.938 23.463,15.861 C23.463,15.806 23.441,15.751 23.386,15.707 C23.276,15.619 23.133,15.564 23.001,15.564 C22.561,15.564 22.121,15.971 21.813,16.356 C21.78,16.389 21.758,16.378 21.758,16.345 C21.758,16.169 21.769,15.751 21.769,15.63 C21.769,15.52 21.747,15.476 21.725,15.476 C21.692,15.476 21.637,15.487 21.56,15.531 C21.384,15.63 21.076,15.74 20.856,15.795 C20.757,15.828 20.691,15.872 20.691,15.894 C20.691,15.916 20.702,15.949 20.779,16.004 C20.988,16.18 21.065,16.213 21.065,16.29 L21.065,17.511 C21.065,18.237 21.054,18.864 21.032,19.051 C20.988,19.348 20.867,19.447 20.636,19.502 C20.548,19.524 20.471,19.579 20.471,19.612 C20.471,19.656 20.526,19.678 20.658,19.678 Z M23.804,19.678 C23.958,19.678 24.079,19.612 24.475,19.612 C24.937,19.612 25.3,19.656 25.509,19.656 C25.674,19.656 25.773,19.634 25.773,19.579 C25.773,19.524 25.718,19.502 25.564,19.48 C25.146,19.436 25.014,19.359 24.97,19.018 C24.948,18.787 24.926,18.215 24.926,17.401 C24.926,17.181 24.915,16.862 24.937,16.73 C24.948,16.598 25.003,16.477 25.124,16.345 C25.267,16.213 25.443,16.125 25.608,16.125 C25.729,16.125 25.872,16.18 25.993,16.257 C26.114,16.323 26.169,16.334 26.191,16.334 C26.224,16.334 26.268,16.323 26.367,16.235 C26.499,16.114 26.609,15.938 26.609,15.861 C26.609,15.806 26.587,15.751 26.532,15.707 C26.422,15.619 26.279,15.564 26.147,15.564 C25.707,15.564 25.267,15.971 24.959,16.356 C24.926,16.389 24.904,16.378 24.904,16.345 C24.904,16.169 24.915,15.751 24.915,15.63 C24.915,15.52 24.893,15.476 24.871,15.476 C24.838,15.476 24.783,15.487 24.706,15.531 C24.53,15.63 24.222,15.74 24.002,15.795 C23.903,15.828 23.837,15.872 23.837,15.894 C23.837,15.916 23.848,15.949 23.925,16.004 C24.134,16.18 24.211,16.213 24.211,16.29 L24.211,17.511 C24.211,18.237 24.2,18.864 24.178,19.051 C24.134,19.348 24.013,19.447 23.782,19.502 C23.694,19.524 23.617,19.579 23.617,19.612 C23.617,19.656 23.672,19.678 23.804,19.678 Z M28.963,19.744 C29.359,19.744 29.865,19.59 30.206,19.326 C30.558,19.051 31.053,18.457 31.053,17.621 C31.053,16.455 30.14,15.542 28.941,15.542 C28.413,15.542 27.918,15.773 27.621,16.004 C27.214,16.334 26.829,16.873 26.829,17.709 C26.829,18.853 27.83,19.744 28.963,19.744 Z M29.117,19.557 C28.776,19.557 28.38,19.381 28.083,18.974 C27.731,18.512 27.621,17.929 27.621,17.467 C27.621,16.323 28.215,15.729 28.776,15.729 C29.744,15.729 30.272,16.763 30.272,17.808 C30.272,18.6 29.975,19.128 29.81,19.282 C29.634,19.436 29.381,19.557 29.117,19.557 Z M36.498,19.755 C36.784,19.645 37.224,19.535 37.642,19.469 C37.84,19.436 37.917,19.337 37.917,19.26 C37.917,19.227 37.884,19.194 37.818,19.216 C37.554,19.293 37.367,19.337 37.301,19.337 C37.268,19.337 37.224,19.293 37.224,19.238 C37.213,18.952 37.202,18.193 37.202,17.236 C37.202,16.114 37.257,12.539 37.279,12.209 C37.29,12.077 37.268,12.022 37.235,12.022 C37.202,12.022 37.136,12.044 37.081,12.077 C36.982,12.132 36.52,12.275 36.135,12.341 C36.058,12.352 36.003,12.385 36.003,12.418 C36.003,12.451 36.058,12.484 36.135,12.506 C36.256,12.539 36.388,12.605 36.443,12.682 C36.476,12.726 36.487,12.781 36.487,12.869 C36.498,13.452 36.509,15.399 36.509,15.597 C36.509,15.619 36.476,15.663 36.454,15.652 C36.311,15.608 35.981,15.553 35.728,15.553 C35.211,15.553 34.716,15.729 34.364,15.971 C33.924,16.279 33.407,16.873 33.407,17.786 C33.407,18.457 33.704,19.007 33.979,19.26 C34.342,19.579 34.771,19.722 35.145,19.722 C35.508,19.722 35.915,19.579 36.399,19.205 C36.421,19.183 36.443,19.205 36.443,19.227 C36.454,19.359 36.432,19.513 36.421,19.678 C36.421,19.711 36.454,19.766 36.498,19.755 Z M35.552,19.348 C34.881,19.348 34.21,18.732 34.21,17.544 C34.21,16.719 34.496,16.191 34.815,15.949 C34.98,15.828 35.112,15.762 35.365,15.762 C35.695,15.762 36.091,15.916 36.344,16.268 C36.366,16.301 36.421,16.4 36.443,16.532 C36.509,16.906 36.487,18.314 36.454,18.655 C36.443,18.831 36.399,18.985 36.333,19.062 C36.102,19.271 35.816,19.348 35.552,19.348 Z M40.128,19.733 C40.755,19.733 41.217,19.513 41.657,19.04 C41.723,18.963 41.767,18.897 41.767,18.864 C41.767,18.809 41.723,18.787 41.635,18.875 C41.371,19.128 41.041,19.227 40.59,19.227 C40.227,19.227 39.787,19.106 39.49,18.776 C39.204,18.457 38.984,18.006 38.984,17.445 C38.984,17.137 39.017,16.972 39.072,16.84 C39.094,16.807 39.149,16.752 39.171,16.752 L39.765,16.752 C40.018,16.752 41.448,16.774 41.536,16.785 C41.591,16.785 41.646,16.719 41.646,16.664 C41.646,15.993 40.953,15.542 40.304,15.542 C39.732,15.542 39.226,15.806 38.929,16.092 C38.467,16.543 38.291,17.192 38.291,17.698 C38.291,18.292 38.489,18.82 38.819,19.172 C39.149,19.524 39.611,19.733 40.128,19.733 Z M39.215,16.598 C39.193,16.598 39.171,16.576 39.171,16.554 C39.171,16.466 39.27,16.257 39.402,16.103 C39.644,15.85 39.919,15.696 40.205,15.696 C40.458,15.696 40.645,15.795 40.755,15.905 C40.876,16.037 40.909,16.235 40.909,16.367 C40.909,16.466 40.887,16.587 40.645,16.587 L39.215,16.598 Z M48.334,19.689 C48.411,19.689 48.51,19.667 48.565,19.579 C48.609,19.502 48.818,18.897 48.851,18.809 C48.906,18.666 48.917,18.501 48.873,18.501 C48.829,18.501 48.774,18.545 48.697,18.677 C48.477,19.073 48.235,19.348 47.993,19.392 C47.806,19.436 47.52,19.447 47.025,19.447 C46.134,19.447 45.837,19.337 45.716,19.172 C45.617,19.051 45.595,18.743 45.562,18.303 C45.552375,18.120125 45.54275,17.2550781 45.5404941,16.3416055 L45.5405606,15.549995 C45.5429333,14.6928 45.5524667,13.9110667 45.562,13.749 C45.595,12.99 45.617,12.924 46.068,12.836 C46.156,12.814 46.222,12.781 46.222,12.726 C46.222,12.693 46.178,12.671 46.046,12.671 C45.793,12.671 45.485,12.715 45.144,12.715 C44.847,12.715 44.495,12.66 44.154,12.66 C44.044,12.66 43.978,12.693 43.978,12.726 C43.978,12.77 44.011,12.803 44.143,12.825 C44.616,12.913 44.649,12.979 44.682,13.606 C44.70125,13.93325 44.7120781,14.5552656 44.7144844,15.7078594 L44.7143125,17.2329063 C44.71225,18.098125 44.704,18.589 44.671,18.919 C44.638,19.26 44.572,19.414 44.099,19.502 C44,19.513 43.901,19.546 43.901,19.59 C43.901,19.656 44,19.667 44.132,19.667 C44.286,19.667 44.781,19.612 45.122,19.612 C45.507,19.612 46.299,19.645 46.849,19.667 C47.388,19.7 48.224,19.689 48.334,19.689 Z M51.183,19.733 C51.81,19.733 52.272,19.513 52.712,19.04 C52.778,18.963 52.822,18.897 52.822,18.864 C52.822,18.809 52.778,18.787 52.69,18.875 C52.426,19.128 52.096,19.227 51.645,19.227 C51.282,19.227 50.842,19.106 50.545,18.776 C50.259,18.457 50.039,18.006 50.039,17.445 C50.039,17.137 50.072,16.972 50.127,16.84 C50.149,16.807 50.204,16.752 50.226,16.752 L50.82,16.752 C51.073,16.752 52.503,16.774 52.591,16.785 C52.646,16.785 52.701,16.719 52.701,16.664 C52.701,15.993 52.008,15.542 51.359,15.542 C50.787,15.542 50.281,15.806 49.984,16.092 C49.522,16.543 49.346,17.192 49.346,17.698 C49.346,18.292 49.544,18.82 49.874,19.172 C50.204,19.524 50.666,19.733 51.183,19.733 Z M50.27,16.598 C50.248,16.598 50.226,16.576 50.226,16.554 C50.226,16.466 50.325,16.257 50.457,16.103 C50.699,15.85 50.974,15.696 51.26,15.696 C51.513,15.696 51.7,15.795 51.81,15.905 C51.931,16.037 51.964,16.235 51.964,16.367 C51.964,16.466 51.942,16.587 51.7,16.587 L50.27,16.598 Z M55.517,19.744 C55.913,19.744 56.419,19.59 56.76,19.326 C57.112,19.051 57.607,18.457 57.607,17.621 C57.607,16.455 56.694,15.542 55.495,15.542 C54.967,15.542 54.472,15.773 54.175,16.004 C53.768,16.334 53.383,16.873 53.383,17.709 C53.383,18.853 54.384,19.744 55.517,19.744 Z M55.671,19.557 C55.33,19.557 54.934,19.381 54.637,18.974 C54.285,18.512 54.175,17.929 54.175,17.467 C54.175,16.323 54.769,15.729 55.33,15.729 C56.298,15.729 56.826,16.763 56.826,17.808 C56.826,18.6 56.529,19.128 56.364,19.282 C56.188,19.436 55.935,19.557 55.671,19.557 Z M62.458,19.656 C62.568,19.656 62.656,19.645 62.656,19.579 C62.656,19.535 62.59,19.513 62.491,19.469 C62.194,19.392 62.161,19.326 62.15,18.578 C62.15,18.028 62.139,17.94 62.139,17.357 C62.128,16.73 62.04,16.18 61.787,15.916 C61.644,15.762 61.38,15.542 60.929,15.542 C60.742,15.542 60.511,15.564 60.28,15.674 C60.038,15.773 59.774,15.96 59.499,16.169 C59.477,16.191 59.444,16.158 59.444,16.136 C59.433,15.982 59.455,15.685 59.466,15.553 C59.477,15.498 59.422,15.454 59.389,15.465 C59.202,15.586 58.762,15.773 58.52,15.839 C58.421,15.872 58.366,15.905 58.366,15.927 C58.366,15.96 58.388,15.982 58.454,16.026 C58.718,16.169 58.74,16.29 58.74,16.4 L58.7391852,17.3187037 C58.7375556,17.9412222 58.7326667,18.567 58.718,19.095 C58.707,19.315 58.663,19.392 58.388,19.447 C58.256,19.469 58.157,19.513 58.157,19.557 C58.157,19.612 58.245,19.634 58.366,19.634 C58.575,19.634 58.806,19.612 58.949,19.612 C59.202,19.612 59.741,19.656 59.829,19.656 C59.939,19.656 60.049,19.656 60.049,19.59 C60.049,19.535 59.994,19.513 59.862,19.48 C59.686,19.425 59.554,19.37 59.521,19.128 C59.499,18.974 59.466,18.688 59.455,17.973 L59.4540413,17.6248017 C59.4513636,17.1231818 59.444,16.728 59.444,16.62 C59.444,16.532 59.499,16.367 59.576,16.29 C59.862,16.048 60.148,15.938 60.434,15.938 C60.687,15.938 60.896,16.015 61.061,16.147 C61.336,16.356 61.413,16.62 61.413,17.511 L61.413,19.007 C61.413,19.326 61.369,19.403 61.105,19.469 C60.962,19.502 60.896,19.546 60.896,19.59 C60.896,19.634 60.973,19.656 61.072,19.656 C61.237,19.656 61.38,19.612 61.754,19.612 C61.996,19.612 62.315,19.656 62.458,19.656 Z M65.032,19.733 C65.659,19.733 66.121,19.513 66.561,19.04 C66.627,18.963 66.671,18.897 66.671,18.864 C66.671,18.809 66.627,18.787 66.539,18.875 C66.275,19.128 65.945,19.227 65.494,19.227 C65.131,19.227 64.691,19.106 64.394,18.776 C64.108,18.457 63.888,18.006 63.888,17.445 C63.888,17.137 63.921,16.972 63.976,16.84 C63.998,16.807 64.053,16.752 64.075,16.752 L64.669,16.752 C64.922,16.752 66.352,16.774 66.44,16.785 C66.495,16.785 66.55,16.719 66.55,16.664 C66.55,15.993 65.857,15.542 65.208,15.542 C64.636,15.542 64.13,15.806 63.833,16.092 C63.371,16.543 63.195,17.192 63.195,17.698 C63.195,18.292 63.393,18.82 63.723,19.172 C64.053,19.524 64.515,19.733 65.032,19.733 Z M64.119,16.598 C64.097,16.598 64.075,16.576 64.075,16.554 C64.075,16.466 64.174,16.257 64.306,16.103 C64.548,15.85 64.823,15.696 65.109,15.696 C65.362,15.696 65.549,15.795 65.659,15.905 C65.78,16.037 65.813,16.235 65.813,16.367 C65.813,16.466 65.791,16.587 65.549,16.587 L64.119,16.598 Z M68.222,19.744 C68.486,19.744 68.86,19.656 69.102,19.502 C69.322,19.359 69.674,19.062 69.674,18.578 C69.674,18.017 69.388,17.742 68.673,17.28 C68.398,17.115 67.98,16.851 67.98,16.389 C67.98,15.949 68.288,15.707 68.64,15.707 C68.849,15.707 69.036,15.784 69.157,15.872 C69.322,16.004 69.366,16.158 69.421,16.323 C69.454,16.4 69.476,16.455 69.52,16.455 C69.553,16.455 69.575,16.4 69.575,16.279 C69.564,16.103 69.52,15.883 69.509,15.762 C69.509,15.729 69.476,15.685 69.454,15.663 C69.322,15.619 69.003,15.542 68.706,15.542 C68.288,15.542 67.98,15.685 67.782,15.85 C67.54,16.026 67.364,16.323 67.364,16.719 C67.364,17.203 67.804,17.61 68.277,17.918 C68.717,18.193 69.003,18.424 69.003,18.842 C69.003,19.293 68.596,19.579 68.288,19.579 C68.123,19.579 67.958,19.557 67.793,19.447 C67.595,19.326 67.419,19.128 67.331,18.853 C67.254,18.644 67.221,18.644 67.188,18.644 C67.166,18.644 67.133,18.677 67.155,18.82 C67.166,18.941 67.188,19.216 67.188,19.37 C67.188,19.436 67.265,19.513 67.353,19.546 C67.683,19.678 67.936,19.744 68.222,19.744 Z M72.831,14.486 C72.974,14.486 73.238,14.365 73.238,14.068 C73.238,13.881 73.106,13.65 72.853,13.65 C72.677,13.65 72.468,13.804 72.468,14.079 C72.468,14.299 72.633,14.486 72.831,14.486 Z M73.436,19.656 C73.524,19.656 73.612,19.634 73.612,19.579 C73.612,19.535 73.557,19.513 73.447,19.491 C73.271,19.447 73.161,19.392 73.139,19.172 C73.117,18.985 73.117,18.171 73.117,17.247 C73.117,16.543 73.117,15.872 73.139,15.652 C73.15,15.531 73.128,15.498 73.095,15.498 C73.073,15.498 73.018,15.52 72.93,15.575 C72.699,15.674 72.435,15.784 72.138,15.861 C72.039,15.883 72.006,15.916 72.006,15.949 C72.006,15.971 72.039,16.004 72.094,16.037 C72.3677778,16.1836667 72.4068889,16.2521111 72.4122003,16.3736694 L72.4121402,16.5335807 C72.4079758,16.979917 72.3897059,18.5728235 72.38,18.864 C72.369,19.315 72.27,19.403 72.028,19.469 C71.874,19.491 71.819,19.524 71.819,19.568 C71.819,19.612 71.896,19.634 71.973,19.634 C72.094,19.634 72.27,19.612 72.633,19.612 C72.93,19.612 73.337,19.656 73.436,19.656 Z M78.309,19.656 C78.419,19.656 78.507,19.645 78.507,19.579 C78.507,19.535 78.441,19.513 78.342,19.469 C78.045,19.392 78.012,19.326 78.001,18.578 C78.001,18.028 77.99,17.94 77.99,17.357 C77.979,16.73 77.891,16.18 77.638,15.916 C77.495,15.762 77.231,15.542 76.78,15.542 C76.593,15.542 76.362,15.564 76.131,15.674 C75.889,15.773 75.625,15.96 75.35,16.169 C75.328,16.191 75.295,16.158 75.295,16.136 C75.284,15.982 75.306,15.685 75.317,15.553 C75.328,15.498 75.273,15.454 75.24,15.465 C75.053,15.586 74.613,15.773 74.371,15.839 C74.272,15.872 74.217,15.905 74.217,15.927 C74.217,15.96 74.239,15.982 74.305,16.026 C74.569,16.169 74.591,16.29 74.591,16.4 L74.5901852,17.3187037 C74.5885556,17.9412222 74.5836667,18.567 74.569,19.095 C74.558,19.315 74.514,19.392 74.239,19.447 C74.107,19.469 74.008,19.513 74.008,19.557 C74.008,19.612 74.096,19.634 74.217,19.634 C74.426,19.634 74.657,19.612 74.8,19.612 C75.053,19.612 75.592,19.656 75.68,19.656 C75.79,19.656 75.9,19.656 75.9,19.59 C75.9,19.535 75.845,19.513 75.713,19.48 C75.537,19.425 75.405,19.37 75.372,19.128 C75.35,18.974 75.317,18.688 75.306,17.973 L75.3050413,17.6248017 C75.3023636,17.1231818 75.295,16.728 75.295,16.62 C75.295,16.532 75.35,16.367 75.427,16.29 C75.713,16.048 75.999,15.938 76.285,15.938 C76.538,15.938 76.747,16.015 76.912,16.147 C77.187,16.356 77.264,16.62 77.264,17.511 L77.264,19.007 C77.264,19.326 77.22,19.403 76.956,19.469 C76.813,19.502 76.747,19.546 76.747,19.59 C76.747,19.634 76.824,19.656 76.923,19.656 C77.088,19.656 77.231,19.612 77.605,19.612 C77.847,19.612 78.166,19.656 78.309,19.656 Z"/>
      <path fill="#000" d="M2.354,31.722 C3.168,31.722 3.685,31.249 3.905,30.908 C3.971,30.809 3.993,30.754 3.993,30.71 C3.993,30.666 3.949,30.666 3.894,30.71 C3.575,30.996 3.3,31.084 2.827,31.084 C2.574,31.084 2.167,30.985 1.87,30.699 C1.584,30.435 1.408,29.885 1.408,29.346 C1.408,28.103 1.98,27.74 2.277,27.74 C2.442,27.74 2.541,27.762 2.684,27.828 C2.838,27.894 3.234,28.224 3.377,28.345 C3.443,28.4 3.531,28.444 3.564,28.444 C3.729,28.444 3.916,28.268 3.916,28.015 C3.916,27.96 3.861,27.85 3.784,27.806 C3.63,27.685 3.311,27.509 2.706,27.509 C2.101,27.509 1.452,27.828 1.089,28.136 C0.748,28.422 0.352,28.983 0.352,29.676 C0.352,30.292 0.539,30.798 0.891,31.161 C1.254,31.524 1.793,31.722 2.354,31.722 Z M6.644,31.744 C7.051,31.744 7.59,31.601 7.964,31.315 C8.305,31.051 8.822,30.468 8.822,29.588 C8.822,28.444 7.931,27.509 6.622,27.509 C6.171,27.509 5.665,27.652 5.214,28.015 C4.873,28.279 4.433,28.807 4.433,29.643 C4.433,30.82 5.39,31.744 6.644,31.744 Z M6.776,31.568 C6.479,31.568 6.171,31.348 5.94,30.963 C5.665,30.49 5.599,29.874 5.599,29.346 C5.599,28.389 6.05,27.696 6.523,27.696 C7.293,27.696 7.645,28.565 7.645,29.819 C7.645,30.633 7.414,31.161 7.282,31.315 C7.161,31.469 6.974,31.568 6.776,31.568 Z M11.264,31.645 C11.374,31.645 11.484,31.612 11.484,31.568 C11.484,31.513 11.407,31.48 11.341,31.469 C11.055,31.403 10.989,31.359 10.978,31.007 C10.967,30.809 10.956,30.369 10.956,28.939 L10.956,28.081 C10.956,26.178 10.989,24.341 10.989,24.264 C10.989,24.209 10.967,24.143 10.945,24.143 C10.901,24.143 10.846,24.165 10.791,24.187 C10.56,24.264 10.131,24.429 9.68,24.495 C9.581,24.517 9.515,24.55 9.515,24.583 C9.515,24.616 9.548,24.66 9.625,24.704 C9.878,24.836 9.933,24.913 9.933,25.166 C9.944,25.54 9.933,26.706 9.933,27.311 C9.922,28.367 9.878,30.413 9.856,30.864 C9.834,31.337 9.768,31.403 9.471,31.458 C9.383,31.48 9.306,31.502 9.306,31.557 C9.306,31.612 9.394,31.634 9.504,31.634 C9.801,31.634 10.032,31.612 10.329,31.612 C10.494,31.612 10.934,31.645 11.264,31.645 Z M14.212,31.744 C14.619,31.744 15.158,31.601 15.532,31.315 C15.873,31.051 16.39,30.468 16.39,29.588 C16.39,28.444 15.499,27.509 14.19,27.509 C13.739,27.509 13.233,27.652 12.782,28.015 C12.441,28.279 12.001,28.807 12.001,29.643 C12.001,30.82 12.958,31.744 14.212,31.744 Z M14.344,31.568 C14.047,31.568 13.739,31.348 13.508,30.963 C13.233,30.49 13.167,29.874 13.167,29.346 C13.167,28.389 13.618,27.696 14.091,27.696 C14.861,27.696 15.213,28.565 15.213,29.819 C15.213,30.633 14.982,31.161 14.85,31.315 C14.729,31.469 14.542,31.568 14.344,31.568 Z M17.083,31.667 C17.347,31.667 17.336,31.612 17.996,31.612 C18.524,31.612 18.722,31.656 19.03,31.656 C19.173,31.656 19.261,31.634 19.261,31.579 C19.261,31.524 19.217,31.491 19.063,31.469 C18.656,31.414 18.579,31.337 18.535,31.007 C18.513,30.754 18.491,30.292 18.491,29.511 C18.491,29.302 18.48,28.873 18.513,28.664 C18.535,28.565 18.557,28.488 18.634,28.411 C18.744,28.301 18.876,28.257 19.008,28.257 C19.129,28.257 19.316,28.345 19.437,28.433 C19.547,28.51 19.602,28.51 19.624,28.51 C19.679,28.51 19.734,28.488 19.844,28.378 C20.031,28.191 20.174,27.949 20.174,27.85 C20.174,27.762 20.13,27.707 20.02,27.63 C19.932,27.564 19.8,27.52 19.657,27.52 C19.228,27.52 18.832,27.916 18.524,28.323 C18.513,28.356 18.469,28.345 18.469,28.29 C18.469,28.048 18.491,27.74 18.491,27.542 C18.491,27.487 18.458,27.421 18.436,27.421 C18.392,27.421 18.348,27.432 18.249,27.487 C18.04,27.597 17.655,27.729 17.193,27.85 C17.149,27.872 17.072,27.916 17.072,27.949 C17.072,27.982 17.094,28.004 17.16,28.059 C17.413,28.279 17.446,28.301 17.446,28.367 C17.457,28.499 17.446,28.785 17.446,29.478 C17.435,30.204 17.424,30.831 17.413,31.018 C17.38,31.326 17.292,31.414 17.039,31.469 C16.918,31.491 16.874,31.546 16.874,31.59 C16.874,31.634 16.94,31.667 17.083,31.667 Z M21.406,26.651 C21.648,26.651 21.945,26.486 21.945,26.101 C21.945,25.848 21.736,25.584 21.461,25.584 C21.23,25.584 20.944,25.76 20.944,26.145 C20.944,26.431 21.175,26.651 21.406,26.651 Z M22.209,31.667 C22.297,31.667 22.374,31.645 22.374,31.59 C22.374,31.546 22.341,31.513 22.22,31.48 C22,31.425 21.945,31.326 21.923,31.139 C21.901,30.974 21.901,30.094 21.901,28.862 C21.901,28.4 21.901,27.839 21.923,27.608 C21.934,27.487 21.912,27.454 21.879,27.454 C21.846,27.454 21.802,27.487 21.714,27.52 C21.329,27.674 21.131,27.751 20.636,27.85 C20.515,27.883 20.482,27.916 20.482,27.938 C20.482,27.982 20.515,28.015 20.57,28.059 C20.856,28.257 20.856,28.301 20.856,28.51 C20.856,28.62 20.823,30.534 20.823,30.864 C20.823,31.249 20.746,31.392 20.46,31.458 C20.328,31.48 20.262,31.502 20.262,31.557 C20.262,31.601 20.35,31.634 20.449,31.634 C20.57,31.634 20.823,31.612 21.307,31.612 C21.769,31.612 22.022,31.667 22.209,31.667 Z M25.553,31.656 C25.641,31.656 25.839,31.612 26.466,31.612 C26.686,31.612 27.049,31.645 27.302,31.645 C27.401,31.645 27.456,31.623 27.456,31.579 C27.456,31.524 27.39,31.502 27.335,31.48 C27.038,31.403 26.983,31.315 26.972,30.633 C26.972,30.017 26.961,29.907 26.95,29.269 C26.95,28.631 26.829,28.136 26.565,27.883 C26.378,27.685 26.114,27.509 25.685,27.509 C25.454,27.509 25.234,27.564 25.036,27.652 C24.816,27.751 24.607,27.905 24.387,28.081 C24.365,28.103 24.332,28.092 24.332,28.07 C24.321,27.916 24.343,27.641 24.354,27.52 C24.354,27.465 24.299,27.421 24.266,27.432 C24.09,27.531 23.474,27.806 23.1,27.883 C23.001,27.905 22.946,27.938 22.946,27.971 C22.946,27.993 22.935,28.015 23.034,28.081 C23.254,28.235 23.287,28.323 23.287,28.433 C23.287,29.445 23.276,30.402 23.254,31.04 C23.243,31.293 23.221,31.381 22.913,31.436 C22.814,31.458 22.715,31.502 22.715,31.546 C22.715,31.601 22.803,31.634 22.924,31.634 C23.254,31.634 23.54,31.612 23.683,31.612 C23.936,31.612 24.563,31.656 24.673,31.656 C24.75,31.656 24.871,31.645 24.871,31.579 C24.871,31.524 24.827,31.502 24.695,31.469 C24.497,31.403 24.42,31.337 24.387,31.095 C24.376,30.963 24.354,30.413 24.343,29.731 C24.343,29.17 24.332,28.653 24.332,28.444 C24.332,28.356 24.387,28.257 24.442,28.213 C24.574,28.103 24.805,28.004 25.036,28.004 C25.19,28.004 25.388,28.037 25.553,28.158 C25.817,28.367 25.883,28.598 25.883,29.445 L25.883,31.062 C25.883,31.315 25.828,31.392 25.531,31.48 C25.432,31.502 25.366,31.535 25.366,31.579 C25.366,31.623 25.443,31.656 25.553,31.656 Z M29.524,34.725 C30.041,34.725 30.569,34.571 31.119,34.208 C31.614,33.9 32.186,33.229 32.186,32.536 C32.186,32.107 32.043,31.788 31.801,31.568 C31.614,31.403 31.328,31.26 30.877,31.26 C30.481,31.26 29.997,31.271 29.667,31.271 C29.062,31.271 28.743,31.117 28.743,30.853 C28.743,30.809 28.754,30.732 28.831,30.644 C28.908,30.556 29.018,30.457 29.095,30.424 C29.117,30.413 29.172,30.391 29.216,30.402 C29.337,30.435 29.579,30.468 29.733,30.468 C29.931,30.468 30.349,30.391 30.668,30.16 C31.064,29.863 31.339,29.313 31.339,28.719 L31.338296,28.53156 C31.33724,28.4352 31.3346,28.3428 31.328,28.29 C31.328,28.279 31.361,28.235 31.383,28.235 C31.504,28.235 31.834,28.257 31.999,28.257 C32.043,28.257 32.109,28.136 32.109,28.026 C32.109,27.861 32.076,27.762 32.032,27.762 C31.845,27.762 31.449,27.784 31.251,27.784 C31.097,27.784 30.976,27.773 30.877,27.729 C30.745,27.652 30.239,27.443 29.689,27.443 C29.249,27.443 28.765,27.608 28.457,27.916 C28.193,28.169 27.995,28.444 27.995,28.994 C27.995,29.621 28.435,30.094 28.864,30.325 C28.886,30.336 28.897,30.358 28.886,30.369 C28.754,30.545 28.171,31.018 27.929,31.205 C27.907,31.216 27.885,31.26 27.885,31.337 C27.885,31.876 28.556,32.261 28.765,32.327 C28.787,32.338 28.798,32.382 28.787,32.404 C28.589,32.591 28.226,32.954 28.127,33.075 C28.006,33.196 27.907,33.317 27.907,33.537 C27.907,34.252 28.534,34.725 29.524,34.725 Z M29.843,30.303 C29.612,30.303 29.414,30.138 29.271,29.929 C29.161,29.753 28.996,29.357 28.996,28.719 C28.996,28.378 29.073,28.048 29.216,27.839 C29.304,27.729 29.458,27.608 29.623,27.608 C29.821,27.608 29.942,27.674 30.14,27.938 C30.338,28.213 30.459,28.708 30.459,29.214 C30.459,29.709 30.25,30.303 29.843,30.303 Z M29.997,34.296 C29.623,34.296 29.315,34.197 29.029,33.999 C28.721,33.79 28.578,33.427 28.578,33.251 C28.578,32.987 28.677,32.679 28.952,32.448 C28.974,32.437 29.062,32.393 29.227,32.382 C29.535,32.382 30.162,32.36 30.558,32.36 C31.306,32.36 31.548,32.745 31.548,33.174 C31.548,33.493 31.328,33.878 31.02,34.076 C30.69,34.296 30.25,34.296 29.997,34.296 Z M35.926,31.744 C36.553,31.744 37.246,31.502 37.752,30.985 C37.994,30.743 38.324,30.215 38.324,29.456 C38.324,29.005 38.159,28.51 37.818,28.136 C37.565,27.85 37.125,27.542 36.432,27.542 C36.058,27.542 35.673,27.674 35.42,27.85 C35.387,27.861 35.354,27.85 35.354,27.773 C35.354,26.794 35.387,24.957 35.42,24.264 C35.42,24.143 35.398,24.099 35.376,24.099 C35.332,24.099 35.277,24.11 35.178,24.154 C34.782,24.319 34.177,24.429 34.045,24.462 C33.913,24.484 33.869,24.528 33.869,24.561 C33.869,24.583 33.902,24.616 33.99,24.682 C34.221,24.825 34.243,24.891 34.276,25.067 C34.309,25.287 34.32,25.859 34.32,26.772 C34.309,27.927 34.287,29.61 34.265,30.204 C34.243,30.963 34.21,31.227 34.177,31.425 C34.177,31.458 34.21,31.524 34.254,31.502 C34.452,31.425 34.518,31.425 34.573,31.447 C34.925,31.612 35.497,31.744 35.926,31.744 Z M36.322,31.524 C36.179,31.524 35.959,31.48 35.86,31.425 C35.717,31.348 35.541,31.227 35.486,31.095 C35.376,30.864 35.31,30.248 35.31,29.841 C35.31,29.412 35.299,28.389 35.343,28.191 C35.354,28.114 35.376,28.037 35.42,28.004 C35.497,27.96 35.662,27.905 35.838,27.905 C36.289,27.905 36.641,28.202 36.784,28.378 C37.103,28.774 37.202,29.456 37.202,29.83 L37.191,29.83 C37.191,30.336 37.059,30.908 36.883,31.172 C36.729,31.414 36.454,31.524 36.322,31.524 Z M41.217,31.744 C41.624,31.744 42.163,31.601 42.537,31.315 C42.878,31.051 43.395,30.468 43.395,29.588 C43.395,28.444 42.504,27.509 41.195,27.509 C40.744,27.509 40.238,27.652 39.787,28.015 C39.446,28.279 39.006,28.807 39.006,29.643 C39.006,30.82 39.963,31.744 41.217,31.744 Z M41.349,31.568 C41.052,31.568 40.744,31.348 40.513,30.963 C40.238,30.49 40.172,29.874 40.172,29.346 C40.172,28.389 40.623,27.696 41.096,27.696 C41.866,27.696 42.218,28.565 42.218,29.819 C42.218,30.633 41.987,31.161 41.855,31.315 C41.734,31.469 41.547,31.568 41.349,31.568 Z M46.288,31.744 C46.695,31.744 47.234,31.601 47.608,31.315 C47.949,31.051 48.466,30.468 48.466,29.588 C48.466,28.444 47.575,27.509 46.266,27.509 C45.815,27.509 45.309,27.652 44.858,28.015 C44.517,28.279 44.077,28.807 44.077,29.643 C44.077,30.82 45.034,31.744 46.288,31.744 Z M46.42,31.568 C46.123,31.568 45.815,31.348 45.584,30.963 C45.309,30.49 45.243,29.874 45.243,29.346 C45.243,28.389 45.694,27.696 46.167,27.696 C46.937,27.696 47.289,28.565 47.289,29.819 C47.289,30.633 47.058,31.161 46.926,31.315 C46.805,31.469 46.618,31.568 46.42,31.568 Z M53.79,31.667 C53.911,31.667 53.999,31.634 53.999,31.579 C53.999,31.535 53.955,31.502 53.845,31.48 C53.526,31.425 53.416,31.326 53.097,30.974 C52.668,30.501 51.931,29.588 51.535,29.049 C51.524,29.027 51.502,28.994 51.524,28.972 C51.777,28.708 52.085,28.433 52.338,28.224 C52.679,27.938 52.921,27.828 53.295,27.74 C53.427,27.718 53.471,27.685 53.471,27.652 C53.471,27.608 53.405,27.575 53.284,27.575 C52.899,27.575 52.536,27.641 52.129,27.641 C52.041,27.641 51.876,27.63 51.722,27.63 C51.623,27.63 51.535,27.663 51.535,27.707 C51.535,27.762 51.601,27.784 51.711,27.806 C52.041,27.861 52.107,27.949 52.107,28.004 C52.107,28.048 52.063,28.114 52.008,28.18 C51.81,28.488 51.216,29.071 50.831,29.335 C50.765,29.379 50.688,29.434 50.644,29.434 C50.611,29.434 50.589,29.379 50.589,29.28 C50.578,28.73 50.633,26.86 50.633,26.486 C50.633,25.661 50.688,24.561 50.699,24.176 C50.699,24.143 50.666,24.099 50.655,24.099 C50.611,24.099 50.534,24.121 50.457,24.154 C50.446,24.165 50.116,24.33 49.39,24.462 C49.258,24.484 49.181,24.528 49.181,24.572 C49.181,24.605 49.236,24.638 49.28,24.671 C49.445,24.759 49.544,24.836 49.544,24.913 C49.577,25.089 49.588,25.188 49.588,25.441 C49.588,26.057 49.566,27.993 49.566,28.455 C49.566,29.302 49.555,30.127 49.511,30.93 C49.489,31.293 49.445,31.403 49.115,31.48 C49.027,31.502 48.961,31.535 48.961,31.579 C48.961,31.623 49.06,31.656 49.148,31.656 C49.203,31.656 49.588,31.612 50.017,31.612 C50.303,31.612 50.655,31.645 50.974,31.645 C51.051,31.645 51.183,31.623 51.183,31.557 C51.183,31.513 51.106,31.469 50.996,31.447 C50.754,31.392 50.611,31.359 50.589,30.82 C50.578,30.446 50.567,29.841 50.589,29.665 C50.6,29.61 50.6,29.577 50.633,29.577 C50.666,29.577 50.743,29.665 50.853,29.797 C51.194,30.193 51.788,30.93 51.953,31.15 C52.052,31.304 52.008,31.381 51.832,31.436 C51.667,31.48 51.623,31.502 51.623,31.557 C51.623,31.612 51.678,31.634 51.81,31.634 C51.964,31.634 52.129,31.612 52.338,31.612 C52.822,31.612 53.163,31.667 53.79,31.667 Z M55.627,29.643 C55.671,29.643 55.726,29.599 55.759,29.324 C55.891,28.257 56.353,26.827 56.353,26.101 C56.353,25.672 56.111,25.166 55.627,25.166 C55.187,25.166 54.89,25.694 54.89,26.134 C54.901,26.926 55.341,28.07 55.484,29.357 C55.517,29.588 55.561,29.643 55.627,29.643 Z M55.638,31.755 C55.902,31.755 56.265,31.502 56.265,31.084 C56.265,30.776 56.045,30.402 55.638,30.402 C55.297,30.402 54.989,30.699 54.989,31.084 C55,31.458 55.286,31.755 55.638,31.755 Z"/>
    </g>
    <g stroke="#222F3C" stroke-width=".4" transform="translate(68.03 66.089)">
      <g stroke-linecap="round" stroke-linejoin="round">
        <path d="M3.46195312,1.86791992 L1.83597656,1.86791992 C1.62796875,1.86791992 1.46,1.69897461 1.46,1.4909668 L1.46,0.375976562 C1.46,0.16796875 1.62796875,0 1.83597656,0 L6.11405273,0"/>
        <g transform="translate(0 2.359)">
          <line x1="1.096" x2="2.242" y1=".671" y2=".671" transform="translate(0 9.033)"/>
          <g transform="translate(0 2.661)">
            <line x1="2.138" x2=".687" y1="7.043" y2="7.043"/>
            <line x1=".053" x2=".058" y1="6.075" y2="6.062"/>
            <line x1=".058" x2="2.532" y1="6.062"/>
            <path d="M0.0529785156,6.07486914 C0.0189208984,6.15690039 0,6.24576758 0,6.34073828 C0,6.72770117 0.313964844,7.04166602 0.701904297,7.04166602"/>
            <line x1=".053" x2=".058" y1="6.075" y2="6.062"/>
          </g>
          <g transform="translate(0 2.661)">
            <line x1="2.138" x2=".687" y1="7.043" y2="7.043"/>
            <line x1=".053" x2=".058" y1="6.075" y2="6.062"/>
            <line x1=".058" x2="2.532" y1="6.062"/>
            <path d="M0.0529785156,6.07486914 C0.0189208984,6.15690039 0,6.24576758 0,6.34073828 C0,6.72770117 0.313964844,7.04166602 0.701904297,7.04166602"/>
            <line x1=".053" x2=".058" y1="6.075" y2="6.062"/>
          </g>
        </g>
      </g>
      <g transform="translate(2.171 1.132)">
        <path stroke-linecap="round" stroke-linejoin="round" d="M4.07794922,1.86816406 L6.3419873,1.86816406 C6.53400391,1.86816406 6.6890332,1.69897461 6.6890332,1.4909668 L6.6890332,0.375976562 C6.6890332,0.16796875 6.53400391,0 6.3419873,0 L2.02594727,0 C1.8350293,0 1.68,0.16796875 1.68,0.375976562 L1.68,1.4909668 C1.68,1.69897461 1.8350293,1.86816406 2.02594727,1.86816406 L2.77301758,1.86816406"/>
        <g stroke-linecap="round" stroke-linejoin="round" transform="translate(0 2.777)">
          <g transform="translate(0 2.66)">
            <line x1=".053" x2=".058" y1="6.075" y2="6.062"/>
            <line x1=".058" x2="2.532" y1="6.062"/>
            <path d="M0.0531005859,6.07457617 C0.0190429688,6.15660742 0,6.24669531 0,6.34068945 C0,6.72765234 0.314086914,7.04161719 0.701049805,7.04161719"/>
            <line x1=".053" x2=".058" y1="6.075" y2="6.063"/>
          </g>
          <line x1="5.832" x2="5.832" y1="2.61"/>
          <g transform="translate(0 2.66)">
            <line x1=".791" x2="7.681" y1="7.043" y2="7.043"/>
            <line x1="8.315" x2="8.31" y1="6.075" y2="6.062"/>
            <line x1="8.31" x2="5.836" y1="6.062"/>
            <path d="M8.31494922,6.07457617 C8.34900684,6.15660742 8.36792773,6.24669531 8.36792773,6.34068945 C8.36792773,6.72765234 8.05396289,7.04161719 7.667,7.04161719"/>
            <line x1="8.315" x2="8.31" y1="6.075" y2="6.063"/>
          </g>
          <g transform="translate(0 2.66)">
            <line x1=".791" x2="7.681" y1="7.043" y2="7.043"/>
            <line x1="8.315" x2="8.31" y1="6.075" y2="6.062"/>
            <line x1="8.31" x2="5.836" y1="6.062"/>
            <path d="M8.31494922,6.07457617 C8.34900684,6.15660742 8.36792773,6.24669531 8.36792773,6.34068945 C8.36792773,6.72765234 8.05396289,7.04161719 7.667,7.04161719"/>
            <line x1="8.315" x2="8.31" y1="6.075" y2="6.063"/>
          </g>
        </g>
        <line x1="4.72" x2="5.857" y1="3.409" y2="3.409"/>
        <line x1="4.72" x2="5.857" y1="2.758" y2="2.758"/>
        <line x1="4.72" x2="5.857" y1="4.068" y2="4.068"/>
        <line x1="4.72" x2="5.857" y1="4.727" y2="4.727"/>
        <line x1="4.72" x2="5.857" y1="5.385" y2="5.385"/>
      </g>
      <path d="M0,1.18701172 C0,0.938313802 0.225667318,0.542643229 0.677001953,0 C1.12833659,0.542643229 1.35400391,0.938313802 1.35400391,1.18701172 C1.35400391,1.56103516 1.05102539,1.86401367 0.677001953,1.86401367 C0.302978516,1.86401367 0,1.56103516 0,1.18701172 Z" transform="translate(4.446 9.123)"/>
      <path d="M0,1.18798828 C0,0.938639323 0.225301107,0.542643229 0.67590332,0 C1.12723796,0.542643229 1.35290527,0.938639323 1.35290527,1.18798828 C1.35290527,1.56103516 1.04992676,1.86401367 0.67590332,1.86401367 C0.302978516,1.86401367 0,1.56103516 0,1.18798828 Z" transform="translate(5.859 10.798)"/>
      <path d="M0,1.18701172 C0,0.938313802 0.225667318,0.542643229 0.677001953,0 C1.12833659,0.542643229 1.35400391,0.938313802 1.35400391,1.18701172 C1.35400391,1.56103516 1.05102539,1.86401367 0.677001953,1.86401367 C0.303100586,1.86401367 0,1.56103516 0,1.18701172 Z" transform="translate(6.233 8.399)"/>
    </g>
    <g stroke="#222F3C" stroke-width=".4" transform="translate(165.55 45.873)">
      <path d="M1.83048647,9.686 L15.1820003,9.686 L15.1820003,19.3222667 C15.1820003,19.8745515 14.7342851,20.3222667 14.1820003,20.3222667 L2.83048647,20.3222667 C2.27820172,20.3222667 1.83048647,19.8745515 1.83048647,19.3222667 L1.83048647,9.686 L1.83048647,9.686 Z" transform="rotate(43.256 8.506 15.004)"/>
      <rect width="2.67" height="6.838" x="9.268" y="1.563" stroke-linecap="round" stroke-linejoin="round" transform="rotate(43.256 10.604 4.982)"/>
      <rect width="2.67" height="5.698" x="10.822" y="4.377" stroke-linecap="round" stroke-linejoin="round" transform="rotate(43.256 12.158 7.226)"/>
      <rect width="2.67" height="4.558" x="12.377" y="7.192" stroke-linecap="round" stroke-linejoin="round" transform="rotate(43.256 13.713 9.471)"/>
      <rect width="2.67" height="3.419" x="13.931" y="10.007" stroke-linecap="round" stroke-linejoin="round" transform="rotate(43.256 15.267 11.716)"/>
      <rect width="2.67" height="2.279" x="15.485" y="12.821" stroke-linecap="round" stroke-linejoin="round" transform="rotate(43.256 16.82 13.96)"/>
      <g stroke-linejoin="round" transform="translate(16.63 10.639)">
        <path d="M3.31579687 0L1.474.875 2.55444434 1.89160156 3.31579687 0zM1.47338867.875L0 1.57519531 1.94482422 3.4050293 2.55383301 1.89160156 1.47338867.875z"/>
      </g>
      <g stroke-linejoin="round" transform="translate(15.466 7.98)">
        <path d="M3.31579687 0L1.474.875 2.55444434 1.89160156 3.31579687 0zM1.47338867.875L0 1.57495117 1.94470215 3.40478516 2.55383301 1.89160156 1.47338867.875z"/>
      </g>
      <g stroke-linejoin="round" transform="translate(14.303 5.32)">
        <path d="M3.31479687,0 L1.473,0.875 L2.55344434,1.89160156 L3.31479687,0 Z"/>
        <path d="M1.47338867,0.875 L0,1.57495117 L1.94470215,3.40478516 L2.55383301,1.89160156 L1.47338867,0.875 Z"/>
      </g>
      <g stroke-linejoin="round" transform="translate(13.14 2.66)">
        <path d="M3.3146748,0 L1.473,0.874755859 L2.55344434,1.89135742 L3.3146748,0 Z"/>
        <path d="M1.47338867,0.875 L0,1.57519531 L1.94470215,3.4050293 L2.55383301,1.89160156 L1.47338867,0.875 Z"/>
      </g>
      <g stroke-linejoin="round" transform="translate(11.975)">
        <path d="M3.3146748,0 L1.473,0.875 L2.55344434,1.89160156 L3.3146748,0 Z"/>
        <path d="M1.47351074,0.875 L0,1.57495117 L1.94482422,3.40478516 L2.55395508,1.89160156 L1.47351074,0.875 Z"/>
      </g>
    </g>
    <g stroke="#222F3C" stroke-width=".5" transform="translate(80.474 69.324)">
      <g transform="translate(22.564 1.947)">
        <g transform="translate(21.247)">
          <path d="M4.23258789 11.3349785C4.23258789 15.512957 7.76762207 18.9011406 12.128584 18.9011406 16.4886914 18.9011406 20.0236035 15.512957 20.0236035 11.3349785 20.0236035 10.8750176 20.0185986 10.4690117 19.9366895 10.032M14.3060303 44.4877891L16.8242873 44.4877891C17.688834 44.4877891 18.3896875 45.1886426 18.3896875 46.0531893L18.3896875 46.053191 18.3896875 46.053191 14.3060303 46.053191 14.3060303 44.4877891z"/>
          <path d="M5.86658789,44.488 L9.95024468,44.488 L9.95024468,44.4880015 C9.95024468,45.3525483 9.24939106,46.0534019 8.38484432,46.0534019 L5.86658789,46.0534019 L5.86658789,46.0534019 L5.86658789,44.488 Z" transform="rotate(180 7.908 45.27)"/>
          <g transform="translate(2.872 11.08)">
            <path d="M1.36096191.254882812C1.36096191.168945312 1.36499023.0849609375 1.36804199 0 .602050781.0629882812 0 .677978516 0 1.42895508 0 2.22094727.671020508 2.86401367 1.49804688 2.86401367L1.84399414 2.86401367C1.53198242 2.04980469 1.36096191 1.171875 1.36096191.254882812zM17.1450742 0C17.1480039.0849609375 17.1520322.168945312 17.1520322.254882812 17.1520322 1.171875 16.9810117 2.04980469 16.669 2.86401367L17.0150693 2.86401367C17.8420957 2.86401367 18.5131162 2.22094727 18.5131162 1.42895508 18.5131162.677978516 17.9110654.0629882812 17.1450742 0z"/>
          </g>
          <g transform="translate(7.5 11.922)">
            <path d="M9.25701953 0C9.25701953.467773438 8.86102344.847900391 8.37200977.847900391 7.88299609.847900391 7.487.467773438 7.487 0M1.76989746 0C1.76989746.467773438 1.37390137.847900391.885009766.847900391.396972656.847900391 0 .467773438 0 0"/>
          </g>
          <path d="M10.6305879 15.535C10.6305879 16.3282129 11.3016084 16.9700586 12.1285127 16.9700586 12.9545625 16.9700586 13.625583 16.3282129 13.625583 15.535M21.2885557 22.297082C20.4216123 20.5160762 18.9535947 19.1239863 17.1136289 18.3180781 16.8715635 18.1698848 16.5986143 18.0668574 16.3045469 18.0190059 16.2095762 17.9989863 16.1125303 17.988 16.0156064 17.988 16.0005918 17.988 15.9865537 17.9889766 15.9725156 17.9889766L15.9395566 17.988 15.891583 17.988C14.7725645 18.5700312 13.490582 18.9010859 12.1285215 18.9010859 10.7656064 18.9010859 9.48362402 18.5700312 8.36460547 17.988L8.31650977 17.988 8.28355078 17.9889766C8.2695127 17.9889766 8.25559668 17.988 8.24058203 17.988 8.14353613 17.988 8.0466123 17.9989863 7.95151953 18.0190059 7.65757422 18.0668574 7.384625 18.1698848 7.14255957 18.3180781 5.30259375 19.1239863 3.83457617 20.5160762 2.96751074 22.297082 2.89756445 22.4408809 2.83359961 22.586877 2.77158789 22.7338496L5.4405332 23.3280879C5.6325498 22.9440547 5.86851172 22.586877 6.13853125 22.2599727L6.13853125 29.4010859 18.1175352 29.4010859 18.1175352 22.2599727C18.3875547 22.586877 18.6235166 22.9440547 18.8155332 23.3280879L21.4846006 22.7338496C21.4235654 22.586877 21.358624 22.4408809 21.2885557 22.297082z"/>
          <path d="M8.31058789 17.879C8.31058789 19.9021934 10.0216475 21.5420859 12.1316328 21.5420859 14.2425947 21.5420859 15.9536543 19.9021934 15.9536543 17.879M19.4815547 27.2880137C19.6816279 27.1918223 19.9066035 27.1368906 20.1456172 27.1368906 20.7245967 27.1368906 21.2255732 27.4530527 21.4745967 27.9139902 21.9935176 26.174 21.8565547 24.3820078 21.1895625 22.799L19.1155879 23.2618906C19.7136104 24.4869883 19.8725459 25.9069102 19.4815547 27.2880137z"/>
          <ellipse cx="20.146" cy="28.572" rx="1.497" ry="1.435"/>
          <path d="M2.16456641,26.6909355 C1.95057715,26.5891289 1.58558691,26.5339531 1.36158789,26.5339531 C2.35365332,25.4651055 3.01063574,24.1340508 3.04457129,22.782 L5.11659277,23.2539238 C4.97755469,24.9550957 4.26661719,26.6179375 2.9935459,27.9541191 C2.98463477,27.4350762 2.68263281,26.9389824 2.16456641,26.6909355 Z"/>
          <ellipse cx="1.497" cy="27.976" rx="1.497" ry="1.435"/>
          <path d="M12.1305996,0.389892578 C11.1205898,0.389892578 10.1525723,0.580078125 9.25462305,0.927978516 C6.55162012,1.22802734 4.07359277,0.91796875 2.06858789,0 L2.06858789,2.53491211 C2.06858789,4.22607422 2.77061426,5.8449707 3.94053613,7.10791016 L3.94053613,7.10791016 C3.74961816,7.8659668 3.64451562,8.66308594 3.64451562,9.48706055 C3.64451562,10.0480957 3.69358789,10.5959473 3.78453027,11.1289062 C3.931625,11.0759277 4.08763086,11.0458984 4.25059473,11.0458984 L4.25352441,11.0458984 C4.26853906,9.94799805 4.47862207,8.89990234 4.84959375,7.94189453 C5.21653711,8.22900391 5.6125332,8.48608398 6.03453027,8.70703125 C7.82762109,9.64794922 10.0285488,9.62988281 12.0795742,9.20996094 C13.1866299,8.98388672 14.4205166,8.86499023 15.6666104,8.86108398 C17.0936123,8.8840332 18.4946133,9.11401367 19.8665615,9.57006836 C19.9526211,10.0490723 20.0005947,10.5419922 20.0075527,11.0458984 L20.0106045,11.0458984 C20.1735684,11.0458984 20.3295742,11.0759277 20.4765469,11.1289062 C20.5645596,10.611084 20.6125332,10.0791016 20.615585,9.53393555 L20.6165615,9.48706055 C20.6165615,4.46289062 16.8176113,0.389892578 12.1305996,0.389892578 Z"/>
          <g transform="translate(6.139 30.362)">
            <path d="M6.00305176,4.37182617 L6.00305176,14.1140137 L11.4200439,14.1140137 L11.4200439,4.27490234 C12.0600586,3.53100586 11.9980469,1.03100586 11.9980469,0 L0,0.0419921875"/>
            <path d="M5.99571791,5.95605469 L5.99571791,14.1140137 L0.579702288,14.1140137 L0.579702288,4.27490234 C-0.0612889227,3.53100586 0.0016993586,1.03100586 0.0016993586,0 L11.9986476,0.0419921875"/>
          </g>
        </g>
        <g transform="translate(0 1.014)">
          <path d="M0.474975586,0 C0.477905273,0.0849609375 0.481933594,0.169189453 0.481933594,0.255126953 C0.481933594,1.17211914 0.311889648,2.05102539 0,2.86401367 L0.345947266,2.86401367 C1.17297363,2.86401367 1.84289551,2.22119141 1.84289551,1.42895508 C1.84289551,0.677978516 1.24194336,0.0629882812 0.474975586,0 Z" transform="translate(19.507 10.114)"/>
          <g transform="translate(7.466 10.956)">
            <path d="M9.25604297.848144531C9.25604297.380126953 8.86004688 0 8.3710332 0 7.88299609 0 7.487.380126953 7.487.848144531M1.7689209.848144531C1.7689209.380126953 1.3729248 0 .885009766 0 .395996094 0 0 .380126953 0 .848144531"/>
          </g>
          <path d="M10.5972686 14.569C10.5972686 15.3619687 11.2671904 16.0040586 12.0942168 16.0040586 12.9212432 16.0040586 13.5912871 15.3619687 13.5912871 14.569M22.047209 25.6760176C22.2611982 25.5739668 22.6252119 25.517082 22.8482344 25.5151289 21.8682539 24.4699629 21.2242109 23.1640547 21.2002852 21.833L19.1332686 22.3142012C19.2582686 23.9880293 19.9532148 25.6201094 21.212248 26.9260176 21.2242109 26.4150313 21.5292646 25.9240645 22.047209 25.6760176z"/>
          <path stroke-linecap="round" stroke-linejoin="round" d="M0,4.0390625 C1.67102051,3.06811523 2.60900879,1.85717773 3.26501465,0" transform="translate(16.83 13.155)"/>
          <path d="M3.56419043,10.159 C3.0922666,10.4048496 2.76926855,10.8958164 2.76926855,11.4649082 C2.76926855,12.034 3.0922666,12.5278965 3.56419043,12.7739902 L3.56419043,10.159 Z"/>
          <g transform="translate(3.626)">
            <path d="M2.67690723,18.0269336 C2.67690723,20.1568164 1.84499805,20.7918262 0.772,22.1380176 L1.77993457,22.3628711 C1.97292773,21.9778613 2.20791309,21.6209277 2.47890918,21.295 L2.47890918,28.4600391 L14.4569365,28.4600391 L14.4569365,21.295 C14.7279326,21.6209277 14.962918,21.9778613 15.1559111,22.3628711 L17.824002,21.7679004 C17.7629668,21.6209277 17.6878936,21.4798145 17.6289336,21.3308887 C16.8359648,19.3350391 14.3340117,17.4029102 12.3139922,16.92"/>
            <path stroke-linecap="round" stroke-linejoin="round" d="M16.9000244,10.0810547 L16.9000244,9.40209961 L16.9000244,8.45019531 C16.9000244,3.78320312 13.1160889,0 8.45007324,0 C3.78308105,0 0,3.78320312 0,8.45019531"/>
          </g>
          <g transform="translate(2.734 .022)">
            <g transform="translate(0 8.337)">
              <path d="M3.5689209 9.417L3.5689209 9.66797656C3.5689209 11.7978594 2.74799805 12.411873 1.675 13.7580645M5.51406836 8.583C4.89004492 8.73192578 4.22109961 9.03197461 3.569 9.41698438"/>
              <line x1=".893" x2=".896" y1="13.607" y2="11.783" stroke-linecap="round" stroke-linejoin="round"/>
              <path stroke-linecap="square" d="M0.893098633,13.606957 L0.892,14.8510977 C1.15701465,14.4380117 1.40701465,14.093041 1.65506152,13.7829824"/>
              <line x1=".896" x2=".914" y1="11.784" stroke-linecap="round" stroke-linejoin="round"/>
              <path d="M0,13.5477715 C0.124023438,13.1219902 0.640991211,12.1559258 0.891967773,11.737957"/>
            </g>
            <path stroke-linecap="round" stroke-linejoin="round" d="M0.929,8.45019531 C0.929,3.78320312 4.71208105,0 9.37907324,0 C14.0450889,0 17.7941123,3.73608398 17.7941123,8.40307617"/>
          </g>
          <g transform="translate(6.303 5.243)">
            <path d="M13.5880127 4.02685547C13.1600342 3.93286133 12.7290039 3.82592773 12.4090576 3.70898438 9.96606445 2.81982422 8.55102539 1.48901367 7.96801758 0 5.67700195 1.27001953 2.78503418 2.18798828 2.05407715 2.86889648 1.0020752 3.85083008 0 5.26000977 0 6.69995117L0 10.1970215M13.595 4.025L13.6249072 4.03110352 13.595 4.025"/>
            <path d="M13.467041,3.895 C13.598999,4.29001953 13.6970215,4.67795898 13.6970215,5.07786133 C13.6970215,9.25583984 10.1619873,12.6440234 5.80200195,12.6440234 C3.50500488,12.6440234 1.44299316,11.6979785 0,10.197002"/>
          </g>
          <line x1="3.748" x2="2.771" y1="22.002" y2="21.705"/>
          <path d="M14.2502441,43.4737891 L16.7685006,43.4737891 C17.6330473,43.4737891 18.3339009,44.1746427 18.3339009,45.0391894 L18.3339009,45.039191 L18.3339009,45.039191 L14.2502441,45.039191 L14.2502441,43.4737891 Z"/>
          <path d="M5.81026855,43.474 L9.89392582,43.474 L9.89392582,43.4740018 C9.89392582,44.3385484 9.19307231,45.0394019 8.3285257,45.0394019 L5.81026855,45.0394019 L5.81026855,45.0394019 L5.81026855,43.474 Z" transform="rotate(180 7.852 44.257)"/>
          <g transform="translate(6.083 29.348)">
            <path d="M6.00305176,4.37182617 L6.00305176,14.1140137 L11.4200439,14.1140137 L11.4200439,4.27490234 C12.0600586,3.53100586 11.9970703,1.03100586 11.9970703,0 L0,0.0419921875"/>
            <path d="M5.99560901,5.95605469 L5.99560901,14.1140137 L0.578616824,14.1140137 L0.578616824,4.27490234 C-0.0613978246,3.53100586 0.00171252697,1.03100586 0.00171252697,0 L11.9986608,0.0419921875"/>
          </g>
          <path d="M3.04522852,21.768 C3.01019434,23.1200508 2.35321191,24.4511055 1.36126855,25.5199531 C1.58526758,25.5199531 1.95123438,25.5751289 2.16424707,25.6769355 C2.68316797,25.9249824 2.98516992,26.4210762 2.99322656,26.9401191 C4.26715234,25.6039375 4.97821191,23.9420723 5.11615137,22.2399238"/>
          <ellipse cx="1.497" cy="26.962" rx="1.497" ry="1.435"/>
        </g>
      </g>
      <g transform="translate(8.772 13.917)">
        <path d="M9.2559209.848144531C9.2559209.380126953 8.8599248 0 8.37091113 0 7.88299609 0 7.487.380126953 7.487.848144531M1.77001953.848144531C1.77001953.380126953 1.37304688 0 .885009766 0 .395996094 0 0 .380126953 0 .848144531"/>
      </g>
      <path d="M11.903,17.53 C11.903,18.3229687 12.5730439,18.9650586 13.4000703,18.9650586 C14.2269746,18.9650586 14.8970186,18.3229687 14.8970186,17.53"/>
      <ellipse cx="5.382" cy="30.567" rx="1.497" ry="1.435"/>
      <path d="M24.1539658,28.4761289 C23.1739854,27.4309629 22.5300645,26.1250547 22.5060166,24.794 L20.439,25.2752012 C20.564,26.9490293 21.2590684,28.5811094 22.5179795,29.8870176"/>
      <g transform="translate(4.062 19.881)">
        <path d="M1.642,5.21801758 L2.65005664,5.44287109 C2.8430498,5.05786133 3.07803516,4.70092773 3.34903125,4.375 L3.34903125,11.5400391 L15.3270586,11.5400391 L15.3270586,4.375 C15.5980547,4.70092773 15.83304,5.05786133 16.0260332,5.44287109 L18.694002,4.84790039 C18.6329668,4.70092773 18.5580156,4.55981445 18.4990557,4.41088867 C17.7059648,2.41503906 15.2040117,0.482910156 13.1839922,0"/>
        <path d="M2.66796875,5.44287109 L0,4.84790039 C0.0610351563,4.70092773 0.135986328,4.55981445 0.194946289,4.41088867 C0.988037109,2.41503906 3.48999023,0.482910156 5.51000977,0"/>
      </g>
      <path stroke-linecap="round" stroke-linejoin="round" d="M0.554894512,0.106 C-0.0821904485,1.29398828 -0.123084003,3.99686914 0.191857403,5.04081445 C0.620812481,4.33695703 1.42781932,4.09281641 2.18587596,4.41483789 C1.81588084,3.07694727 1.94490916,1.63798242 2.55184275,0.388958984" transform="translate(3.861 24.868)"/>
      <path d="M15.556041,46.4347891 L18.074298,46.4347891 C18.9388447,46.4347891 19.6396983,47.1356426 19.6396983,48.0001893 L19.6396983,48.000191 L19.6396983,48.000191 L15.556041,48.000191 L15.556041,46.4347891 Z"/>
      <path d="M7.116,46.435 L11.1996568,46.435 L11.1996568,46.4350015 C11.1996568,47.2995483 10.4988032,48.0004019 9.63425643,48.0004019 L7.116,48.0004019 L7.116,48.0004019 L7.116,46.435 Z" transform="rotate(180 9.158 47.218)"/>
      <g transform="translate(7.389 32.309)">
        <path d="M6.00292969,4.37182617 L6.00292969,14.1140137 L11.4199219,14.1140137 L11.4199219,4.27490234 C12.0599365,3.53100586 11.9969482,1.03100586 11.9969482,0 L0,0.0419921875"/>
        <path d="M5.99572225,5.95605469 L5.99572225,14.1140137 L0.578730062,14.1140137 L0.578730062,4.27490234 C-0.0612845869,3.53100586 0.00170369439,1.03100586 0.00170369439,0 L11.9986519,0.0419921875"/>
      </g>
      <path d="M6.85395605,12.0620176 C9.17793066,11.2231504 10.5669687,9.98511328 11.1919687,8.594 C12.4669932,10.4399473 15.3668955,11.7299863 18.7449473,11.7299863 C19.4909189,11.7299863 20.3189219,11.6660215 21.1139658,11.547125 C21.2189463,12.0539609 21.274,12.5791074 21.274,13.1159727 C21.274,17.396002 17.7769297,20.8659727 13.4619883,20.8659727 C9.1469248,20.8659727 5.649,17.396002 5.649,13.1159727 C5.649,12.8720762 5.66193945,12.6311094 5.68391211,12.3930723 C6.09492285,12.2949277 6.5128916,12.1850645 6.85395605,12.0620176 Z"/>
      <path d="M2.40393066,14.9741211 L2.40393066,4.77001953 C2.40393066,2.13598633 4.55700684,0 7.21203613,0 C9.27502441,0 11.032959,1.29003906 11.7149658,3.10107422 C11.3480225,3.02294922 10.9680176,2.98095703 10.5770264,2.98095703 C7.58996582,2.98095703 5.16796875,5.38305664 5.16796875,8.34692383 C5.16796875,8.60693359 5.18994141,8.86303711 5.22595215,9.11303711 L5.22595215,9.11303711 C5.24694824,9.25292969 5.27099609,9.39208984 5.30200195,9.52905273 L5.31103516,9.49511719 C5.14001465,10.1569824 5.04797363,10.8510742 5.04797363,11.565918 C5.04797363,11.8911133 5.06896973,12.2109375 5.10498047,12.526123 C5.12695313,12.7099609 5.15600586,12.8920898 5.18896484,13.0720215 C4.61901855,13.2629395 4.20703125,13.7971191 4.20703125,14.4279785 C4.20703125,15.2180176 4.85302734,15.8579102 5.64904785,15.8579102 L6.15393066,15.8579102 L6.15393066,15.8579102 C6.41296387,16.5371094 6.76599121,17.1689453 7.19604492,17.7409668 C7.02600098,19.5610352 5.48400879,20.9851074 3.60595703,20.9851074 C1.61499023,20.9851074 0,19.3840332 0,17.407959 L0,16.2160645 C1.01293945,16.9189453 2.40393066,16.2009277 2.40393066,14.9741211 Z"/>
      <path d="M13.4620625,3.22 C18.0580098,3.22 21.791042,6.87600586 21.8719746,11.4160449 C21.8719746,11.4660937 21.8750264,11.5161426 21.8750264,11.5659473 C21.8750264,12.081084 21.8260762,12.5840137 21.7359883,13.0730273 C21.5909687,13.0239551 21.4360615,12.9970996 21.2740742,12.9970996 L21.2710225,12.9970996 C21.2640645,12.5010059 21.2109639,12.0161426 21.11404,11.5471484 L21.1150166,11.5471484 C20.3199727,11.6660449 19.4909932,11.7300098 18.7450215,11.7300098 C15.3669697,11.7300098 12.4670674,10.4399707 11.192043,8.59402344 C10.567043,9.98513672 9.17800488,11.2231738 6.85403027,12.062041 C6.06602572,12.2846973 5.67601107,12.3950488 5.68398633,12.3930957 C5.66604199,12.5920703 5.65505566,12.7939746 5.65200391,12.9970996 L5.64907422,12.9970996 C5.48806348,12.9970996 5.33401074,13.0239551 5.18899121,13.0720508 C5.15603223,12.8921191 5.12697949,12.7099902 5.10500684,12.5261523 C5.06899609,12.2109668 5.048,11.8911426 5.048,11.5659473 C5.048,6.95608398 8.81496777,3.22 13.4620625,3.22 Z"/>
      <path d="M0.134033203,6.5480957 C0.0479736328,6.16699219 0,5.77197266 0,5.3659668 C0,2.40209961 2.42199707,0 5.40905762,0 C6.04406738,0 6.65307617,0.110107422 7.21899414,0.309082031 C3.76501465,0.74609375 0.966064453,3.2590332 0.134033203,6.5480957 Z" transform="translate(5.168 2.981)"/>
      <path d="M21.2740049,13.1158965 C21.2740049,13.0758574 21.2719297,13.0370391 21.2709531,12.997 L21.2740049,12.997 C22.071002,12.997 22.716998,13.6368926 22.716998,14.4279082 C22.716998,15.2179473 22.071002,15.8578398 21.2740049,15.8578398 L20.769,15.8578398 C21.0949277,15.0060332 21.2740049,14.0819609 21.2740049,13.1158965 Z"/>
      <g transform="translate(12.723 25.433)">
        <circle cx=".593" cy=".593" r="1"/>
        <circle cx=".593" cy="2.502" r="1"/>
      </g>
    </g>
    <g stroke="#222F3C" stroke-width=".5" transform="translate(63.347 55.956)">
      <path d="M48.4179688,3.54296875 C48.4179688,1.5859375 46.8319092,0 44.8759766,0 L3.54296875,0 C1.58691406,0 0,1.5859375 0,3.54296875 L0,26.7189941 C0,28.6750488 1.58691406,30.2609863 3.54296875,30.2609863 L15.664917,30.2609863"/>
      <rect width="12.104" height="4.035" x="18.157" y=".102"/>
    </g>
    <rect width="320" height="160" x=".692" y=".581" stroke="#FFF" stroke-width=".5"/>
  </g>
</svg>
