<svg xmlns="http://www.w3.org/2000/svg" width="320" height="161" viewBox="0 0 320 161">
  <g fill="none" fill-rule="evenodd" transform="translate(-.143 .598)">
    <g transform="translate(127.905 52)">
      <g fill-rule="nonzero" transform="translate(0 9.673)">
        <text fill="#333838" font-family="GaramondPremrPro-Smbd, Garamond Premier Pro" font-size="7" font-weight="500">
          <tspan x="18.359" y="30.729">SCHOOL</tspan>
        </text>
        <path stroke="#222F3C" stroke-linecap="round" stroke-linejoin="round" stroke-width=".5" d="M27.6619873,19.7999268 C27.8989258,19.7999268 28.0919189,19.6069336 28.0919189,19.3679199 L28.0919189,17.276001 C28.0919189,16.9370117 27.8189697,16.6629639 27.4819336,16.6629639 L22.9089355,16.6629639 L22.9089355,0.613037109 C22.9089355,0.275024414 22.6350098,0 22.2989502,0 L14.0458984,0 L5.79296875,0 C5.45690918,0 5.1829834,0.275024414 5.1829834,0.613037109 L5.1829834,16.6629639 L0.609985352,16.6629639 C0.272949219,16.6629639 0,16.9370117 0,17.276001 L0,19.3679199 C0,19.6069336 0.192993164,19.7999268 0.430908203,19.7999268" transform="translate(18.909 39.65)"/>
        <path stroke="#222F3C" stroke-width=".5" d="M34.4720049,6.40002441 C35.6559648,6.40002441 36.5819902,6.10205078 37.3979082,5.8380127 C38.0700273,5.62194824 38.6499834,5.43395996 39.269002,5.43395996 C39.8990068,5.43395996 40.506917,5.6340332 41.1869707,6.06396484 C41.2599687,6.10998535 41.3460283,6.1340332 41.4329424,6.1340332 C41.5109453,6.1340332 41.5869951,6.11499023 41.657918,6.0760498 C41.8059893,5.99499512 41.8979082,5.83898926 41.8979082,5.67004395 L41.8979082,0.678955078 C41.8979082,0.50402832 41.8009844,0.345947266 41.6459551,0.265014648 C41.2969561,0.0870361328 40.9159746,0 40.4789629,0 C39.7979326,0 39.0769854,0.213989258 38.3139238,0.440063477 C37.4369707,0.699951172 36.5309648,0.968994141 35.5539141,0.968994141 L35.5539141,0.968994141 C34.7469072,0.968994141 34.0019121,0.781982422 33.2740068,0.395996094 C33.131917,0.322021484 32.9529619,0.327026367 32.815999,0.409057617 C32.6779375,0.494018555 32.592,0.645996094 32.592,0.807983398 L32.592,10.3620605"/>
        <path stroke="#222F3C" stroke-linecap="round" stroke-linejoin="round" stroke-width=".5" d="M0,18.9772949 L0,15.7431641 L32.5853271,0 L65.90979,15.7745361 L65.90979,19.020752" transform="translate(0 10.147)"/>
        <path stroke="#222F3C" stroke-linecap="round" stroke-linejoin="round" stroke-width=".5" d="M0,45.418335 L0,14.1688232 L29.3269043,0 L59.3188477,14.1971436 L59.3188477,45.4573975" transform="translate(3.296 13.793)"/>
      </g>
      <g transform="translate(62.609 29.454)">
        <g transform="translate(0 11.002)">
          <path stroke="#222F3C" stroke-linecap="round" stroke-linejoin="round" stroke-width=".5" d="M28.4272295,2.02905273 C27.605208,1.20800781 26.6932207,0.534057617 25.7242266,0 L14.1602617,0 C13.1912676,0.534057617 12.2781816,1.20800781 11.4572588,2.02905273 C6.77024707,6.71508789 6.77024707,14.3140869 11.4572588,19 C16.1431719,23.6860352 23.7411943,23.6860352 28.4272295,19 C33.1132646,14.3140869 33.1132646,6.71606445 28.4272295,2.02905273 Z"/>
          <g fill-rule="nonzero" stroke="#222F3C" stroke-linecap="round" stroke-linejoin="round" stroke-width=".5" transform="translate(18.469 10.186)">
            <line x1="2.003" x2="4.213" y1=".807" y2="2.861"/>
            <line x2=".942" y1="1.862" y2=".92"/>
            <circle cx="1.555" cy=".5" r="1"/>
          </g>
          <circle cx="19.942" cy="10.515" r="10" stroke="#222F3C" stroke-linecap="round" stroke-linejoin="round" stroke-width=".25"/>
          <g fill-rule="nonzero" stroke="#222F3C" stroke-linecap="round" stroke-linejoin="round" stroke-width=".5" transform="translate(28.427 17.719)">
            <path d="M0 1.281C2.35095215 3.63207422 6.1619873 3.63207422 8.51403809 1.281M9.57375464.219818115C9.28078589-.0732727051 8.8058103-.0732727051 8.51381812.219818115 8.22072729.512786865 8.22072729.987762451 8.51381812 1.2807312 8.80678687 1.57272339 9.28078589 1.57272339 9.57375464 1.2807312 9.86672339.987762451 9.86672339.512786865 9.57375464.219818115z"/>
          </g>
          <g fill-rule="nonzero" stroke="#222F3C" stroke-linecap="round" stroke-linejoin="round" stroke-width=".5" transform="translate(0 13.14)">
            <path d="M9.51506934 3.2902539C8.00603613.327241205 4.3820127-.851713873 1.419.656220698M.081818587 1.33685179C.269806868 1.70587034.721833235 1.852843 1.09072972 1.66485472 1.45877171 1.47686644 1.60574437 1.02484007 1.41873265.655821517 1.22976781.286802962.778840071.139830306.409821517.327818587.040802962.515806868-.106169694.967833235.081818587 1.33685179z"/>
          </g>
          <line x2="8.6" y1="13.064" stroke="#222F3C" stroke-linecap="round" stroke-linejoin="round" stroke-width=".5" transform="translate(37.985 4.701)"/>
        </g>
        <g fill-rule="nonzero" stroke="#222F3C" stroke-linecap="round" stroke-linejoin="round" stroke-width=".5" transform="translate(7.942)">
          <path d="M18.0447998,6.0625 L24,4.09509277 L12,0 L0,4.09509277 L5.99353027,6.0625"/>
          <path d="M18,4.0950293 L18,10.9750342 L6,10.9750342 L6,4.0950293 L6,4.10210938 C6,3.52911133 8.68603516,3.065 12,3.065 C15.3139648,3.065 18,3.52911133 18,4.10210938 L18,4.0950293 Z"/>
        </g>
        <path fill="#222F3C" fill-rule="nonzero" d="M19.5709478,29.4328358 C19.5509283,29.2228749 19.711939,29.0428211 19.9218999,29.0328114 L19.9218999,29.0328114 C20.1208745,29.0228016 20.3009283,29.1828358 20.3119146,29.382909 L20.3119146,29.382909 C20.3209478,29.59287 20.1718999,29.7728016 19.961939,29.7828114 L19.961939,29.7828114 L19.961939,29.7828114 L19.961939,29.7828114 L19.9419195,29.7828114 L19.9419195,29.7828114 C19.7408697,29.7828114 19.5819341,29.632909 19.5709478,29.4328358 Z M15.8918706,28.6998036 C15.7019292,28.639867 15.5919439,28.4299061 15.6509038,28.2298329 L15.6509038,28.2298329 C15.7219488,28.0298817 15.9319097,27.9198963 16.1308843,27.9898426 L16.1308843,27.9898426 C16.3219243,28.0499012 16.4319097,28.2598622 16.3718511,28.4598133 L16.3718511,28.4598133 C16.3219243,28.6198475 16.1709234,28.7198231 16.0118658,28.7198231 L16.0118658,28.7198231 C15.9719488,28.7198231 15.9319097,28.7098133 15.8918706,28.6998036 Z M23.5438482,28.5278065 C23.4548589,28.3378651 23.534937,28.1178944 23.7248784,28.0278065 L23.7248784,28.0278065 C23.9039556,27.9378407 24.1349126,28.0177967 24.2248784,28.2078602 L24.2248784,28.2078602 C24.3049566,28.3877918 24.2248784,28.6178944 24.0438482,28.6978504 L24.0438482,28.6978504 C23.994898,28.7278797 23.9349615,28.7378895 23.8849126,28.7378895 L23.8849126,28.7378895 C23.744898,28.7378895 23.6039068,28.6578114 23.5438482,28.5278065 Z M12.7508794,25.6208241 C12.6509038,25.441869 12.7109624,25.2107899 12.8908941,25.1117909 L12.8908941,25.1117909 C13.0809576,25.0108387 13.310938,25.0809071 13.4109136,25.2608387 L13.4109136,25.2608387 C13.5008794,25.441869 13.4409429,25.6718495 13.2608892,25.7708485 L13.2608892,25.7708485 C13.2009527,25.8008778 13.1408941,25.8218739 13.0809576,25.8218739 L13.0809576,25.8218739 C12.9409429,25.8108875 12.8209478,25.7408192 12.7508794,25.6208241 Z M26.645899,25.7958729 C26.4559576,25.7258045 26.3558599,25.5058338 26.435938,25.3158924 L26.435938,25.3158924 C26.5058843,25.1158192 26.725855,25.0258534 26.9259283,25.1058094 L26.9259283,25.1058094 C27.1158697,25.1758778 27.2059576,25.3958485 27.1358892,25.5857899 L27.1358892,25.5857899 C27.0759527,25.7358143 26.935938,25.8259022 26.7859136,25.8259022 L26.7859136,25.8259022 C26.7358648,25.8259022 26.685938,25.8158924 26.645899,25.7958729 Z M11.6979009,21.5428211 L11.6979009,21.5428211 L11.6979009,21.5428211 C11.6778814,21.3328602 11.817896,21.1528065 12.027857,21.1228993 L12.027857,21.1228993 C12.2279302,21.1028797 12.4178716,21.2428944 12.4479009,21.4528553 L12.4479009,21.4528553 C12.4679204,21.6528065 12.3279058,21.84287 12.1179449,21.8728993 L12.1179449,21.8728993 L12.067896,21.8728993 L12.067896,21.8728993 C11.8878423,21.8728993 11.7279302,21.7328846 11.6979009,21.5428211 Z M27.5759527,21.500829 L27.5759527,21.500829 C27.5759527,21.290868 27.7458745,21.1198475 27.9459478,21.1198475 L27.9459478,21.1198475 C28.1549322,21.1198475 28.3259527,21.290868 28.3259527,21.500829 L28.3259527,21.500829 C28.3259527,21.6998036 28.1549322,21.8698475 27.9459478,21.8698475 L27.9459478,21.8698475 C27.7458745,21.8698475 27.5759527,21.6998036 27.5759527,21.500829 Z M12.9309331,17.8578846 C12.7618658,17.7388661 12.7319585,17.5088856 12.850855,17.3378651 L12.850855,17.3378651 C12.9708501,17.1678211 13.2009527,17.1388905 13.3708745,17.2588856 L13.3708745,17.2588856 C13.5409185,17.3779041 13.5809576,17.6078846 13.4509527,17.7789051 L13.4509527,17.7789051 C13.3818609,17.8779041 13.270899,17.9378407 13.1518804,17.9378407 L13.1518804,17.9378407 C13.0719243,17.9378407 13.0008794,17.90891 12.9309331,17.8578846 Z M26.4858648,17.7887928 L26.4858648,17.7887928 C26.3658697,17.6188709 26.395899,17.3788807 26.5659429,17.2588856 L26.5659429,17.2588856 C26.7358648,17.1388905 26.9658452,17.1788075 27.0958501,17.3488514 L27.0958501,17.3488514 C27.2158452,17.5088856 27.1759283,17.7488758 27.0058843,17.8688709 L27.0058843,17.8688709 C26.9459478,17.9187977 26.8658697,17.9388172 26.7859136,17.9388172 L26.7859136,17.9388172 C26.6759283,17.9388172 26.5559331,17.8888905 26.4858648,17.7887928 Z M15.692896,14.8698475 C15.5829107,14.6998036 15.6329595,14.4598133 15.8028814,14.349828 L15.8028814,14.349828 C15.9829351,14.2388661 16.2129156,14.2898915 16.3229009,14.4698231 L16.3229009,14.4698231 C16.4328863,14.639867 16.3829595,14.8698475 16.2029058,14.9888661 L16.2029058,14.9888661 C16.1428472,15.0198719 16.0729009,15.0398915 16.0029546,15.0398915 L16.0029546,15.0398915 C15.8829595,15.0398915 15.7628423,14.9798329 15.692896,14.8698475 Z M23.7229253,15.0068104 C23.5428716,14.8978016 23.4929449,14.6678211 23.6029302,14.4867909 L23.6029302,14.4867909 C23.7129156,14.316869 23.9529058,14.2668202 24.1229497,14.3779041 L24.1229497,14.3779041 C24.2928716,14.4867909 24.3529302,14.7168934 24.2429449,14.8978016 L24.2429449,14.8978016 C24.1628667,15.0068104 24.0428716,15.066869 23.9228765,15.066869 L23.9228765,15.066869 C23.8529302,15.066869 23.7828618,15.0468495 23.7229253,15.0068104 Z M19.8918706,14.0508778 C19.6819097,14.0098622 19.5519048,13.8108875 19.5919439,13.6108143 L19.5919439,13.6108143 C19.6308843,13.4098866 19.8219243,13.2708485 20.0318853,13.3108875 L20.0318853,13.3108875 C20.2308599,13.349828 20.3619634,13.5508778 20.3319341,13.750829 L20.3319341,13.750829 C20.2909185,13.9299061 20.1308843,14.0508778 19.9519292,14.0508778 L19.9519292,14.0508778 L19.8918706,14.0508778 Z"/>
        <g fill-rule="nonzero" stroke="#222F3C" stroke-linejoin="round" stroke-width=".5" transform="translate(15.771 17.662)">
          <path d="M2.71801758 0C2.71801758.634033203 2.10900879 1.14807129 1.35900879 1.14807129.608032227 1.14807129 0 .634033203 0 0M8.56701758 0C8.56701758.634033203 7.95898535 1.14807129 7.20800879 1.14807129 6.45800879 1.14807129 5.849.634033203 5.849 0"/>
        </g>
        <line x1="24.225" x2="24.225" y1="19.704" y2="22.304" stroke="#222F3C" stroke-linecap="round" stroke-width=".5"/>
      </g>
      <g fill-rule="nonzero" stroke="#222F3C" stroke-width=".5" transform="translate(11.961)">
        <path d="M34.4710049,6.40002441 C35.6560635,6.40002441 36.5809902,6.10192871 37.3970303,5.8380127 C38.0690273,5.62194824 38.64996,5.43395996 39.268002,5.43395996 C39.8980068,5.43395996 40.5070156,5.6340332 41.1859707,6.06396484 C41.2600674,6.10998535 41.3450283,6.1340332 41.433041,6.1340332 C41.5100674,6.1340332 41.5859951,6.11499023 41.6580166,6.07592773 C41.8049893,5.99499512 41.8970303,5.83898926 41.8970303,5.66992188 L41.8970303,0.678955078 C41.8970303,0.50402832 41.8009609,0.345947266 41.6449551,0.265014648 C41.2959561,0.0870361328 40.9149746,0 40.4790615,0 C39.7970547,0 39.0769619,0.213989258 38.3130459,0.439941406 C37.4369473,0.699951172 36.5299648,0.968994141 35.5530361,0.968994141 L35.5530361,0.968994141 C34.7470059,0.968994141 34.0010342,0.781982422 33.2730068,0.395996094 C33.1310391,0.322021484 32.9530605,0.327026367 32.814999,0.408935547 C32.6770596,0.494018555 32.591,0.645996094 32.591,0.807983398 L32.591,10.3619385"/>
        <g stroke-linecap="round" stroke-linejoin="round" transform="translate(0 10.147)">
          <path d="M32.5853154,0.000493164062 L65.9096562,15.7751514 L65.9096562,19.0213672"/>
          <line x1="30.211" x2="32.585" y1="1.248"/>
          <line x2="20.568" y1="15.743" y2="5.778"/>
        </g>
      </g>
    </g>
    <g fill-rule="nonzero" stroke="#222F3C" stroke-width=".5" transform="translate(59.647 85.865)">
      <g transform="translate(19.807)">
        <path d="M15.0591807 39.271L15.0591807 44.3515664 17.8726572 44.3515664 18.2032236 39.271 15.0591807 39.271zM7.32918066 39.271L7.659625 44.3515664 10.4732236 44.3515664 10.4732236 39.271 7.32918066 39.271zM20.9421426 9.70403125C20.6351357 9.62700488 20.3361855 9.5450957 20.0811807 9.45500781 17.5081826 8.55803516 15.9711953 7.23406055 15.2791787 5.747 13.8671914 7.72099902 10.6572305 9.10002734 6.91724023 9.10002734 6.2541543 9.10002734 5.50317773 9.05608203 4.76416406 8.97307422 4.56518945 9.65703418 4.45618066 10.3770049 4.45618066 11.122 4.45618066 15.5200713 8.17615137 19.0859893 12.7662393 19.0859893 17.3562051 19.0859893 21.0761758 15.5200713 21.0761758 11.122 21.0761758 10.6379912 21.0291787 10.1639922 20.9421426 9.70403125zM15.0587158 44.3518193L17.709464 44.3518193C18.6194964 44.3518193 19.3572235 45.0895464 19.3572235 45.9995789L19.3572235 45.9995806 19.3572235 45.9995806 15.0587158 45.9995806 15.0587158 44.3518193z"/>
        <path d="M6.17518066,44.352 L10.4736884,44.352 L10.4736884,44.3520017 C10.4736884,45.2620341 9.73596127,45.9997612 8.8259288,45.9997612 L6.17518066,45.9997612 L6.17518066,45.9997612 L6.17518066,44.352 Z" transform="rotate(180 8.324 45.176)"/>
        <path d="M12.7529287,35.5083193 L12.7529287,39.2707705 L19.0701895,39.2707705 L19.0701895,30.131 L6.46118066,30.131 L6.46118066,39.2707705 L12.7784414,39.2707705 L12.7784414,35.5497012"/>
        <g transform="translate(3.023 10.854)">
          <path d="M1.4329834.267944336C1.4329834.177978516 1.43701172.0889892578 1.43994141 0 .63293457.0660400391 0 .713989258 0 1.50402832 0 2.3380127.704956055 3.01403809 1.57592773 3.01403809L1.93994141 3.01403809C1.61193848 2.15795898 1.4329834 1.23303223 1.4329834.267944336zM18.046 0C18.0489297.0889892578 18.052958.177978516 18.052958.267944336 18.052958 1.23303223 17.8740029 2.15795898 17.546 3.01403809L17.9100137 3.01403809C18.7809854 3.01403809 19.4859414 2.3380127 19.4859414 1.50402832 19.4859414.713989258 18.8530068.0660400391 18.046 0z"/>
        </g>
        <g transform="translate(7.894 11.74)">
          <path d="M9.74403711 0C9.74403711.493041992 9.32704492.891967773 8.81203027.891967773 8.29799219.891967773 7.881.493041992 7.881 0M1.86303711 0C1.86303711.493041992 1.44604492.891967773.932006836.891967773.416992188.891967773 0 .493041992 0 0"/>
        </g>
        <path d="M11.1901807 15.543C11.1901807 16.3779609 11.8962354 17.0539863 12.7662305 17.0539863 13.6362256 17.0539863 14.3421582 16.3779609 14.3421582 15.543M22.4081709 22.6610107C21.4961836 20.7860107 19.9501631 19.3210449 18.0131514 18.4730225 17.759123 18.3170166 17.4721357 18.2080078 17.1631758 18.157959 17.0621016 18.1369629 16.9611494 18.125 16.8581221 18.125 16.8421309 18.125 16.8280928 18.1259766 16.8132002 18.1269531L16.778166 18.125 16.7271406 18.125C15.5501387 18.7380371 14.2001631 19.0859375 12.7662031 19.0859375 11.3321211 19.0859375 9.98214551 18.7380371 8.80514355 18.125L8.75411816 18.125 8.71920605 18.1269531C8.70419141 18.1259766 8.68917676 18.125 8.67416211 18.125 8.57113477 18.125 8.47018262 18.1369629 8.3691084 18.157959 8.06014844 18.2080078 7.77316113 18.3170166 7.51913281 18.4730225 5.58212109 19.3210449 4.03610059 20.7860107 3.12411328 22.6610107 3.05013867 22.8129883 2.98214551 22.9659424 2.91818066 23.1209717L5.72616406 23.7469482C5.92916699 23.342041 6.1770918 22.9659424 6.46212598 22.6230469L6.46212598 30.1379395 19.0701582 30.1379395 19.0701582 22.6230469C19.3551924 22.9659424 19.6031172 23.342041 19.8061201 23.7469482L22.6141035 23.1209717C22.5501387 22.9659424 22.4821455 22.8129883 22.4081709 22.6610107zM12.766291 0C7.67327344 0 3.53826367 3.91796875 3.45623242 8.7800293 3.45623242 8.82800293 3.45318066 8.87597656 3.45318066 8.92492676 3.45318066 9.6739502 3.55022656 10.4019775 3.7322334 11.0970459 3.94524609 10.9620361 4.19426953 10.8759766 4.46319043 10.8530273 4.48528516 10.2039795 4.58928906 9.57397461 4.76421582 8.9720459 5.50322949 9.05603027 6.25420605 9.09997559 6.91729199 9.09997559 10.6572822 9.09997559 13.8682197 7.72094727 15.2792305 5.74694824 15.9712471 7.23400879 17.5082344 8.5579834 20.0812324 9.45495605 20.3372139 9.54504395 20.6351875 9.62695312 20.9421943 9.70397949 21.0132393 10.0789795 21.056208 10.4620361 21.0692695 10.8530273 21.3381904 10.8759766 21.5872139 10.9620361 21.8002266 11.0970459 21.898249 10.7230225 21.9702705 10.3399658 22.0172676 9.94897461 22.0582832 9.61303711 22.0792793 9.27197266 22.0792793 8.92492676 22.0792793 3.99597168 17.9102119 0 12.766291 0z"/>
        <path d="M20.5061904,27.913999 C20.7171279,27.8140234 20.9541885,27.75604 21.205165,27.75604 C21.8151504,27.75604 22.3421279,28.0880713 22.6051895,28.5730566 C23.1501113,26.742002 23.0061904,24.8550391 22.3041641,23.19 L20.1211807,23.676084 C20.7500869,24.966001 20.9181777,26.4609961 20.5061904,27.913999 Z"/>
        <ellipse cx="21.206" cy="29.266" rx="1.576" ry="1.51"/>
        <path d="M2.27815137,27.2869902 C2.05317578,27.178958 1.66914258,27.1209746 1.43318066,27.1209746 C2.47712598,25.9959746 3.16816602,24.5949736 3.20515332,23.172 L5.38508496,23.6679717 C5.2401875,25.4589873 4.49116406,27.2099639 3.15107617,28.6159697 C3.14216504,28.0699492 2.82417188,27.547 2.27815137,27.2869902 Z"/>
        <ellipse cx="1.576" cy="28.639" rx="1.576" ry="1.51"/>
      </g>
      <g transform="translate(0 .05)">
        <path d="M17.486,9.45600781 C14.9139785,8.55903516 13.3769912,7.23506055 12.683998,5.748 C11.2729873,7.72102246 8.06302637,9.10102734 4.32303613,9.10102734 C3.69498437,9.10102734 2.94400781,8.99299512 2.20499414,8.85700879 C1.98294824,9.57502637 1.861,10.3350361 1.861,11.123 C1.861,15.5210713 5.58194727,19.0869893 10.1720352,19.0869893 C14.762001,19.0869893 18.4819717,15.5210713 18.4819717,11.123 C18.4819717,10.6320332 18.433998,10.1530293 18.3450088,9.68696484 C18.0249404,9.61506543 17.7219619,9.53803906 17.486,9.45600781 Z"/>
        <g transform="translate(3.581 39.248)">
          <path d="M8.88341211,5.05381934 L11.5341598,5.05381934 C12.4441922,5.05381934 13.1819193,5.79154642 13.1819193,6.70157889 L13.1819193,6.70158056 L13.1819193,6.70158056 L8.88341211,6.70158056 L8.88341211,5.05381934 Z"/>
          <path d="M2.27373675e-13,5.054 L4.29850769,5.054 L4.29850769,5.05400179 C4.29850769,5.9640342 3.56078066,6.70176123 2.65074825,6.70176123 L2.27373675e-13,6.70176123 L2.27373675e-13,6.70176123 L2.27373675e-13,5.054 Z" transform="rotate(180 2.15 5.878)"/>
          <path d="M8.883.034L8.883 5.05426367 11.6964766 5.05426367 12.0230146.034 8.883.034zM1.156 0L1.48473535 5.05407715 4.29833398 5.05407715 4.29833398 0 1.156 0z"/>
        </g>
        <path d="M3.86784082 30.113L3.231 39.2305537 17.1135684 39.2305537 16.4768496 30.113 3.86784082 30.113zM18.3390547 13.8689795L17.9740645 13.8689795C17.2739912 15.6950293 15.8970381 17.2079688 14.133 18.1260596L14.1840254 18.1260596 14.2190596 18.1270361C14.2339521 18.1270361 14.2479902 18.1260596 14.2630049 18.1260596 14.3660322 18.1260596 14.4679609 18.1380225 14.5690352 18.1590186 14.8779951 18.2090674 15.1649824 18.3180762 15.4190107 18.474082 16.2830244 18.8520117 17.0680586 19.3539648 17.7549482 19.9590674 18.8360029 17.9460059 19.3429609 15.5270605 19.5780684 13.29 19.2899824 13.6420508 18.8419844 13.8689795 18.3390547 13.8689795zM2.3700791 13.8689326L2.0049668 13.8689326C1.50008398 13.8689326 1.05208594 13.6410273.764 13.288.998985352 15.5249385 1.50801855 17.9449824 2.58907324 19.9590205 3.27608496 19.353918 4.06099707 18.8519648 4.92501074 18.4740352 5.1780625 18.3180293 5.46602637 18.2090205 5.77498633 18.1589717 5.87508398 18.1379756 5.9770127 18.1260127 6.08004004 18.1260127 6.09505469 18.1260127 6.11006934 18.1269893 6.12508398 18.1269893L6.15999609 18.1260127 6.21102148 18.1260127C4.4469834 17.2079219 3.07003027 15.6949824 2.3700791 13.8689326z"/>
        <g transform="translate(.429 10.855)">
          <path d="M1.43200684.267944336C1.43200684.177978516 1.43603516.0889892578 1.43896484 0 .63293457.0659179688 0 .713012695 0 1.50390625 0 2.3380127.704956055 3.01391602 1.57592773 3.01391602L1.93994141 3.01391602C1.61193848 2.15795898 1.43200684 1.23291016 1.43200684.267944336zM18.046 0C18.0489297.0889892578 18.052958.177978516 18.052958.267944336 18.052958 1.23291016 17.8740029 2.15795898 17.546 3.01391602L17.9100137 3.01391602C18.7800088 3.01391602 19.4859414 2.3380127 19.4859414 1.50390625 19.4859414.713012695 18.8530068.0659179688 18.046 0z"/>
        </g>
        <g transform="translate(5.3 11.741)">
          <path d="M9.74306055.891967773C9.74306055.398925781 9.32704492 0 8.81203027 0 8.29799219 0 7.881.398925781 7.881.891967773M1.86303711.891967773C1.86303711.398925781 1.44604492 0 .932006836 0 .416992188 0 0 .398925781 0 .891967773"/>
        </g>
        <path d="M8.596 15.544C8.596 16.3779844 9.30095605 17.0549863 10.1720498 17.0549863 11.0420449 17.0549863 11.7479775 16.3779844 11.7479775 15.544M10.1720977 0C5.10410449 0 .956033203 3.76403809.600076172 8.53405762.582986328 8.75402832.572 8.97607422.572 9.20007324.572 9.91906738.585061523 10.7390137.632058594 11.6170654.881082031 11.1950684 1.33603809 10.8990479 1.86704395 10.8551025 1.8910918 10.1630859 2.00803516 9.49304199 2.20505664 8.85705566L2.20310352 8.8560791C2.94309375 8.99206543 3.69504687 9.10107422 4.32309863 9.10107422 8.06308887 9.10107422 11.2730498 7.72106934 12.6840605 5.74804688 13.3770537 7.23510742 14.914041 8.55908203 17.4860625 9.45605469 17.7220244 9.53808594 18.0250029 9.6151123 18.3450713 9.68701172 18.4170928 10.0670166 18.4610381 10.4570313 18.4760527 10.8551025 19.006082 10.8980713 19.4610381 11.1940918 19.7110381 11.6160889 19.7420439 11.0421143 19.7590117 10.4910889 19.7660918 9.97900391 19.769998 9.70910645 19.7720732 9.44812012 19.7720732 9.20007324 19.7720732 4.11901855 15.4740996 0 10.1720977 0zM1.73164341 27.75704C1.98359654 27.75704 2.22065709 27.8150234 2.43159459 27.914999 2.01960728 26.4619961 2.1876981 24.967001 2.81660435 23.6769619L.633620952 23.191C-.0693819773 24.8560391-.213302876 26.743002.332595562 28.5740566.594680523 28.0890713 1.12263462 27.75704 1.73164341 27.75704z"/>
        <ellipse cx="1.732" cy="29.267" rx="1.576" ry="1.51"/>
        <path d="M19.8139668,22.6609121 C18.9019795,20.7870107 17.355959,19.3219229 15.4189473,18.4740225 C15.1649189,18.3180166 14.8779316,18.2090078 14.5689717,18.158959 C14.4678975,18.1379629 14.3659687,18.126 14.2629414,18.126 C14.2479268,18.126 14.2338887,18.1269766 14.2189961,18.1269766 L14.1839619,18.126 L14.1329365,18.126 C12.954958,18.738915 11.605959,19.0869375 10.171999,19.0869375 C8.73791699,19.0869375 7.38794141,18.738915 6.21093945,18.126 L6.15991406,18.126 L6.12500195,18.1269766 C6.1099873,18.1269766 6.09497266,18.126 6.07995801,18.126 C5.97693066,18.126 5.87500195,18.1379629 5.7749043,18.158959 C5.46594434,18.2090078 5.17798047,18.3180166 4.92492871,18.4740225 C2.98791699,19.3219229 1.44091992,20.7870107 0.528932617,22.6609121 C0.454958008,22.8130117 0.387941406,22.9669424 0.323,23.1219717 L3.13195996,23.7469717 C3.33496289,23.3419424 3.5828877,22.9669424 3.86694531,22.6229482 L3.86694531,30.165917 L16.4759541,30.165917 L16.4759541,22.6229482 C16.7609883,22.9669424 17.0089131,23.3419424 17.211916,23.7469717 L20.0198994,23.1219717 C19.9559346,22.9669424 19.8879414,22.8130117 19.8139668,22.6609121 Z"/>
        <path d="M20.6880557,27.3149902 C20.9130312,27.206958 21.298041,27.1489746 21.5330264,27.1489746 C20.488959,26.0239746 19.798041,24.6229736 19.7610537,23.2 L17.581,23.6959717 C17.7269961,25.4869873 18.475043,27.2379639 19.8150088,28.6439697 C19.8250186,28.0979492 20.1420352,27.575 20.6880557,27.3149902 Z"/>
        <ellipse cx="21.39" cy="28.667" rx="1.576" ry="1.51"/>
      </g>
    </g>
    <path fill="#333838" fill-rule="nonzero" d="M230.133282,58.825 C230.320282,58.825 230.463282,58.682 230.463282,58.539 C230.463282,58.396 230.353282,58.319 230.243282,58.308 C229.946282,58.231 229.836282,58.099 229.836282,57.868 C229.836282,57.516 230.078282,57.296 230.408282,57.12 C230.474282,57.098 230.529282,57.065 230.529282,57.043 C230.529282,56.988 230.485282,56.988 230.430282,56.988 C230.254282,56.988 229.451282,57.296 229.451282,58.066 C229.451282,58.462 229.715282,58.825 230.133282,58.825 Z M231.508282,58.825 C231.684282,58.825 231.849282,58.682 231.849282,58.539 C231.849282,58.396 231.728282,58.319 231.629282,58.308 C231.332282,58.231 231.211282,58.099 231.211282,57.868 C231.211282,57.527 231.464282,57.296 231.794282,57.12 C231.860282,57.098 231.904282,57.065 231.904282,57.043 C231.904282,57.01 231.860282,56.988 231.805282,56.988 C231.651282,56.988 230.815282,57.296 230.815282,58.066 C230.815282,58.462 231.090282,58.825 231.508282,58.825 Z M239.120282,64.611 C239.175282,64.611 239.208282,64.545 239.285282,64.358 C239.791282,63.148 240.682282,61.069 241.375282,59.551 C242.068282,57.989 242.266282,57.758 242.728282,57.637 C242.926282,57.604 242.981282,57.56 242.981282,57.516 C242.981282,57.472 242.926282,57.461 242.783282,57.461 C242.585282,57.461 242.288282,57.505 241.980282,57.505 C241.650282,57.505 241.496282,57.461 241.210282,57.461 C241.056282,57.461 241.023282,57.483 241.023282,57.527 C241.023282,57.571 241.089282,57.593 241.265282,57.648 C241.628282,57.758 241.639282,57.945 241.584282,58.187 C241.353282,59.001 240.022282,62.081 239.494282,63.225 C239.461282,63.291 239.439282,63.302 239.395282,63.225 C239.021282,62.4 238.537282,61.355 238.262282,60.706 C238.240282,60.651 238.240282,60.596 238.251282,60.574 C238.438282,60.233 238.977282,59.144 239.263282,58.594 C239.626282,57.956 239.835282,57.725 240.242282,57.637 C240.396282,57.604 240.451282,57.571 240.451282,57.516 C240.451282,57.472 240.396282,57.461 240.264282,57.461 C240.011282,57.461 239.835282,57.505 239.450282,57.505 C239.164282,57.505 238.988282,57.472 238.713282,57.472 C238.581282,57.472 238.515282,57.494 238.515282,57.527 C238.515282,57.571 238.548282,57.615 238.746282,57.659 C239.219282,57.769 239.230282,57.879 238.889282,58.682 C238.658282,59.221 238.427282,59.727 238.163282,60.266 C238.130282,60.321 238.086282,60.31 238.075282,60.288 C237.712282,59.452 237.382282,58.704 237.206282,58.242 C237.041282,57.835 237.151282,57.703 237.448282,57.648 C237.591282,57.615 237.657282,57.582 237.657282,57.527 C237.657282,57.483 237.580282,57.461 237.470282,57.461 C237.217282,57.461 236.964282,57.505 236.568282,57.505 C236.172282,57.505 235.963282,57.461 235.644282,57.461 C235.501282,57.461 235.435282,57.494 235.435282,57.527 C235.435282,57.582 235.490282,57.626 235.666282,57.659 C236.007282,57.747 236.095282,57.879 236.414282,58.561 C236.656282,59.089 237.393282,60.761 237.569282,61.179 C237.569282,61.201 237.569282,61.278 237.547282,61.311 C237.250282,62.015 236.986282,62.565 236.678282,63.192 C236.645282,63.247 236.601282,63.269 236.568282,63.192 C235.820282,61.542 234.731282,59.199 234.269282,58.055 C234.192282,57.857 234.192282,57.725 234.500282,57.67 C234.632282,57.648 234.698282,57.615 234.698282,57.56 C234.698282,57.516 234.632282,57.483 234.478282,57.483 C234.247282,57.483 233.983282,57.505 233.741282,57.505 C233.411282,57.505 232.960282,57.461 232.696282,57.461 C232.553282,57.461 232.476282,57.505 232.476282,57.538 C232.476282,57.582 232.575282,57.626 232.707282,57.637 C233.125282,57.692 233.213282,57.89 233.609282,58.748 C234.126282,59.826 234.863282,61.454 235.468282,62.851 C235.611282,63.181 235.952282,63.984 236.095282,64.347 C236.172282,64.545 236.194282,64.611 236.260282,64.611 C236.304282,64.611 236.370282,64.523 236.436282,64.347 C236.678282,63.709 237.261282,62.422 237.679282,61.608 C237.701282,61.575 237.734282,61.575 237.756282,61.619 C238.075282,62.323 238.702282,63.687 238.933282,64.358 C238.999282,64.534 239.043282,64.611 239.120282,64.611 Z M243.641282,64.523 C244.268282,64.523 244.730282,64.303 245.170282,63.83 C245.236282,63.753 245.280282,63.687 245.280282,63.654 C245.280282,63.599 245.236282,63.577 245.148282,63.665 C244.884282,63.918 244.554282,64.017 244.103282,64.017 C243.740282,64.017 243.300282,63.896 243.003282,63.566 C242.717282,63.247 242.497282,62.796 242.497282,62.235 C242.497282,61.927 242.530282,61.762 242.585282,61.63 C242.607282,61.597 242.662282,61.542 242.684282,61.542 L243.278282,61.542 C243.531282,61.542 244.961282,61.564 245.049282,61.575 C245.104282,61.575 245.159282,61.509 245.159282,61.454 C245.159282,60.783 244.466282,60.332 243.817282,60.332 C243.245282,60.332 242.739282,60.596 242.442282,60.882 C241.980282,61.333 241.804282,61.982 241.804282,62.488 C241.804282,63.082 242.002282,63.61 242.332282,63.962 C242.662282,64.314 243.124282,64.523 243.641282,64.523 Z M242.728282,61.388 C242.706282,61.388 242.684282,61.366 242.684282,61.344 C242.684282,61.256 242.783282,61.047 242.915282,60.893 C243.157282,60.64 243.432282,60.486 243.718282,60.486 C243.971282,60.486 244.158282,60.585 244.268282,60.695 C244.389282,60.827 244.422282,61.025 244.422282,61.157 C244.422282,61.256 244.400282,61.377 244.158282,61.377 L242.728282,61.388 Z M252.892282,64.435 C253.057282,64.435 253.299282,64.402 253.563282,64.402 C253.816282,64.402 254.201282,64.424 254.322282,64.424 C254.454282,64.424 254.509282,64.402 254.509282,64.347 C254.509282,64.314 254.465282,64.281 254.311282,64.248 C254.069282,64.204 254.003282,64.127 253.992282,63.764 L253.948282,62.18 C253.948282,61.773 253.893282,61.355 253.816282,61.135 C253.673282,60.706 253.310282,60.332 252.705282,60.332 C252.155282,60.332 251.649282,60.629 251.198282,61.069 C251.176282,61.08 251.132282,61.069 251.121282,61.047 C250.879282,60.574 250.527282,60.343 250.021282,60.343 C249.548282,60.343 249.020282,60.662 248.657282,60.992 C248.613282,61.025 248.602282,60.959 248.602282,60.926 C248.591282,60.805 248.602282,60.519 248.602282,60.398 C248.602282,60.332 248.580282,60.288 248.547282,60.288 C248.503282,60.288 248.448282,60.31 248.382282,60.354 C248.206282,60.497 247.865282,60.629 247.634282,60.684 C247.546282,60.706 247.502282,60.728 247.502282,60.761 L247.513282,60.761 C247.513282,60.816 247.535282,60.838 247.612282,60.882 C247.788282,60.981 247.854282,61.08 247.865282,61.267 C247.887282,61.476 247.876282,61.751 247.876282,62.158 C247.876282,62.796 247.876282,63.687 247.832282,63.918 C247.810282,64.05 247.810282,64.171 247.469282,64.248 C247.315282,64.27 247.249282,64.303 247.249282,64.347 C247.249282,64.391 247.348282,64.424 247.447282,64.424 C247.590282,64.424 247.821282,64.402 248.162282,64.402 C248.426282,64.402 248.789282,64.424 248.998282,64.424 C249.075282,64.424 249.163282,64.402 249.163282,64.347 C249.163282,64.314 249.119282,64.281 248.998282,64.259 C248.734282,64.204 248.668282,64.072 248.646282,63.896 C248.624282,63.698 248.580282,62.928 248.580282,62.114 C248.580282,61.74 248.613282,61.487 248.624282,61.366 C248.635282,61.289 248.657282,61.179 248.756282,61.091 C248.921282,60.937 249.196282,60.75 249.581282,60.75 C249.922282,60.75 250.098282,60.849 250.252282,61.003 C250.472282,61.245 250.527282,61.498 250.527282,62.103 L250.516282,63.885 C250.516282,64.149 250.406282,64.204 250.175282,64.248 C250.032282,64.281 249.977282,64.325 249.977282,64.358 C249.977282,64.402 250.032282,64.424 250.153282,64.424 C250.274282,64.424 250.538282,64.402 250.780282,64.402 C251.099282,64.402 251.429282,64.424 251.627282,64.424 C251.748282,64.424 251.814282,64.402 251.814282,64.358 C251.814282,64.314 251.759282,64.303 251.638282,64.259 C251.363282,64.193 251.330282,64.116 251.297282,63.808 C251.275282,63.511 251.242282,61.828 251.220282,61.52 C251.220282,61.322 251.253282,61.201 251.297282,61.157 C251.484282,60.97 251.825282,60.75 252.232282,60.75 C252.771282,60.75 253.057282,61.025 253.156282,61.586 C253.200282,61.916 253.255282,62.444 253.233282,63.764 C253.233282,64.094 253.178282,64.193 252.859282,64.259 C252.771282,64.281 252.672282,64.314 252.672282,64.369 C252.672282,64.413 252.749282,64.435 252.892282,64.435 Z M255.884282,59.276 C256.027282,59.276 256.291282,59.155 256.291282,58.858 C256.291282,58.671 256.159282,58.44 255.906282,58.44 C255.730282,58.44 255.521282,58.594 255.521282,58.869 C255.521282,59.089 255.686282,59.276 255.884282,59.276 Z M256.489282,64.446 C256.577282,64.446 256.665282,64.424 256.665282,64.369 C256.665282,64.325 256.610282,64.303 256.500282,64.281 C256.324282,64.237 256.214282,64.182 256.192282,63.962 C256.170282,63.775 256.170282,62.961 256.170282,62.037 C256.170282,61.333 256.170282,60.662 256.192282,60.442 C256.203282,60.321 256.181282,60.288 256.148282,60.288 C256.126282,60.288 256.071282,60.31 255.983282,60.365 C255.752282,60.464 255.488282,60.574 255.191282,60.651 C255.092282,60.673 255.059282,60.706 255.059282,60.739 C255.059282,60.761 255.092282,60.794 255.147282,60.827 C255.455282,60.992 255.466282,61.058 255.466282,61.212 C255.466282,61.322 255.444282,63.324 255.433282,63.654 C255.422282,64.105 255.323282,64.193 255.081282,64.259 C254.927282,64.281 254.872282,64.314 254.872282,64.358 C254.872282,64.402 254.949282,64.424 255.026282,64.424 C255.147282,64.424 255.323282,64.402 255.686282,64.402 C255.983282,64.402 256.390282,64.446 256.489282,64.446 Z M258.227282,64.534 C258.491282,64.534 258.865282,64.446 259.107282,64.292 C259.327282,64.149 259.679282,63.852 259.679282,63.368 C259.679282,62.807 259.393282,62.532 258.678282,62.07 C258.403282,61.905 257.985282,61.641 257.985282,61.179 C257.985282,60.739 258.293282,60.497 258.645282,60.497 C258.854282,60.497 259.041282,60.574 259.162282,60.662 C259.327282,60.794 259.371282,60.948 259.426282,61.113 C259.459282,61.19 259.481282,61.245 259.525282,61.245 C259.558282,61.245 259.580282,61.19 259.580282,61.069 C259.569282,60.893 259.525282,60.673 259.514282,60.552 C259.514282,60.519 259.481282,60.475 259.459282,60.453 C259.327282,60.409 259.008282,60.332 258.711282,60.332 C258.293282,60.332 257.985282,60.475 257.787282,60.64 C257.545282,60.816 257.369282,61.113 257.369282,61.509 C257.369282,61.993 257.809282,62.4 258.282282,62.708 C258.722282,62.983 259.008282,63.214 259.008282,63.632 C259.008282,64.083 258.601282,64.369 258.293282,64.369 C258.128282,64.369 257.963282,64.347 257.798282,64.237 C257.600282,64.116 257.424282,63.918 257.336282,63.643 C257.259282,63.434 257.226282,63.434 257.193282,63.434 C257.171282,63.434 257.138282,63.467 257.160282,63.61 C257.171282,63.731 257.193282,64.006 257.193282,64.16 C257.193282,64.226 257.270282,64.303 257.358282,64.336 C257.688282,64.468 257.941282,64.534 258.227282,64.534 Z M261.351282,64.534 C261.615282,64.534 261.989282,64.446 262.231282,64.292 C262.451282,64.149 262.803282,63.852 262.803282,63.368 C262.803282,62.807 262.517282,62.532 261.802282,62.07 C261.527282,61.905 261.109282,61.641 261.109282,61.179 C261.109282,60.739 261.417282,60.497 261.769282,60.497 C261.978282,60.497 262.165282,60.574 262.286282,60.662 C262.451282,60.794 262.495282,60.948 262.550282,61.113 C262.583282,61.19 262.605282,61.245 262.649282,61.245 C262.682282,61.245 262.704282,61.19 262.704282,61.069 C262.693282,60.893 262.649282,60.673 262.638282,60.552 C262.638282,60.519 262.605282,60.475 262.583282,60.453 C262.451282,60.409 262.132282,60.332 261.835282,60.332 C261.417282,60.332 261.109282,60.475 260.911282,60.64 C260.669282,60.816 260.493282,61.113 260.493282,61.509 C260.493282,61.993 260.933282,62.4 261.406282,62.708 C261.846282,62.983 262.132282,63.214 262.132282,63.632 C262.132282,64.083 261.725282,64.369 261.417282,64.369 C261.252282,64.369 261.087282,64.347 260.922282,64.237 C260.724282,64.116 260.548282,63.918 260.460282,63.643 C260.383282,63.434 260.350282,63.434 260.317282,63.434 C260.295282,63.434 260.262282,63.467 260.284282,63.61 C260.295282,63.731 260.317282,64.006 260.317282,64.16 C260.317282,64.226 260.394282,64.303 260.482282,64.336 C260.812282,64.468 261.065282,64.534 261.351282,64.534 Z M266.565282,64.501 C266.873282,64.501 267.214282,64.402 267.456282,64.215 C267.599282,64.105 267.698282,63.995 267.698282,63.929 C267.698282,63.885 267.665282,63.874 267.588282,63.929 C267.489282,63.995 267.291282,64.094 266.983282,64.094 C266.697282,64.094 266.466282,64.006 266.301282,63.797 C266.224282,63.687 266.202282,63.555 266.180282,63.203 C266.169282,62.862 266.158282,61.135 266.158282,60.948 C266.158282,60.882 266.180282,60.849 266.312282,60.849 C266.609282,60.849 267.148282,60.86 267.533282,60.86 C267.588282,60.86 267.643282,60.772 267.643282,60.585 C267.643282,60.508 267.599282,60.431 267.577282,60.431 C267.346282,60.431 266.433282,60.464 266.235282,60.464 C266.191282,60.464 266.180282,60.398 266.180282,60.365 C266.169282,60.233 266.191282,59.925 266.191282,59.826 C266.191282,59.771 266.114282,59.749 266.015282,59.859 C265.751282,60.2 265.388282,60.497 265.113282,60.596 C264.992282,60.651 264.981282,60.684 264.981282,60.706 C264.981282,60.75 265.036282,60.783 265.124282,60.805 C265.223282,60.827 265.344282,60.849 265.388282,60.871 C265.432282,60.893 265.443282,60.97 265.443282,61.091 L265.443282,63.368 C265.443282,63.632 265.487282,63.852 265.575282,63.995 C265.762282,64.347 266.103282,64.501 266.565282,64.501 Z M272.252282,64.457 C272.351282,64.457 272.428282,64.424 272.428282,64.38 C272.428282,64.336 272.395282,64.314 272.252282,64.281 C271.922282,64.226 271.878282,64.149 271.878282,63.929 C271.867282,63.511 271.867282,62.829 271.856282,62.004 C271.845282,61.311 271.724282,60.97 271.614282,60.827 C271.350282,60.453 270.965282,60.332 270.624282,60.332 C270.327282,60.332 270.041282,60.42 269.854282,60.519 C269.634282,60.629 269.326282,60.849 269.194282,60.97 C269.183282,60.992 269.150282,60.981 269.150282,60.937 C269.139282,60.728 269.183282,57.318 269.194282,57.021 C269.205282,56.867 269.172282,56.79 269.139282,56.79 C269.117282,56.79 269.084282,56.801 269.029282,56.834 C268.820282,56.944 268.567282,56.999 268.226282,57.098 C268.105282,57.131 268.039282,57.164 268.039282,57.197 C268.039282,57.23 268.072282,57.252 268.116282,57.285 C268.358282,57.417 268.435282,57.45 268.446282,57.802 C268.468282,58.22 268.446282,58.891 268.446282,60.552 C268.446282,62.301 268.435282,63.313 268.402282,63.753 C268.391282,64.171 268.314282,64.204 267.995282,64.281 C267.863282,64.314 267.819282,64.336 267.819282,64.38 C267.819282,64.424 267.874282,64.446 267.995282,64.446 C268.204282,64.446 268.369282,64.402 268.710282,64.402 C269.029282,64.402 269.315282,64.446 269.623282,64.446 C269.722282,64.446 269.788282,64.413 269.788282,64.38 C269.788282,64.325 269.711282,64.303 269.546282,64.27 C269.304282,64.226 269.227282,64.094 269.194282,63.896 C269.172282,63.709 269.128282,63.181 269.139282,61.531 C269.139282,61.3 269.194282,61.168 269.249282,61.124 C269.425282,60.937 269.755282,60.717 270.217282,60.717 C270.591282,60.717 270.833282,60.882 270.976282,61.124 C271.108282,61.366 271.141282,61.674 271.141282,61.949 C271.141282,63.093 271.119282,63.577 271.097282,63.83 C271.053282,64.149 271.031282,64.226 270.734282,64.292 C270.624282,64.314 270.569282,64.336 270.569282,64.38 C270.569282,64.413 270.613282,64.446 270.745282,64.446 C270.998282,64.446 271.086282,64.402 271.460282,64.402 C271.757282,64.402 271.966282,64.457 272.252282,64.457 Z M274.760282,64.523 C275.387282,64.523 275.849282,64.303 276.289282,63.83 C276.355282,63.753 276.399282,63.687 276.399282,63.654 C276.399282,63.599 276.355282,63.577 276.267282,63.665 C276.003282,63.918 275.673282,64.017 275.222282,64.017 C274.859282,64.017 274.419282,63.896 274.122282,63.566 C273.836282,63.247 273.616282,62.796 273.616282,62.235 C273.616282,61.927 273.649282,61.762 273.704282,61.63 C273.726282,61.597 273.781282,61.542 273.803282,61.542 L274.397282,61.542 C274.650282,61.542 276.080282,61.564 276.168282,61.575 C276.223282,61.575 276.278282,61.509 276.278282,61.454 C276.278282,60.783 275.585282,60.332 274.936282,60.332 C274.364282,60.332 273.858282,60.596 273.561282,60.882 C273.099282,61.333 272.923282,61.982 272.923282,62.488 C272.923282,63.082 273.121282,63.61 273.451282,63.962 C273.781282,64.314 274.243282,64.523 274.760282,64.523 Z M273.847282,61.388 C273.825282,61.388 273.803282,61.366 273.803282,61.344 C273.803282,61.256 273.902282,61.047 274.034282,60.893 C274.276282,60.64 274.551282,60.486 274.837282,60.486 C275.090282,60.486 275.277282,60.585 275.387282,60.695 C275.508282,60.827 275.541282,61.025 275.541282,61.157 C275.541282,61.256 275.519282,61.377 275.277282,61.377 L273.847282,61.388 Z M282.317282,64.435 C282.482282,64.435 282.724282,64.402 282.988282,64.402 C283.241282,64.402 283.626282,64.424 283.747282,64.424 C283.879282,64.424 283.934282,64.402 283.934282,64.347 C283.934282,64.314 283.890282,64.281 283.736282,64.248 C283.494282,64.204 283.428282,64.127 283.417282,63.764 L283.373282,62.18 C283.373282,61.773 283.318282,61.355 283.241282,61.135 C283.098282,60.706 282.735282,60.332 282.130282,60.332 C281.580282,60.332 281.074282,60.629 280.623282,61.069 C280.601282,61.08 280.557282,61.069 280.546282,61.047 C280.304282,60.574 279.952282,60.343 279.446282,60.343 C278.973282,60.343 278.445282,60.662 278.082282,60.992 C278.038282,61.025 278.027282,60.959 278.027282,60.926 C278.016282,60.805 278.027282,60.519 278.027282,60.398 C278.027282,60.332 278.005282,60.288 277.972282,60.288 C277.928282,60.288 277.873282,60.31 277.807282,60.354 C277.631282,60.497 277.290282,60.629 277.059282,60.684 C276.971282,60.706 276.927282,60.728 276.927282,60.761 L276.938282,60.761 C276.938282,60.816 276.960282,60.838 277.037282,60.882 C277.213282,60.981 277.279282,61.08 277.290282,61.267 C277.312282,61.476 277.301282,61.751 277.301282,62.158 C277.301282,62.796 277.301282,63.687 277.257282,63.918 C277.235282,64.05 277.235282,64.171 276.894282,64.248 C276.740282,64.27 276.674282,64.303 276.674282,64.347 C276.674282,64.391 276.773282,64.424 276.872282,64.424 C277.015282,64.424 277.246282,64.402 277.587282,64.402 C277.851282,64.402 278.214282,64.424 278.423282,64.424 C278.500282,64.424 278.588282,64.402 278.588282,64.347 C278.588282,64.314 278.544282,64.281 278.423282,64.259 C278.159282,64.204 278.093282,64.072 278.071282,63.896 C278.049282,63.698 278.005282,62.928 278.005282,62.114 C278.005282,61.74 278.038282,61.487 278.049282,61.366 C278.060282,61.289 278.082282,61.179 278.181282,61.091 C278.346282,60.937 278.621282,60.75 279.006282,60.75 C279.347282,60.75 279.523282,60.849 279.677282,61.003 C279.897282,61.245 279.952282,61.498 279.952282,62.103 L279.941282,63.885 C279.941282,64.149 279.831282,64.204 279.600282,64.248 C279.457282,64.281 279.402282,64.325 279.402282,64.358 C279.402282,64.402 279.457282,64.424 279.578282,64.424 C279.699282,64.424 279.963282,64.402 280.205282,64.402 C280.524282,64.402 280.854282,64.424 281.052282,64.424 C281.173282,64.424 281.239282,64.402 281.239282,64.358 C281.239282,64.314 281.184282,64.303 281.063282,64.259 C280.788282,64.193 280.755282,64.116 280.722282,63.808 C280.700282,63.511 280.667282,61.828 280.645282,61.52 C280.645282,61.322 280.678282,61.201 280.722282,61.157 C280.909282,60.97 281.250282,60.75 281.657282,60.75 C282.196282,60.75 282.482282,61.025 282.581282,61.586 C282.625282,61.916 282.680282,62.444 282.658282,63.764 C282.658282,64.094 282.603282,64.193 282.284282,64.259 C282.196282,64.281 282.097282,64.314 282.097282,64.369 C282.097282,64.413 282.174282,64.435 282.317282,64.435 Z M236.370282,76.523 C236.953282,76.523 237.624282,76.226 238.064282,75.764 C238.383282,75.423 238.614282,74.961 238.614282,74.279 C238.614282,73.828 238.460282,73.333 238.119282,72.959 C237.866282,72.673 237.393282,72.365 236.799282,72.365 C236.271282,72.365 235.875282,72.552 235.622282,72.739 C235.611282,72.75 235.567282,72.739 235.567282,72.684 C235.567282,71.232 235.589282,69.659 235.622282,68.999 C235.633282,68.845 235.611282,68.801 235.589282,68.801 C235.567282,68.801 235.512282,68.801 235.413282,68.845 C235.182282,68.944 234.841282,69.032 234.632282,69.065 C234.467282,69.087 234.412282,69.131 234.412282,69.164 C234.412282,69.197 234.456282,69.23 234.544282,69.285 C234.775282,69.439 234.819282,69.483 234.841282,69.703 C234.851497,69.8664286 234.871195,70.6653316 234.873958,71.4127464 L234.874282,71.584 C234.874282,72.233 234.819282,74.664 234.797282,75.203 C234.775282,75.808 234.753282,76.05 234.731282,76.204 C234.720282,76.237 234.753282,76.292 234.786282,76.281 C234.951282,76.226 235.028282,76.204 235.105282,76.248 C235.468282,76.413 235.985282,76.523 236.370282,76.523 Z M236.722282,76.303 C236.491282,76.303 236.161282,76.215 235.985282,76.094 C235.897282,76.039 235.754282,75.951 235.688282,75.819 C235.589282,75.621 235.534282,75.049 235.534282,74.642 C235.534282,74.213 235.523282,73.355 235.545282,73.179 C235.556282,73.025 235.600282,72.915 235.644282,72.882 C235.732282,72.805 235.974282,72.695 236.304282,72.695 C236.799282,72.695 237.228282,73.003 237.426282,73.234 C237.723282,73.597 237.866282,74.125 237.866282,74.543 C237.866282,75.049 237.723282,75.61 237.481282,75.907 C237.272282,76.171 236.920282,76.303 236.722282,76.303 Z M241.221282,76.523 C241.848282,76.523 242.310282,76.303 242.750282,75.83 C242.816282,75.753 242.860282,75.687 242.860282,75.654 C242.860282,75.599 242.816282,75.577 242.728282,75.665 C242.464282,75.918 242.134282,76.017 241.683282,76.017 C241.320282,76.017 240.880282,75.896 240.583282,75.566 C240.297282,75.247 240.077282,74.796 240.077282,74.235 C240.077282,73.927 240.110282,73.762 240.165282,73.63 C240.187282,73.597 240.242282,73.542 240.264282,73.542 L240.858282,73.542 C241.111282,73.542 242.541282,73.564 242.629282,73.575 C242.684282,73.575 242.739282,73.509 242.739282,73.454 C242.739282,72.783 242.046282,72.332 241.397282,72.332 C240.825282,72.332 240.319282,72.596 240.022282,72.882 C239.560282,73.333 239.384282,73.982 239.384282,74.488 C239.384282,75.082 239.582282,75.61 239.912282,75.962 C240.242282,76.314 240.704282,76.523 241.221282,76.523 Z M240.308282,73.388 C240.286282,73.388 240.264282,73.366 240.264282,73.344 C240.264282,73.256 240.363282,73.047 240.495282,72.893 C240.737282,72.64 241.012282,72.486 241.298282,72.486 C241.551282,72.486 241.738282,72.585 241.848282,72.695 C241.969282,72.827 242.002282,73.025 242.002282,73.157 C242.002282,73.256 241.980282,73.377 241.738282,73.377 L240.308282,73.388 Z M244.818282,76.501 C245.126282,76.501 245.467282,76.402 245.709282,76.215 C245.852282,76.105 245.951282,75.995 245.951282,75.929 C245.951282,75.885 245.918282,75.874 245.841282,75.929 C245.742282,75.995 245.544282,76.094 245.236282,76.094 C244.950282,76.094 244.719282,76.006 244.554282,75.797 C244.477282,75.687 244.455282,75.555 244.433282,75.203 C244.422282,74.862 244.411282,73.135 244.411282,72.948 C244.411282,72.882 244.433282,72.849 244.565282,72.849 C244.862282,72.849 245.401282,72.86 245.786282,72.86 C245.841282,72.86 245.896282,72.772 245.896282,72.585 C245.896282,72.508 245.852282,72.431 245.830282,72.431 C245.599282,72.431 244.686282,72.464 244.488282,72.464 C244.444282,72.464 244.433282,72.398 244.433282,72.365 C244.422282,72.233 244.444282,71.925 244.444282,71.826 C244.444282,71.771 244.367282,71.749 244.268282,71.859 C244.004282,72.2 243.641282,72.497 243.366282,72.596 C243.245282,72.651 243.234282,72.684 243.234282,72.706 C243.234282,72.75 243.289282,72.783 243.377282,72.805 C243.476282,72.827 243.597282,72.849 243.641282,72.871 C243.685282,72.893 243.696282,72.97 243.696282,73.091 L243.696282,75.368 C243.696282,75.632 243.740282,75.852 243.828282,75.995 C244.015282,76.347 244.356282,76.501 244.818282,76.501 Z M250.472282,76.545 C250.505282,76.545 250.549282,76.501 250.615282,76.336 C250.747282,75.984 250.945282,75.489 251.132282,75.049 C251.473282,74.268 251.803282,73.509 252.001282,73.113 C252.144282,72.816 252.276282,72.662 252.474282,72.607 C252.639282,72.563 252.672282,72.53 252.672282,72.486 C252.672282,72.442 252.617282,72.431 252.518282,72.431 C252.353282,72.431 252.078282,72.464 251.968282,72.464 C251.792282,72.464 251.594282,72.431 251.407282,72.431 C251.330282,72.431 251.264282,72.453 251.264282,72.497 C251.264282,72.53 251.297282,72.563 251.440282,72.607 C251.726282,72.684 251.770282,72.783 251.770282,72.882 C251.770282,72.959 251.693282,73.157 251.594282,73.41 C251.462282,73.784 250.934282,75.038 250.802282,75.313 C250.802282,75.335 250.780282,75.379 250.747282,75.324 C250.593282,74.983 250.010282,73.388 249.889282,73.047 C249.757282,72.706 249.823282,72.662 250.076282,72.607 C250.164282,72.585 250.241282,72.541 250.241282,72.497 C250.241282,72.464 250.197282,72.442 250.076282,72.442 C249.878282,72.442 249.746282,72.464 249.427282,72.464 C249.196282,72.464 248.910282,72.42 248.679282,72.42 C248.569282,72.42 248.514282,72.453 248.514282,72.497 C248.514282,72.541 248.569282,72.563 248.668282,72.585 C248.899282,72.64 248.998282,72.761 249.086282,72.948 L249.273282,73.399 C249.295282,73.454 249.262282,73.531 249.251282,73.586 C249.141282,73.872 248.657282,74.939 248.481282,75.313 C248.470282,75.346 248.426282,75.335 248.415282,75.302 C248.162282,74.686 247.689282,73.432 247.524282,72.926 C247.480282,72.75 247.469282,72.651 247.733282,72.607 C247.810282,72.596 247.920282,72.552 247.920282,72.519 C247.920282,72.464 247.832282,72.431 247.733282,72.431 C247.513282,72.431 247.293282,72.464 247.095282,72.464 C246.787282,72.464 246.457282,72.42 246.314282,72.42 C246.193282,72.42 246.116282,72.442 246.116282,72.497 C246.116282,72.541 246.182282,72.574 246.270282,72.596 C246.545282,72.662 246.677282,72.816 246.754282,73.025 C246.875282,73.223 247.502282,74.851 247.700282,75.401 C247.887282,75.918 247.953282,76.193 248.008282,76.347 C248.041282,76.468 248.074282,76.545 248.118282,76.545 C248.162282,76.545 248.217282,76.479 248.272282,76.336 C248.393282,76.006 248.492282,75.764 248.657282,75.401 C248.811282,75.016 249.273282,73.993 249.372282,73.795 C249.394282,73.74 249.416282,73.762 249.427282,73.795 L250.087282,75.588 L250.351282,76.347 C250.395282,76.501 250.428282,76.545 250.472282,76.545 Z M254.564282,76.523 C255.191282,76.523 255.653282,76.303 256.093282,75.83 C256.159282,75.753 256.203282,75.687 256.203282,75.654 C256.203282,75.599 256.159282,75.577 256.071282,75.665 C255.807282,75.918 255.477282,76.017 255.026282,76.017 C254.663282,76.017 254.223282,75.896 253.926282,75.566 C253.640282,75.247 253.420282,74.796 253.420282,74.235 C253.420282,73.927 253.453282,73.762 253.508282,73.63 C253.530282,73.597 253.585282,73.542 253.607282,73.542 L254.201282,73.542 C254.454282,73.542 255.884282,73.564 255.972282,73.575 C256.027282,73.575 256.082282,73.509 256.082282,73.454 C256.082282,72.783 255.389282,72.332 254.740282,72.332 C254.168282,72.332 253.662282,72.596 253.365282,72.882 C252.903282,73.333 252.727282,73.982 252.727282,74.488 C252.727282,75.082 252.925282,75.61 253.255282,75.962 C253.585282,76.314 254.047282,76.523 254.564282,76.523 Z M253.651282,73.388 C253.629282,73.388 253.607282,73.366 253.607282,73.344 C253.607282,73.256 253.706282,73.047 253.838282,72.893 C254.080282,72.64 254.355282,72.486 254.641282,72.486 C254.894282,72.486 255.081282,72.585 255.191282,72.695 C255.312282,72.827 255.345282,73.025 255.345282,73.157 C255.345282,73.256 255.323282,73.377 255.081282,73.377 L253.651282,73.388 Z M258.601282,76.523 C259.228282,76.523 259.690282,76.303 260.130282,75.83 C260.196282,75.753 260.240282,75.687 260.240282,75.654 C260.240282,75.599 260.196282,75.577 260.108282,75.665 C259.844282,75.918 259.514282,76.017 259.063282,76.017 C258.700282,76.017 258.260282,75.896 257.963282,75.566 C257.677282,75.247 257.457282,74.796 257.457282,74.235 C257.457282,73.927 257.490282,73.762 257.545282,73.63 C257.567282,73.597 257.622282,73.542 257.644282,73.542 L258.238282,73.542 C258.491282,73.542 259.921282,73.564 260.009282,73.575 C260.064282,73.575 260.119282,73.509 260.119282,73.454 C260.119282,72.783 259.426282,72.332 258.777282,72.332 C258.205282,72.332 257.699282,72.596 257.402282,72.882 C256.940282,73.333 256.764282,73.982 256.764282,74.488 C256.764282,75.082 256.962282,75.61 257.292282,75.962 C257.622282,76.314 258.084282,76.523 258.601282,76.523 Z M257.688282,73.388 C257.666282,73.388 257.644282,73.366 257.644282,73.344 C257.644282,73.256 257.743282,73.047 257.875282,72.893 C258.117282,72.64 258.392282,72.486 258.678282,72.486 C258.931282,72.486 259.118282,72.585 259.228282,72.695 C259.349282,72.827 259.382282,73.025 259.382282,73.157 C259.382282,73.256 259.360282,73.377 259.118282,73.377 L257.688282,73.388 Z M264.860282,76.446 C264.970282,76.446 265.058282,76.435 265.058282,76.369 C265.058282,76.325 264.992282,76.303 264.893282,76.259 C264.596282,76.182 264.563282,76.116 264.552282,75.368 C264.552282,74.818 264.541282,74.73 264.541282,74.147 C264.530282,73.52 264.442282,72.97 264.189282,72.706 C264.046282,72.552 263.782282,72.332 263.331282,72.332 C263.144282,72.332 262.913282,72.354 262.682282,72.464 C262.440282,72.563 262.176282,72.75 261.901282,72.959 C261.879282,72.981 261.846282,72.948 261.846282,72.926 C261.835282,72.772 261.857282,72.475 261.868282,72.343 C261.879282,72.288 261.824282,72.244 261.791282,72.255 C261.604282,72.376 261.164282,72.563 260.922282,72.629 C260.823282,72.662 260.768282,72.695 260.768282,72.717 C260.768282,72.75 260.790282,72.772 260.856282,72.816 C261.120282,72.959 261.142282,73.08 261.142282,73.19 L261.141467,74.1087037 C261.139838,74.7312222 261.134949,75.357 261.120282,75.885 C261.109282,76.105 261.065282,76.182 260.790282,76.237 C260.658282,76.259 260.559282,76.303 260.559282,76.347 C260.559282,76.402 260.647282,76.424 260.768282,76.424 C260.977282,76.424 261.208282,76.402 261.351282,76.402 C261.604282,76.402 262.143282,76.446 262.231282,76.446 C262.341282,76.446 262.451282,76.446 262.451282,76.38 C262.451282,76.325 262.396282,76.303 262.264282,76.27 C262.088282,76.215 261.956282,76.16 261.923282,75.918 C261.901282,75.764 261.868282,75.478 261.857282,74.763 L261.856324,74.4148017 C261.853646,73.9131818 261.846282,73.518 261.846282,73.41 C261.846282,73.322 261.901282,73.157 261.978282,73.08 C262.264282,72.838 262.550282,72.728 262.836282,72.728 C263.089282,72.728 263.298282,72.805 263.463282,72.937 C263.738282,73.146 263.815282,73.41 263.815282,74.301 L263.815282,75.797 C263.815282,76.116 263.771282,76.193 263.507282,76.259 C263.364282,76.292 263.298282,76.336 263.298282,76.38 C263.298282,76.424 263.375282,76.446 263.474282,76.446 C263.639282,76.446 263.782282,76.402 264.156282,76.402 C264.398282,76.402 264.717282,76.446 264.860282,76.446 Z M270.437282,76.457 C270.580282,76.457 270.646282,76.424 270.646282,76.38 C270.646282,76.336 270.591282,76.292 270.470282,76.27 C270.008282,76.193 269.953282,76.127 269.920282,75.445 C269.898282,74.972 269.876282,72.662 269.887282,71.738 C269.909282,71.023 269.920282,70.044 269.920282,69.901 C269.920282,69.835 269.898282,69.824 269.876282,69.824 C269.821282,69.824 269.733282,69.868 269.634282,69.901 C269.326282,70.033 268.721282,70.121 268.237282,70.187 C268.149282,70.198 268.083282,70.231 268.083282,70.264 C268.083282,70.308 268.182282,70.341 268.248282,70.352 C268.358282,70.374 268.435282,70.385 268.523282,70.418 C268.611282,70.462 268.655282,70.539 268.666282,70.66 C268.688282,70.935 268.699282,71.298 268.699282,72.629 C268.699282,74.51 268.677282,75.104 268.644282,75.445 C268.622282,76.094 268.523282,76.193 268.006282,76.281 C267.896282,76.303 267.830282,76.325 267.830282,76.369 C267.830282,76.435 267.918282,76.457 268.017282,76.457 C268.402282,76.457 268.611282,76.402 269.150282,76.402 C269.535282,76.402 269.876282,76.457 270.437282,76.457 Z M275.541282,76.446 C275.607282,76.446 275.761282,76.435 275.783282,76.336 C275.805282,76.248 276.047282,75.379 276.146282,75.17 C276.201282,75.06 276.212282,74.917 276.157282,74.917 C276.135282,74.917 276.091282,74.939 276.014282,75.071 C275.849282,75.302 275.717282,75.368 275.530282,75.39 C275.398282,75.412 275.101282,75.434 274.628282,75.434 C273.902282,75.434 273.253282,75.434 273.022282,75.379 C272.956282,75.368 272.945282,75.313 272.978282,75.28 C273.561282,74.642 273.968282,74.213 274.650282,73.377 C275.255282,72.629 275.442282,72.024 275.442282,71.452 C275.442282,70.649 274.859282,69.824 273.803282,69.824 C273.374282,69.824 272.923282,70.011 272.659282,70.231 C272.417282,70.418 272.142282,70.715 271.955282,71.067 C271.900282,71.177 271.878282,71.287 271.944282,71.287 C271.988282,71.287 272.032282,71.243 272.109282,71.155 C272.450282,70.759 272.824282,70.605 273.242282,70.605 C273.957282,70.605 274.364282,71.276 274.364282,71.958 C274.364282,72.86 274.067282,73.52 273.484282,74.323 C272.923282,75.104 272.417282,75.632 271.933282,76.138 C271.867282,76.215 271.790282,76.303 271.823282,76.347 C271.856282,76.391 271.977282,76.413 272.230282,76.413 C272.299582,76.413 272.965852,76.40409 273.226717,76.402308 L273.297282,76.402 C273.770282,76.402 275.233282,76.446 275.541282,76.446 Z M279.721282,76.501 C280.051282,76.501 280.436282,76.413 280.711282,76.171 C280.887282,76.028 280.942282,75.94 280.942282,75.874 C280.942282,75.841 280.909282,75.808 280.799282,75.874 C280.667282,75.962 280.502282,76.006 280.293282,76.006 C280.150282,76.006 279.930282,75.962 279.765282,75.764 C279.677282,75.665 279.655282,75.522 279.644282,75.258 C279.633282,74.972 279.644282,73.212 279.644282,72.97 C279.644282,72.915 279.666282,72.871 279.798282,72.871 L280.766282,72.871 C280.810282,72.871 280.887282,72.86 280.887282,72.618 C280.887282,72.497 280.821282,72.42 280.799282,72.42 C280.623282,72.409 279.886282,72.431 279.677282,72.442 C279.633282,72.442 279.622282,72.365 279.622282,72.332 C279.611282,72.244 279.633282,71.782 279.633282,71.705 C279.633282,71.65 279.556282,71.606 279.391282,71.771 C279.072282,72.123 278.610282,72.442 278.357282,72.552 C278.236282,72.618 278.181282,72.673 278.181282,72.706 C278.181282,72.761 278.236282,72.794 278.324282,72.816 C278.401282,72.838 278.467282,72.86 278.500282,72.882 C278.566282,72.926 278.577282,72.981 278.577282,73.069 L278.577282,75.324 C278.577282,75.588 278.610282,75.852 278.709282,76.006 C278.907282,76.358 279.281282,76.501 279.721282,76.501 Z M283.406282,76.534 C283.813282,76.534 284.352282,76.391 284.726282,76.105 C285.067282,75.841 285.584282,75.258 285.584282,74.378 C285.584282,73.234 284.693282,72.299 283.384282,72.299 C282.933282,72.299 282.427282,72.442 281.976282,72.805 C281.635282,73.069 281.195282,73.597 281.195282,74.433 C281.195282,75.61 282.152282,76.534 283.406282,76.534 Z M283.538282,76.358 C283.241282,76.358 282.933282,76.138 282.702282,75.753 C282.427282,75.28 282.361282,74.664 282.361282,74.136 C282.361282,73.179 282.812282,72.486 283.285282,72.486 C284.055282,72.486 284.407282,73.355 284.407282,74.609 C284.407282,75.423 284.176282,75.951 284.044282,76.105 C283.923282,76.259 283.736282,76.358 283.538282,76.358 Z M291.073282,76.457 C291.216282,76.457 291.282282,76.424 291.282282,76.38 C291.282282,76.336 291.227282,76.292 291.106282,76.27 C290.644282,76.193 290.589282,76.127 290.556282,75.445 C290.534282,74.972 290.512282,72.662 290.523282,71.738 C290.545282,71.023 290.556282,70.044 290.556282,69.901 C290.556282,69.835 290.534282,69.824 290.512282,69.824 C290.457282,69.824 290.369282,69.868 290.270282,69.901 C289.962282,70.033 289.357282,70.121 288.873282,70.187 C288.785282,70.198 288.719282,70.231 288.719282,70.264 C288.719282,70.308 288.818282,70.341 288.884282,70.352 C288.994282,70.374 289.071282,70.385 289.159282,70.418 C289.247282,70.462 289.291282,70.539 289.302282,70.66 C289.324282,70.935 289.335282,71.298 289.335282,72.629 C289.335282,74.51 289.313282,75.104 289.280282,75.445 C289.258282,76.094 289.159282,76.193 288.642282,76.281 C288.532282,76.303 288.466282,76.325 288.466282,76.369 C288.466282,76.435 288.554282,76.457 288.653282,76.457 C289.038282,76.457 289.247282,76.402 289.786282,76.402 C290.171282,76.402 290.512282,76.457 291.073282,76.457 Z M293.273282,76.952 C293.746282,76.952 294.780282,76.743 295.528282,76.182 C296.023282,75.797 296.474282,75.214 296.474282,74.323 C296.474282,73.619 296.067282,72.937 295.209282,72.453 C294.626282,72.123 293.680282,71.793 293.273282,71.672 C293.174282,71.639 293.152282,71.595 293.163282,71.529 C293.174282,71.463 293.262282,71.199 293.306282,71.133 C293.328282,71.111 293.383282,71.078 293.427282,71.078 C293.944282,71.034 294.890282,70.968 295.363282,70.902 C295.440282,70.891 295.539282,70.803 295.561282,70.748 C295.682282,70.429 295.858282,70.055 295.979282,69.835 C296.001282,69.791 295.979282,69.703 295.880282,69.758 C295.748282,69.857 295.396282,69.89 295.055282,69.934 C294.516282,70.011 293.955282,70.077 293.647282,70.132 C293.625282,70.132 293.504282,70.187 293.471282,70.242 C293.251282,70.649 292.778282,72.123 292.767282,72.64 C292.767282,72.706 292.778282,72.783 292.833282,72.805 C293.229282,72.904 293.900282,73.091 294.351282,73.278 C295.143282,73.619 295.473282,74.158 295.473282,74.785 C295.473282,76.072 294.120282,76.644 293.141282,76.787 C292.998282,76.798 292.954282,76.82 292.954282,76.875 C292.954282,76.908 292.987282,76.93 293.053282,76.941 C293.097282,76.952 293.185282,76.952 293.273282,76.952 Z M238.823282,88.457 C238.889282,88.457 239.010282,88.435 239.010282,88.38 C239.010282,88.325 238.966282,88.303 238.823282,88.27 C238.526282,88.215 238.493282,88.083 238.493282,87.896 L238.471282,85.927 C238.460282,85.3 238.350282,84.959 238.196282,84.772 C237.943282,84.442 237.591282,84.299 237.162282,84.299 C236.931282,84.299 236.645282,84.376 236.491282,84.464 C236.315282,84.541 236.051282,84.717 235.897282,84.849 C235.875282,84.871 235.842282,84.838 235.842282,84.816 C235.831282,84.651 235.897282,81.285 235.897282,81.12 C235.897282,80.944 235.864282,80.911 235.831282,80.911 C235.809282,80.911 235.776282,80.922 235.688282,80.955 C235.358282,81.109 234.907282,81.208 234.555282,81.307 C234.434282,81.34 234.368282,81.373 234.368282,81.417 C234.368282,81.45 234.401282,81.483 234.445282,81.516 C234.720282,81.648 234.753282,81.67 234.775282,82.022 C234.797282,82.385 234.786282,83.177 234.786282,84.827 L234.785767,85.370082 C234.78336,86.5849375 234.772532,87.427125 234.753282,87.764 C234.742282,88.116 234.698282,88.193 234.390282,88.259 C234.258282,88.292 234.214282,88.325 234.214282,88.369 C234.214282,88.413 234.291282,88.446 234.412282,88.446 C234.676282,88.446 234.819282,88.402 235.292282,88.402 C235.479282,88.402 235.919282,88.457 236.238282,88.457 C236.370282,88.457 236.436282,88.402 236.436282,88.369 C236.436282,88.325 236.359282,88.292 236.238282,88.27 C235.974282,88.215 235.919282,88.072 235.886282,87.863 C235.853282,87.489 235.820282,86.356 235.831282,85.289 C235.831282,85.157 235.886282,85.047 235.941282,85.003 C236.073282,84.882 236.315282,84.75 236.601282,84.75 C236.887282,84.75 237.118282,84.849 237.272282,85.113 C237.382282,85.311 237.415282,85.718 237.415282,86.004 C237.415282,86.906 237.393282,87.478 237.371282,87.731 C237.338282,88.094 237.327282,88.193 237.008282,88.281 C236.898282,88.303 236.843282,88.325 236.843282,88.369 C236.843282,88.402 236.887282,88.446 237.019282,88.446 C237.360282,88.446 237.382282,88.402 237.932282,88.402 C238.361282,88.402 238.493282,88.457 238.823282,88.457 Z M241.694282,88.534 C242.101282,88.534 242.640282,88.391 243.014282,88.105 C243.355282,87.841 243.872282,87.258 243.872282,86.378 C243.872282,85.234 242.981282,84.299 241.672282,84.299 C241.221282,84.299 240.715282,84.442 240.264282,84.805 C239.923282,85.069 239.483282,85.597 239.483282,86.433 C239.483282,87.61 240.440282,88.534 241.694282,88.534 Z M241.826282,88.358 C241.529282,88.358 241.221282,88.138 240.990282,87.753 C240.715282,87.28 240.649282,86.664 240.649282,86.136 C240.649282,85.179 241.100282,84.486 241.573282,84.486 C242.343282,84.486 242.695282,85.355 242.695282,86.609 C242.695282,87.423 242.464282,87.951 242.332282,88.105 C242.211282,88.259 242.024282,88.358 241.826282,88.358 Z M247.524282,88.534 C247.843282,88.38 248.745282,88.226 248.866282,88.215 C248.976282,88.193 249.108282,88.171 249.108282,88.116 C249.108282,88.061 249.053282,87.973 248.965282,87.973 C248.866282,87.984 248.701282,88.028 248.591282,88.05 C248.525282,88.061 248.470282,88.006 248.459282,87.94 C248.442782,87.8245 248.438657,87.7399375 248.437626,87.5331719 L248.437921,86.8783159 C248.440802,85.9655733 248.454149,84.8292 248.492282,84.486 C248.492282,84.42 248.470282,84.365 248.437282,84.365 C248.294282,84.365 247.942282,84.464 247.546282,84.464 L246.974282,84.464 C246.897282,84.464 246.787282,84.486 246.787282,84.541 C246.787282,84.574 246.853282,84.618 246.985282,84.64 C247.304282,84.695 247.348282,84.75 247.381282,85.124 C247.403282,85.41 247.403282,86.026 247.403282,86.191 C247.403282,86.466 247.392282,87.016 247.370282,87.368 C247.359282,87.61 247.304282,87.72 247.227282,87.786 C247.051282,87.94 246.864282,88.006 246.622282,88.006 C246.391282,88.006 246.193282,87.94 246.039282,87.764 C245.984282,87.676 245.907282,87.544 245.896282,87.093 C245.885282,86.433 245.896282,85.069 245.929282,84.442 C245.929282,84.387 245.907282,84.31 245.863282,84.321 C245.698282,84.365 245.159282,84.464 244.587282,84.464 C244.488282,84.464 244.422282,84.486 244.422282,84.519 C244.422282,84.552 244.455282,84.596 244.543282,84.651 C244.719282,84.75 244.785282,84.805 244.796282,85.025 C244.807282,85.223 244.818282,86.972 244.829282,87.335 C244.840282,87.654 244.884282,87.918 245.049282,88.105 C245.291282,88.402 245.588282,88.501 245.918282,88.501 C246.204282,88.501 246.446282,88.435 246.644282,88.347 C246.831282,88.27 247.139282,88.05 247.326282,87.874 C247.348282,87.852 247.359282,87.885 247.359282,87.94 C247.359282,88.05 247.348282,88.248 247.348282,88.358 C247.348282,88.435 247.348282,88.49 247.370282,88.534 C247.392282,88.556 247.436282,88.567 247.524282,88.534 Z M249.449282,88.457 C249.713282,88.457 249.702282,88.402 250.362282,88.402 C250.890282,88.402 251.088282,88.446 251.396282,88.446 C251.539282,88.446 251.627282,88.424 251.627282,88.369 C251.627282,88.314 251.583282,88.281 251.429282,88.259 C251.022282,88.204 250.945282,88.127 250.901282,87.797 C250.879282,87.544 250.857282,87.082 250.857282,86.301 C250.857282,86.092 250.846282,85.663 250.879282,85.454 C250.901282,85.355 250.923282,85.278 251.000282,85.201 C251.110282,85.091 251.242282,85.047 251.374282,85.047 C251.495282,85.047 251.682282,85.135 251.803282,85.223 C251.913282,85.3 251.968282,85.3 251.990282,85.3 C252.045282,85.3 252.100282,85.278 252.210282,85.168 C252.397282,84.981 252.540282,84.739 252.540282,84.64 C252.540282,84.552 252.496282,84.497 252.386282,84.42 C252.298282,84.354 252.166282,84.31 252.023282,84.31 C251.594282,84.31 251.198282,84.706 250.890282,85.113 C250.879282,85.146 250.835282,85.135 250.835282,85.08 C250.835282,84.838 250.857282,84.53 250.857282,84.332 C250.857282,84.277 250.824282,84.211 250.802282,84.211 C250.758282,84.211 250.714282,84.222 250.615282,84.277 C250.406282,84.387 250.021282,84.519 249.559282,84.64 C249.515282,84.662 249.438282,84.706 249.438282,84.739 C249.438282,84.772 249.460282,84.794 249.526282,84.849 C249.779282,85.069 249.812282,85.091 249.812282,85.157 C249.823282,85.289 249.812282,85.575 249.812282,86.268 C249.801282,86.994 249.790282,87.621 249.779282,87.808 C249.746282,88.116 249.658282,88.204 249.405282,88.259 C249.284282,88.281 249.240282,88.336 249.240282,88.38 C249.240282,88.424 249.306282,88.457 249.449282,88.457 Z M253.948282,88.534 C254.278282,88.534 254.762282,88.413 255.026282,88.226 C255.213282,88.083 255.532282,87.753 255.532282,87.302 C255.532282,86.741 255.268282,86.455 254.575282,85.993 C254.124282,85.707 253.750282,85.498 253.750282,85.069 C253.750282,84.706 254.102282,84.475 254.377282,84.475 C254.619282,84.475 254.806282,84.563 254.949282,84.673 C255.125282,84.827 255.169282,85.014 255.224282,85.179 C255.257282,85.267 255.279282,85.322 255.323282,85.322 C255.367282,85.322 255.400282,85.267 255.389282,85.146 C255.378282,84.86 255.334282,84.662 255.334282,84.552 C255.334282,84.508 255.301282,84.464 255.268282,84.442 C255.114282,84.376 254.762282,84.299 254.410282,84.299 C254.036282,84.299 253.684282,84.409 253.475282,84.563 C253.123282,84.783 252.936282,85.146 252.936282,85.542 C252.936282,85.927 253.178282,86.411 253.827282,86.829 C254.388282,87.181 254.619282,87.412 254.619282,87.731 C254.619282,88.116 254.245282,88.347 253.959282,88.347 C253.739282,88.347 253.596282,88.336 253.409282,88.204 C253.211282,88.061 253.035282,87.808 252.947282,87.544 C252.881282,87.346 252.837282,87.313 252.804282,87.313 C252.760282,87.313 252.738282,87.39 252.749282,87.533 L252.804282,88.138 C252.804282,88.215 252.914282,88.314 252.991282,88.347 C253.321282,88.468 253.695282,88.534 253.948282,88.534 Z M259.657282,88.523 C260.284282,88.523 260.746282,88.303 261.186282,87.83 C261.252282,87.753 261.296282,87.687 261.296282,87.654 C261.296282,87.599 261.252282,87.577 261.164282,87.665 C260.900282,87.918 260.570282,88.017 260.119282,88.017 C259.756282,88.017 259.316282,87.896 259.019282,87.566 C258.733282,87.247 258.513282,86.796 258.513282,86.235 C258.513282,85.927 258.546282,85.762 258.601282,85.63 C258.623282,85.597 258.678282,85.542 258.700282,85.542 L259.294282,85.542 C259.547282,85.542 260.977282,85.564 261.065282,85.575 C261.120282,85.575 261.175282,85.509 261.175282,85.454 C261.175282,84.783 260.482282,84.332 259.833282,84.332 C259.261282,84.332 258.755282,84.596 258.458282,84.882 C257.996282,85.333 257.820282,85.982 257.820282,86.488 C257.820282,87.082 258.018282,87.61 258.348282,87.962 C258.678282,88.314 259.140282,88.523 259.657282,88.523 Z M258.744282,85.388 C258.722282,85.388 258.700282,85.366 258.700282,85.344 C258.700282,85.256 258.799282,85.047 258.931282,84.893 C259.173282,84.64 259.448282,84.486 259.734282,84.486 C259.987282,84.486 260.174282,84.585 260.284282,84.695 C260.405282,84.827 260.438282,85.025 260.438282,85.157 C260.438282,85.256 260.416282,85.377 260.174282,85.377 L258.744282,85.388 Z M263.507282,88.556 C263.540282,88.556 263.584282,88.534 263.639282,88.369 C263.760282,87.984 263.958282,87.599 264.167282,87.137 C264.277282,86.873 264.838282,85.641 265.091282,85.091 C265.223282,84.783 265.344282,84.651 265.564282,84.596 C265.663282,84.563 265.729282,84.541 265.729282,84.497 C265.729282,84.453 265.652282,84.431 265.575282,84.431 C265.476282,84.431 265.190282,84.464 265.014282,84.464 C264.772282,84.464 264.607282,84.431 264.475282,84.431 C264.387282,84.431 264.343282,84.442 264.343282,84.475 C264.343282,84.519 264.387282,84.552 264.475282,84.574 C264.772282,84.64 264.838282,84.761 264.838282,84.827 C264.838282,84.959 264.783282,85.08 264.717282,85.278 C264.585282,85.674 263.969282,87.137 263.826282,87.401 C263.815282,87.434 263.793282,87.423 263.782282,87.379 C263.639282,87.115 262.979282,85.41 262.880282,85.069 C262.792282,84.739 262.814282,84.673 263.100282,84.596 C263.188282,84.574 263.254282,84.541 263.254282,84.497 C263.254282,84.453 263.199282,84.431 263.089282,84.431 C262.913282,84.431 262.726282,84.464 262.429282,84.464 C262.099282,84.464 261.912282,84.42 261.604282,84.42 C261.472282,84.42 261.417282,84.453 261.417282,84.497 C261.417282,84.53 261.472282,84.563 261.571282,84.585 C261.846282,84.651 261.956282,84.761 262.066282,84.97 C262.253282,85.322 262.902282,87.038 263.100282,87.544 C263.254282,87.962 263.331282,88.226 263.386282,88.391 C263.430282,88.545 263.474282,88.556 263.507282,88.556 Z M267.709282,88.523 C268.336282,88.523 268.798282,88.303 269.238282,87.83 C269.304282,87.753 269.348282,87.687 269.348282,87.654 C269.348282,87.599 269.304282,87.577 269.216282,87.665 C268.952282,87.918 268.622282,88.017 268.171282,88.017 C267.808282,88.017 267.368282,87.896 267.071282,87.566 C266.785282,87.247 266.565282,86.796 266.565282,86.235 C266.565282,85.927 266.598282,85.762 266.653282,85.63 C266.675282,85.597 266.730282,85.542 266.752282,85.542 L267.346282,85.542 C267.599282,85.542 269.029282,85.564 269.117282,85.575 C269.172282,85.575 269.227282,85.509 269.227282,85.454 C269.227282,84.783 268.534282,84.332 267.885282,84.332 C267.313282,84.332 266.807282,84.596 266.510282,84.882 C266.048282,85.333 265.872282,85.982 265.872282,86.488 C265.872282,87.082 266.070282,87.61 266.400282,87.962 C266.730282,88.314 267.192282,88.523 267.709282,88.523 Z M266.796282,85.388 C266.774282,85.388 266.752282,85.366 266.752282,85.344 C266.752282,85.256 266.851282,85.047 266.983282,84.893 C267.225282,84.64 267.500282,84.486 267.786282,84.486 C268.039282,84.486 268.226282,84.585 268.336282,84.695 C268.457282,84.827 268.490282,85.025 268.490282,85.157 C268.490282,85.256 268.468282,85.377 268.226282,85.377 L266.796282,85.388 Z M269.843282,88.468 C269.997282,88.468 270.118282,88.402 270.514282,88.402 C270.976282,88.402 271.339282,88.446 271.548282,88.446 C271.713282,88.446 271.812282,88.424 271.812282,88.369 C271.812282,88.314 271.757282,88.292 271.603282,88.27 C271.185282,88.226 271.053282,88.149 271.009282,87.808 C270.987282,87.577 270.965282,87.005 270.965282,86.191 C270.965282,85.971 270.954282,85.652 270.976282,85.52 C270.987282,85.388 271.042282,85.267 271.163282,85.135 C271.306282,85.003 271.482282,84.915 271.647282,84.915 C271.768282,84.915 271.911282,84.97 272.032282,85.047 C272.153282,85.113 272.208282,85.124 272.230282,85.124 C272.263282,85.124 272.307282,85.113 272.406282,85.025 C272.538282,84.904 272.648282,84.728 272.648282,84.651 C272.648282,84.596 272.626282,84.541 272.571282,84.497 C272.461282,84.409 272.318282,84.354 272.186282,84.354 C271.746282,84.354 271.306282,84.761 270.998282,85.146 C270.965282,85.179 270.943282,85.168 270.943282,85.135 C270.943282,84.959 270.954282,84.541 270.954282,84.42 C270.954282,84.31 270.932282,84.266 270.910282,84.266 C270.877282,84.266 270.822282,84.277 270.745282,84.321 C270.569282,84.42 270.261282,84.53 270.041282,84.585 C269.942282,84.618 269.876282,84.662 269.876282,84.684 C269.876282,84.706 269.887282,84.739 269.964282,84.794 C270.173282,84.97 270.250282,85.003 270.250282,85.08 L270.250282,86.301 C270.250282,87.027 270.239282,87.654 270.217282,87.841 C270.173282,88.138 270.052282,88.237 269.821282,88.292 C269.733282,88.314 269.656282,88.369 269.656282,88.402 C269.656282,88.446 269.711282,88.468 269.843282,88.468 Z M273.737282,91.482 C273.858282,91.482 273.990282,91.449 274.100282,91.295 C274.177282,91.196 274.232282,91.086 274.309282,90.888 C274.463282,90.514 274.881282,89.37 275.145282,88.732 C275.376282,88.138 275.475282,87.885 275.607282,87.522 C275.772282,87.104 276.454282,85.41 276.586282,85.135 C276.762282,84.728 276.872282,84.651 277.092282,84.585 C277.202282,84.552 277.246282,84.508 277.246282,84.475 C277.246282,84.442 277.180282,84.431 277.114282,84.431 C276.949282,84.431 276.806282,84.464 276.608282,84.464 C276.443282,84.464 276.212282,84.431 276.080282,84.431 C275.981282,84.431 275.926282,84.453 275.926282,84.497 C275.926282,84.53 275.959282,84.563 276.124282,84.596 C276.311282,84.651 276.366282,84.739 276.366282,84.816 C276.366282,84.871 276.366282,85.003 276.311282,85.135 C276.223282,85.388 275.607282,86.972 275.464282,87.346 C275.453282,87.379 275.420282,87.39 275.398282,87.346 C275.178282,86.884 274.573282,85.399 274.430282,85.014 C274.331282,84.728 274.353282,84.673 274.595282,84.596 C274.661282,84.585 274.738282,84.552 274.738282,84.508 C274.738282,84.464 274.661282,84.431 274.551282,84.431 C274.408282,84.431 274.122282,84.464 273.968282,84.464 C273.704282,84.464 273.396282,84.42 273.198282,84.42 C273.121282,84.42 273.022282,84.442 273.022282,84.497 C273.022282,84.53 273.088282,84.574 273.220282,84.607 C273.407282,84.651 273.539282,84.761 273.616282,84.904 C274.111282,85.982 274.815282,87.764 274.980282,88.193 C275.013282,88.292 275.035282,88.402 274.991282,88.545 C274.617282,89.502 274.298282,90.404 274.188282,90.635 C274.122282,90.789 274.034282,90.822 273.902282,90.822 L273.682282,90.8 L273.682282,90.8 C273.517282,90.8 273.374282,90.954 273.374282,91.119 C273.374282,91.339 273.561282,91.482 273.737282,91.482 Z M282.889282,88.545 C282.922282,88.545 282.966282,88.501 283.032282,88.336 C283.164282,87.984 283.362282,87.489 283.549282,87.049 C283.890282,86.268 284.220282,85.509 284.418282,85.113 C284.561282,84.816 284.693282,84.662 284.891282,84.607 C285.056282,84.563 285.089282,84.53 285.089282,84.486 C285.089282,84.442 285.034282,84.431 284.935282,84.431 C284.770282,84.431 284.495282,84.464 284.385282,84.464 C284.209282,84.464 284.011282,84.431 283.824282,84.431 C283.747282,84.431 283.681282,84.453 283.681282,84.497 C283.681282,84.53 283.714282,84.563 283.857282,84.607 C284.143282,84.684 284.187282,84.783 284.187282,84.882 C284.187282,84.959 284.110282,85.157 284.011282,85.41 C283.879282,85.784 283.351282,87.038 283.219282,87.313 C283.219282,87.335 283.197282,87.379 283.164282,87.324 C283.010282,86.983 282.427282,85.388 282.306282,85.047 C282.174282,84.706 282.240282,84.662 282.493282,84.607 C282.581282,84.585 282.658282,84.541 282.658282,84.497 C282.658282,84.464 282.614282,84.442 282.493282,84.442 C282.295282,84.442 282.163282,84.464 281.844282,84.464 C281.613282,84.464 281.327282,84.42 281.096282,84.42 C280.986282,84.42 280.931282,84.453 280.931282,84.497 C280.931282,84.541 280.986282,84.563 281.085282,84.585 C281.316282,84.64 281.415282,84.761 281.503282,84.948 L281.690282,85.399 C281.712282,85.454 281.679282,85.531 281.668282,85.586 C281.558282,85.872 281.074282,86.939 280.898282,87.313 C280.887282,87.346 280.843282,87.335 280.832282,87.302 C280.579282,86.686 280.106282,85.432 279.941282,84.926 C279.897282,84.75 279.886282,84.651 280.150282,84.607 C280.227282,84.596 280.337282,84.552 280.337282,84.519 C280.337282,84.464 280.249282,84.431 280.150282,84.431 C279.930282,84.431 279.710282,84.464 279.512282,84.464 C279.204282,84.464 278.874282,84.42 278.731282,84.42 C278.610282,84.42 278.533282,84.442 278.533282,84.497 C278.533282,84.541 278.599282,84.574 278.687282,84.596 C278.962282,84.662 279.094282,84.816 279.171282,85.025 C279.292282,85.223 279.919282,86.851 280.117282,87.401 C280.304282,87.918 280.370282,88.193 280.425282,88.347 C280.458282,88.468 280.491282,88.545 280.535282,88.545 C280.579282,88.545 280.634282,88.479 280.689282,88.336 C280.810282,88.006 280.909282,87.764 281.074282,87.401 C281.228282,87.016 281.690282,85.993 281.789282,85.795 C281.811282,85.74 281.833282,85.762 281.844282,85.795 L282.504282,87.588 L282.768282,88.347 C282.812282,88.501 282.845282,88.545 282.889282,88.545 Z M286.981282,88.523 C287.608282,88.523 288.070282,88.303 288.510282,87.83 C288.576282,87.753 288.620282,87.687 288.620282,87.654 C288.620282,87.599 288.576282,87.577 288.488282,87.665 C288.224282,87.918 287.894282,88.017 287.443282,88.017 C287.080282,88.017 286.640282,87.896 286.343282,87.566 C286.057282,87.247 285.837282,86.796 285.837282,86.235 C285.837282,85.927 285.870282,85.762 285.925282,85.63 C285.947282,85.597 286.002282,85.542 286.024282,85.542 L286.618282,85.542 C286.871282,85.542 288.301282,85.564 288.389282,85.575 C288.444282,85.575 288.499282,85.509 288.499282,85.454 C288.499282,84.783 287.806282,84.332 287.157282,84.332 C286.585282,84.332 286.079282,84.596 285.782282,84.882 C285.320282,85.333 285.144282,85.982 285.144282,86.488 C285.144282,87.082 285.342282,87.61 285.672282,87.962 C286.002282,88.314 286.464282,88.523 286.981282,88.523 Z M286.068282,85.388 C286.046282,85.388 286.024282,85.366 286.024282,85.344 C286.024282,85.256 286.123282,85.047 286.255282,84.893 C286.497282,84.64 286.772282,84.486 287.058282,84.486 C287.311282,84.486 287.498282,84.585 287.608282,84.695 C287.729282,84.827 287.762282,85.025 287.762282,85.157 C287.762282,85.256 287.740282,85.377 287.498282,85.377 L286.068282,85.388 Z M291.018282,88.523 C291.645282,88.523 292.107282,88.303 292.547282,87.83 C292.613282,87.753 292.657282,87.687 292.657282,87.654 C292.657282,87.599 292.613282,87.577 292.525282,87.665 C292.261282,87.918 291.931282,88.017 291.480282,88.017 C291.117282,88.017 290.677282,87.896 290.380282,87.566 C290.094282,87.247 289.874282,86.796 289.874282,86.235 C289.874282,85.927 289.907282,85.762 289.962282,85.63 C289.984282,85.597 290.039282,85.542 290.061282,85.542 L290.655282,85.542 C290.908282,85.542 292.338282,85.564 292.426282,85.575 C292.481282,85.575 292.536282,85.509 292.536282,85.454 C292.536282,84.783 291.843282,84.332 291.194282,84.332 C290.622282,84.332 290.116282,84.596 289.819282,84.882 C289.357282,85.333 289.181282,85.982 289.181282,86.488 C289.181282,87.082 289.379282,87.61 289.709282,87.962 C290.039282,88.314 290.501282,88.523 291.018282,88.523 Z M290.105282,85.388 C290.083282,85.388 290.061282,85.366 290.061282,85.344 C290.061282,85.256 290.160282,85.047 290.292282,84.893 C290.534282,84.64 290.809282,84.486 291.095282,84.486 C291.348282,84.486 291.535282,84.585 291.645282,84.695 C291.766282,84.827 291.799282,85.025 291.799282,85.157 C291.799282,85.256 291.777282,85.377 291.535282,85.377 L290.105282,85.388 Z M297.453282,88.457 C297.541282,88.457 297.640282,88.446 297.640282,88.38 C297.640282,88.336 297.574282,88.303 297.475282,88.281 C297.145282,88.204 296.991282,88.083 296.683282,87.764 C296.166282,87.236 295.374282,86.389 295.044282,86.004 C295.033282,85.982 295.011282,85.949 295.033282,85.927 C295.242282,85.729 295.781282,85.256 296.067282,85.047 C296.518282,84.695 296.705282,84.629 297.079282,84.563 C297.211282,84.541 297.244282,84.497 297.244282,84.475 C297.244282,84.431 297.200282,84.398 297.079282,84.398 C296.793282,84.398 296.353282,84.464 296.111282,84.464 C295.990282,84.464 295.737282,84.453 295.561282,84.453 C295.462282,84.453 295.385282,84.486 295.385282,84.53 C295.385282,84.574 295.473282,84.607 295.572282,84.618 C295.814282,84.662 295.891282,84.728 295.891282,84.794 C295.891282,84.838 295.836282,84.915 295.770282,84.981 C295.572282,85.245 295.022282,85.74 294.582282,86.092 C294.494282,86.158 294.406282,86.213 294.362282,86.213 C294.329282,86.213 294.307282,86.158 294.307282,86.037 C294.307282,84.827 294.362282,83.375 294.362282,83.034 C294.362282,82.22 294.395282,81.252 294.417282,80.889 C294.417282,80.834 294.395282,80.801 294.384282,80.801 C294.340282,80.801 294.285282,80.823 294.208282,80.856 C294.153282,80.878 293.867282,80.999 293.427282,81.12 C293.317282,81.153 293.251282,81.175 293.251282,81.219 C293.251282,81.241 293.295282,81.263 293.350282,81.296 C293.482282,81.362 293.581282,81.428 293.603282,81.516 C293.636282,81.637 293.647282,81.769 293.647282,82.022 C293.647282,82.88 293.614282,84.288 293.603282,85.146 C293.603282,86.004 293.592282,86.928 293.548282,87.731 C293.526282,88.094 293.449282,88.193 293.108282,88.281 C293.031282,88.292 292.965282,88.325 292.965282,88.358 C292.965282,88.402 293.031282,88.435 293.141282,88.435 C293.273282,88.435 293.504282,88.402 293.856282,88.402 C294.142282,88.402 294.373282,88.435 294.681282,88.435 C294.802282,88.435 294.890282,88.413 294.890282,88.358 C294.890282,88.314 294.835282,88.292 294.725282,88.259 C294.384282,88.182 294.296282,88.149 294.296282,87.621 C294.285282,87.016 294.296282,86.653 294.307282,86.455 C294.307282,86.411 294.318282,86.345 294.351282,86.345 C294.386482,86.345 294.442802,86.39428 294.508978,86.459048 L294.560282,86.51 C294.890282,86.84 295.671282,87.665 295.902282,87.929 C296.001282,88.083 295.979282,88.182 295.792282,88.226 C295.594282,88.27 295.539282,88.292 295.539282,88.347 C295.539282,88.413 295.616282,88.413 295.737282,88.413 C295.902282,88.413 296.045282,88.402 296.232282,88.402 C296.661282,88.402 297.079282,88.457 297.453282,88.457 Z M298.355282,88.534 C298.564282,88.534 298.828282,88.38 298.828282,88.039 C298.828282,87.819 298.674282,87.555 298.388282,87.555 C298.124282,87.555 297.893282,87.775 297.893282,88.05 C297.893282,88.303 298.102282,88.534 298.355282,88.534 Z M301.127282,82.847 C301.292282,82.847 302.117282,82.528 302.117282,81.78 C302.117282,81.373 301.842282,80.999 301.413282,80.999 C301.237282,80.999 301.083282,81.142 301.083282,81.307 C301.083282,81.439 301.193282,81.505 301.303282,81.538 C301.600282,81.604 301.721282,81.747 301.721282,81.967 C301.721282,82.297 301.468282,82.539 301.138282,82.704 C301.072282,82.737 301.028282,82.77 301.028282,82.792 C301.028282,82.825 301.061282,82.847 301.127282,82.847 Z M302.502282,82.847 C302.667282,82.847 303.492282,82.528 303.492282,81.78 C303.492282,81.373 303.217282,80.999 302.810282,80.999 C302.612282,80.999 302.469282,81.142 302.469282,81.307 C302.469282,81.439 302.579282,81.505 302.678282,81.538 C302.975282,81.604 303.096282,81.747 303.096282,81.978 C303.096282,82.297 302.854282,82.539 302.513282,82.704 L302.441782,82.752125 C302.419782,82.76725 302.403282,82.781 302.403282,82.792 C302.403282,82.825 302.447282,82.847 302.502282,82.847 Z"/>
    <rect width="320" height="160" x=".143" y=".063" stroke="#FFF" stroke-width=".5"/>
  </g>
</svg>
