<svg xmlns="http://www.w3.org/2000/svg" width="320" height="161" viewBox="0 0 320 161">
  <g fill="none" fill-rule="evenodd">
    <g transform="translate(171.431 87.403)">
      <g fill-rule="nonzero" stroke="#222F3C" stroke-linecap="round" stroke-linejoin="round" stroke-width=".5" transform="translate(0 14.88)">
        <path d="M0 5.45849609L4.34790039 3.78881836 8.69604492 5.45849609 11.7926025 4.26953125 11.7926025 0M26.0896025 5.45827539L21.7415801 3.78859766 17.3935576 5.45827539 14.297 4.26931055 14.297.001"/>
      </g>
      <circle cx="13.045" cy="8.497" r="6.503" stroke="#222F3C" stroke-linecap="round" stroke-linejoin="round" stroke-width=".5" transform="rotate(-67.5 13.045 8.497)"/>
      <path stroke="#222F3C" stroke-linecap="round" stroke-linejoin="round" stroke-width=".5" d="M8.50773242 13.1536132L.000408203125 13.1536132.000408203125 28.1494629 26.0901299 28.1494629 26.0901299 13.1536132 17.5826836 13.1536132M10.3834082 9.64155856C10.3834082 8.66157809 11.2704118 7.10526298 13.0444189 4.97261324 14.8190771 7.10526298 15.7064062 8.66157809 15.7064062 9.64155856 15.7064062 11.1115293 14.5143896 12.3026914 13.0444189 12.3026914 11.5754248 12.3026914 10.3834082 11.1115293 10.3834082 9.64155856zM31.4389521 2.308L28.8228633 2.308 27.4805781 3.50868359 26.213 3.50868359 26.213 9.76405469 27.4805781 9.76405469 28.8228633 10.9647383 31.4389521 10.9647383"/>
    </g>
    <path fill="#333838" fill-rule="nonzero" d="M177.311,60.209 C177.366,60.209 177.399,60.143 177.476,59.956 C177.982,58.746 178.873,56.667 179.566,55.149 C180.259,53.587 180.457,53.356 180.919,53.235 C181.117,53.202 181.172,53.158 181.172,53.114 C181.172,53.07 181.117,53.059 180.974,53.059 C180.776,53.059 180.479,53.103 180.171,53.103 C179.841,53.103 179.687,53.059 179.401,53.059 C179.247,53.059 179.214,53.081 179.214,53.125 C179.214,53.169 179.28,53.191 179.456,53.246 C179.819,53.356 179.83,53.543 179.775,53.785 C179.544,54.599 178.213,57.679 177.685,58.823 C177.652,58.889 177.63,58.9 177.586,58.823 C177.212,57.998 176.728,56.953 176.453,56.304 C176.431,56.249 176.431,56.194 176.442,56.172 C176.629,55.831 177.168,54.742 177.454,54.192 C177.817,53.554 178.026,53.323 178.433,53.235 C178.587,53.202 178.642,53.169 178.642,53.114 C178.642,53.07 178.587,53.059 178.455,53.059 C178.202,53.059 178.026,53.103 177.641,53.103 C177.355,53.103 177.179,53.07 176.904,53.07 C176.772,53.07 176.706,53.092 176.706,53.125 C176.706,53.169 176.739,53.213 176.937,53.257 C177.41,53.367 177.421,53.477 177.08,54.28 C176.849,54.819 176.618,55.325 176.354,55.864 C176.321,55.919 176.277,55.908 176.266,55.886 C175.903,55.05 175.573,54.302 175.397,53.84 C175.232,53.433 175.342,53.301 175.639,53.246 C175.782,53.213 175.848,53.18 175.848,53.125 C175.848,53.081 175.771,53.059 175.661,53.059 C175.408,53.059 175.155,53.103 174.759,53.103 C174.363,53.103 174.154,53.059 173.835,53.059 C173.692,53.059 173.626,53.092 173.626,53.125 C173.626,53.18 173.681,53.224 173.857,53.257 C174.198,53.345 174.286,53.477 174.605,54.159 C174.847,54.687 175.584,56.359 175.76,56.777 C175.76,56.799 175.76,56.876 175.738,56.909 C175.441,57.613 175.177,58.163 174.869,58.79 C174.836,58.845 174.792,58.867 174.759,58.79 C174.011,57.14 172.922,54.797 172.46,53.653 C172.383,53.455 172.383,53.323 172.691,53.268 C172.823,53.246 172.889,53.213 172.889,53.158 C172.889,53.114 172.823,53.081 172.669,53.081 C172.438,53.081 172.174,53.103 171.932,53.103 C171.602,53.103 171.151,53.059 170.887,53.059 C170.744,53.059 170.667,53.103 170.667,53.136 C170.667,53.18 170.766,53.224 170.898,53.235 C171.316,53.29 171.404,53.488 171.8,54.346 C172.317,55.424 173.054,57.052 173.659,58.449 C173.802,58.779 174.143,59.582 174.286,59.945 C174.363,60.143 174.385,60.209 174.451,60.209 C174.495,60.209 174.561,60.121 174.627,59.945 C174.869,59.307 175.452,58.02 175.87,57.206 C175.892,57.173 175.925,57.173 175.947,57.217 C176.266,57.921 176.893,59.285 177.124,59.956 C177.19,60.132 177.234,60.209 177.311,60.209 Z M182.558,60.121 C182.91,60.121 183.251,59.956 183.405,59.648 C183.449,59.549 183.405,59.516 183.339,59.549 C183.218,59.615 183.108,59.648 183.02,59.648 C182.712,59.648 182.613,59.439 182.613,59.23 C182.613,58.944 182.646,57.899 182.646,57.492 C182.646,57.151 182.602,56.7 182.492,56.491 C182.36,56.15 182.019,55.93 181.645,55.93 C181.458,55.93 181.238,55.996 180.985,56.128 C180.765,56.238 180.402,56.469 180.149,56.766 C180.017,56.92 179.94,57.019 179.94,57.096 C179.94,57.14 179.995,57.206 180.05,57.195 C180.127,57.184 180.457,57.03 180.567,56.953 C180.589,56.931 180.611,56.898 180.611,56.865 C180.611,56.788 180.611,56.7 180.622,56.656 C180.644,56.535 180.71,56.458 180.787,56.392 C180.952,56.293 181.062,56.26 181.227,56.26 C181.359,56.26 181.546,56.326 181.689,56.436 C181.876,56.579 181.953,56.887 181.953,57.338 C181.953,57.492 181.953,57.712 181.931,57.844 C181.931,57.888 181.876,57.987 181.788,58.009 C181.557,58.097 180.556,58.394 180.292,58.537 C180.193,58.592 179.896,58.812 179.896,59.164 C179.896,59.736 180.336,60.11 180.776,60.11 C181.194,60.11 181.524,59.923 181.854,59.615 C181.865,59.604 181.898,59.604 181.909,59.626 C182.008,59.879 182.25,60.121 182.558,60.121 Z M181.26,59.692 C180.919,59.692 180.6,59.439 180.6,59.076 C180.6,58.757 180.743,58.592 180.875,58.526 C181.106,58.405 181.744,58.174 181.887,58.152 C181.909,58.141 181.931,58.196 181.931,58.207 C181.931,58.625 181.909,59.065 181.876,59.252 C181.865,59.373 181.799,59.472 181.755,59.516 C181.634,59.626 181.447,59.692 181.26,59.692 Z M185.143,60.099 C185.451,60.099 185.792,60 186.034,59.813 C186.177,59.703 186.276,59.593 186.276,59.527 C186.276,59.483 186.243,59.472 186.166,59.527 C186.067,59.593 185.869,59.692 185.561,59.692 C185.275,59.692 185.044,59.604 184.879,59.395 C184.802,59.285 184.78,59.153 184.758,58.801 C184.747,58.46 184.736,56.733 184.736,56.546 C184.736,56.48 184.758,56.447 184.89,56.447 C185.187,56.447 185.726,56.458 186.111,56.458 C186.166,56.458 186.221,56.37 186.221,56.183 C186.221,56.106 186.177,56.029 186.155,56.029 C185.924,56.029 185.011,56.062 184.813,56.062 C184.769,56.062 184.758,55.996 184.758,55.963 C184.747,55.831 184.769,55.523 184.769,55.424 C184.769,55.369 184.692,55.347 184.593,55.457 C184.329,55.798 183.966,56.095 183.691,56.194 C183.57,56.249 183.559,56.282 183.559,56.304 C183.559,56.348 183.614,56.381 183.702,56.403 C183.801,56.425 183.922,56.447 183.966,56.469 C184.01,56.491 184.021,56.568 184.021,56.689 L184.021,58.966 C184.021,59.23 184.065,59.45 184.153,59.593 C184.34,59.945 184.681,60.099 185.143,60.099 Z M188.366,60.121 C188.993,60.121 189.455,59.901 189.895,59.428 C189.961,59.351 190.005,59.285 190.005,59.252 C190.005,59.197 189.961,59.175 189.873,59.263 C189.609,59.516 189.279,59.615 188.828,59.615 C188.465,59.615 188.025,59.494 187.728,59.164 C187.442,58.845 187.222,58.394 187.222,57.833 C187.222,57.525 187.255,57.36 187.31,57.228 C187.332,57.195 187.387,57.14 187.409,57.14 L188.003,57.14 C188.256,57.14 189.686,57.162 189.774,57.173 C189.829,57.173 189.884,57.107 189.884,57.052 C189.884,56.381 189.191,55.93 188.542,55.93 C187.97,55.93 187.464,56.194 187.167,56.48 C186.705,56.931 186.529,57.58 186.529,58.086 C186.529,58.68 186.727,59.208 187.057,59.56 C187.387,59.912 187.849,60.121 188.366,60.121 Z M187.453,56.986 C187.431,56.986 187.409,56.964 187.409,56.942 C187.409,56.854 187.508,56.645 187.64,56.491 C187.882,56.238 188.157,56.084 188.443,56.084 C188.696,56.084 188.883,56.183 188.993,56.293 C189.114,56.425 189.147,56.623 189.147,56.755 C189.147,56.854 189.125,56.975 188.883,56.975 L187.453,56.986 Z M190.5,60.066 C190.654,60.066 190.775,60 191.171,60 C191.633,60 191.996,60.044 192.205,60.044 C192.37,60.044 192.469,60.022 192.469,59.967 C192.469,59.912 192.414,59.89 192.26,59.868 C191.842,59.824 191.71,59.747 191.666,59.406 C191.644,59.175 191.622,58.603 191.622,57.789 C191.622,57.569 191.611,57.25 191.633,57.118 C191.644,56.986 191.699,56.865 191.82,56.733 C191.963,56.601 192.139,56.513 192.304,56.513 C192.425,56.513 192.568,56.568 192.689,56.645 C192.81,56.711 192.865,56.722 192.887,56.722 C192.92,56.722 192.964,56.711 193.063,56.623 C193.195,56.502 193.305,56.326 193.305,56.249 C193.305,56.194 193.283,56.139 193.228,56.095 C193.118,56.007 192.975,55.952 192.843,55.952 C192.403,55.952 191.963,56.359 191.655,56.744 C191.622,56.777 191.6,56.766 191.6,56.733 C191.6,56.557 191.611,56.139 191.611,56.018 C191.611,55.908 191.589,55.864 191.567,55.864 C191.534,55.864 191.479,55.875 191.402,55.919 C191.226,56.018 190.918,56.128 190.698,56.183 C190.599,56.216 190.533,56.26 190.533,56.282 C190.533,56.304 190.544,56.337 190.621,56.392 C190.83,56.568 190.907,56.601 190.907,56.678 L190.907,57.899 C190.907,58.625 190.896,59.252 190.874,59.439 C190.83,59.736 190.709,59.835 190.478,59.89 C190.39,59.912 190.313,59.967 190.313,60 C190.313,60.044 190.368,60.066 190.5,60.066 Z M174.792,71.066 C174.935,71.066 175.012,71.055 175.012,70.989 C175.012,70.934 174.957,70.912 174.825,70.879 C174.451,70.769 174.341,70.692 174.297,70.318 C174.264,69.977 174.22,68.613 174.231,67.997 L174.231754,67.7710247 C174.235617,66.9920617 174.253,64.9267778 174.253,64.565 C174.253,64.488 174.264,64.4 174.319,64.389 C174.451,64.3725 174.793375,64.368375 175.100172,64.3673438 L175.386,64.367 C176.156,64.367 176.299,64.411 176.398,64.499 C176.486,64.587 176.574,64.818 176.596,65.016 C176.607,65.071 176.64,65.17 176.684,65.17 C176.717,65.17 176.772,65.093 176.772,64.928 C176.761,64.554 176.761,64.224 176.805,64.092 C176.816,64.004 176.805,63.982 176.794,63.949 C176.783,63.927 176.75,63.938 176.706,63.971 C176.519,64.07 176.321,64.092 175.804,64.092 L173.912,64.103 C172.779,64.103 171.69,64.07 171.514,64.059 C171.36,64.048 171.206,64.004 171.162,63.949 C171.129,63.916 171.096,63.894 171.074,63.905 C171.019,63.927 171.019,63.982 171.008,64.07 C171.008,64.356 170.92,64.686 170.865,65.016 C170.854,65.093 170.854,65.181 170.898,65.181 C170.942,65.181 170.997,65.126 171.052,64.994 C171.206,64.565 171.349,64.433 171.558,64.389 C171.778,64.367 172.042,64.345 172.493,64.345 C172.999,64.345 173.252,64.367 173.318,64.378 C173.351,64.378 173.384,64.411 173.395,64.51 C173.417,64.664 173.417,69.042 173.34,70.109 C173.307,70.615 173.241,70.791 172.713,70.868 C172.592,70.89 172.493,70.923 172.493,70.967 C172.493,71.022 172.548,71.066 172.691,71.066 C172.867,71.066 173.197,71 173.758,71 C174.198,71 174.539,71.066 174.792,71.066 Z M176.046,71.066 C176.2,71.066 176.321,71 176.717,71 C177.179,71 177.542,71.044 177.751,71.044 C177.916,71.044 178.015,71.022 178.015,70.967 C178.015,70.912 177.96,70.89 177.806,70.868 C177.388,70.824 177.256,70.747 177.212,70.406 C177.19,70.175 177.168,69.603 177.168,68.789 C177.168,68.569 177.157,68.25 177.179,68.118 C177.19,67.986 177.245,67.865 177.366,67.733 C177.509,67.601 177.685,67.513 177.85,67.513 C177.971,67.513 178.114,67.568 178.235,67.645 C178.356,67.711 178.411,67.722 178.433,67.722 C178.466,67.722 178.51,67.711 178.609,67.623 C178.741,67.502 178.851,67.326 178.851,67.249 C178.851,67.194 178.829,67.139 178.774,67.095 C178.664,67.007 178.521,66.952 178.389,66.952 C177.949,66.952 177.509,67.359 177.201,67.744 C177.168,67.777 177.146,67.766 177.146,67.733 C177.146,67.557 177.157,67.139 177.157,67.018 C177.157,66.908 177.135,66.864 177.113,66.864 C177.08,66.864 177.025,66.875 176.948,66.919 C176.772,67.018 176.464,67.128 176.244,67.183 C176.145,67.216 176.079,67.26 176.079,67.282 C176.079,67.304 176.09,67.337 176.167,67.392 C176.376,67.568 176.453,67.601 176.453,67.678 L176.452083,69.2521713 C176.449028,69.8217778 176.438333,70.2831667 176.42,70.439 C176.376,70.736 176.255,70.835 176.024,70.89 C175.936,70.912 175.859,70.967 175.859,71 C175.859,71.044 175.914,71.066 176.046,71.066 Z M180.908,71.121 C181.535,71.121 181.997,70.901 182.437,70.428 C182.503,70.351 182.547,70.285 182.547,70.252 C182.547,70.197 182.503,70.175 182.415,70.263 C182.151,70.516 181.821,70.615 181.37,70.615 C181.007,70.615 180.567,70.494 180.27,70.164 C179.984,69.845 179.764,69.394 179.764,68.833 C179.764,68.525 179.797,68.36 179.852,68.228 C179.874,68.195 179.929,68.14 179.951,68.14 L180.545,68.14 C180.798,68.14 182.228,68.162 182.316,68.173 C182.371,68.173 182.426,68.107 182.426,68.052 C182.426,67.381 181.733,66.93 181.084,66.93 C180.512,66.93 180.006,67.194 179.709,67.48 C179.247,67.931 179.071,68.58 179.071,69.086 C179.071,69.68 179.269,70.208 179.599,70.56 C179.929,70.912 180.391,71.121 180.908,71.121 Z M179.995,67.986 C179.973,67.986 179.951,67.964 179.951,67.942 C179.951,67.854 180.05,67.645 180.182,67.491 C180.424,67.238 180.699,67.084 180.985,67.084 C181.238,67.084 181.425,67.183 181.535,67.293 C181.656,67.425 181.689,67.623 181.689,67.755 C181.689,67.854 181.667,67.975 181.425,67.975 L179.995,67.986 Z M185.737,71.121 C186.089,71.121 186.43,70.956 186.584,70.648 C186.628,70.549 186.584,70.516 186.518,70.549 C186.397,70.615 186.287,70.648 186.199,70.648 C185.891,70.648 185.792,70.439 185.792,70.23 C185.792,69.944 185.825,68.899 185.825,68.492 C185.825,68.151 185.781,67.7 185.671,67.491 C185.539,67.15 185.198,66.93 184.824,66.93 C184.637,66.93 184.417,66.996 184.164,67.128 C183.944,67.238 183.581,67.469 183.328,67.766 C183.196,67.92 183.119,68.019 183.119,68.096 C183.119,68.14 183.174,68.206 183.229,68.195 C183.306,68.184 183.636,68.03 183.746,67.953 C183.768,67.931 183.79,67.898 183.79,67.865 C183.79,67.788 183.79,67.7 183.801,67.656 C183.823,67.535 183.889,67.458 183.966,67.392 C184.131,67.293 184.241,67.26 184.406,67.26 C184.538,67.26 184.725,67.326 184.868,67.436 C185.055,67.579 185.132,67.887 185.132,68.338 C185.132,68.492 185.132,68.712 185.11,68.844 C185.11,68.888 185.055,68.987 184.967,69.009 C184.736,69.097 183.735,69.394 183.471,69.537 C183.372,69.592 183.075,69.812 183.075,70.164 C183.075,70.736 183.515,71.11 183.955,71.11 C184.373,71.11 184.703,70.923 185.033,70.615 C185.044,70.604 185.077,70.604 185.088,70.626 C185.187,70.879 185.429,71.121 185.737,71.121 Z M184.439,70.692 C184.098,70.692 183.779,70.439 183.779,70.076 C183.779,69.757 183.922,69.592 184.054,69.526 C184.285,69.405 184.923,69.174 185.066,69.152 C185.088,69.141 185.11,69.196 185.11,69.207 C185.11,69.625 185.088,70.065 185.055,70.252 C185.044,70.373 184.978,70.472 184.934,70.516 C184.813,70.626 184.626,70.692 184.439,70.692 Z M188.322,71.099 C188.63,71.099 188.971,71 189.213,70.813 C189.356,70.703 189.455,70.593 189.455,70.527 C189.455,70.483 189.422,70.472 189.345,70.527 C189.246,70.593 189.048,70.692 188.74,70.692 C188.454,70.692 188.223,70.604 188.058,70.395 C187.981,70.285 187.959,70.153 187.937,69.801 C187.926,69.46 187.915,67.733 187.915,67.546 C187.915,67.48 187.937,67.447 188.069,67.447 C188.366,67.447 188.905,67.458 189.29,67.458 C189.345,67.458 189.4,67.37 189.4,67.183 C189.4,67.106 189.356,67.029 189.334,67.029 C189.103,67.029 188.19,67.062 187.992,67.062 C187.948,67.062 187.937,66.996 187.937,66.963 C187.926,66.831 187.948,66.523 187.948,66.424 C187.948,66.369 187.871,66.347 187.772,66.457 C187.508,66.798 187.145,67.095 186.87,67.194 C186.749,67.249 186.738,67.282 186.738,67.304 C186.738,67.348 186.793,67.381 186.881,67.403 C186.98,67.425 187.101,67.447 187.145,67.469 C187.189,67.491 187.2,67.568 187.2,67.689 L187.2,69.966 C187.2,70.23 187.244,70.45 187.332,70.593 C187.519,70.945 187.86,71.099 188.322,71.099 Z M195.318,71.033 C195.483,71.033 195.725,71 195.989,71 C196.242,71 196.627,71.022 196.748,71.022 C196.88,71.022 196.935,71 196.935,70.945 C196.935,70.912 196.891,70.879 196.737,70.846 C196.495,70.802 196.429,70.725 196.418,70.362 L196.374,68.778 C196.374,68.371 196.319,67.953 196.242,67.733 C196.099,67.304 195.736,66.93 195.131,66.93 C194.581,66.93 194.075,67.227 193.624,67.667 C193.602,67.678 193.558,67.667 193.547,67.645 C193.305,67.172 192.953,66.941 192.447,66.941 C191.974,66.941 191.446,67.26 191.083,67.59 C191.039,67.623 191.028,67.557 191.028,67.524 C191.017,67.403 191.028,67.117 191.028,66.996 C191.028,66.93 191.006,66.886 190.973,66.886 C190.929,66.886 190.874,66.908 190.808,66.952 C190.632,67.095 190.291,67.227 190.06,67.282 C189.972,67.304 189.928,67.326 189.928,67.359 L189.939,67.359 C189.939,67.414 189.961,67.436 190.038,67.48 C190.214,67.579 190.28,67.678 190.291,67.865 C190.313,68.074 190.302,68.349 190.302,68.756 L190.301312,69.2676719 C190.29925,69.79825 190.291,70.34275 190.258,70.516 C190.236,70.648 190.236,70.769 189.895,70.846 C189.741,70.868 189.675,70.901 189.675,70.945 C189.675,70.989 189.774,71.022 189.873,71.022 C190.016,71.022 190.247,71 190.588,71 C190.852,71 191.215,71.022 191.424,71.022 C191.501,71.022 191.589,71 191.589,70.945 C191.589,70.912 191.545,70.879 191.424,70.857 C191.16,70.802 191.094,70.67 191.072,70.494 C191.05,70.296 191.006,69.526 191.006,68.712 C191.006,68.338 191.039,68.085 191.05,67.964 C191.061,67.887 191.083,67.777 191.182,67.689 C191.347,67.535 191.622,67.348 192.007,67.348 C192.348,67.348 192.524,67.447 192.678,67.601 C192.898,67.843 192.953,68.096 192.953,68.701 L192.942,70.483 C192.942,70.747 192.832,70.802 192.601,70.846 C192.458,70.879 192.403,70.923 192.403,70.956 C192.403,71 192.458,71.022 192.579,71.022 C192.7,71.022 192.964,71 193.206,71 C193.525,71 193.855,71.022 194.053,71.022 C194.174,71.022 194.24,71 194.24,70.956 C194.24,70.912 194.185,70.901 194.064,70.857 C193.789,70.791 193.756,70.714 193.723,70.406 C193.701,70.109 193.668,68.426 193.646,68.118 C193.646,67.92 193.679,67.799 193.723,67.755 C193.91,67.568 194.251,67.348 194.658,67.348 C195.197,67.348 195.483,67.623 195.582,68.184 C195.626,68.514 195.681,69.042 195.659,70.362 C195.659,70.692 195.604,70.791 195.285,70.857 C195.197,70.879 195.098,70.912 195.098,70.967 C195.098,71.011 195.175,71.033 195.318,71.033 Z M199.3,71.121 C199.927,71.121 200.389,70.901 200.829,70.428 C200.895,70.351 200.939,70.285 200.939,70.252 C200.939,70.197 200.895,70.175 200.807,70.263 C200.543,70.516 200.213,70.615 199.762,70.615 C199.399,70.615 198.959,70.494 198.662,70.164 C198.376,69.845 198.156,69.394 198.156,68.833 C198.156,68.525 198.189,68.36 198.244,68.228 C198.266,68.195 198.321,68.14 198.343,68.14 L198.937,68.14 C199.19,68.14 200.62,68.162 200.708,68.173 C200.763,68.173 200.818,68.107 200.818,68.052 C200.818,67.381 200.125,66.93 199.476,66.93 C198.904,66.93 198.398,67.194 198.101,67.48 C197.639,67.931 197.463,68.58 197.463,69.086 C197.463,69.68 197.661,70.208 197.991,70.56 C198.321,70.912 198.783,71.121 199.3,71.121 Z M198.387,67.986 C198.365,67.986 198.343,67.964 198.343,67.942 C198.343,67.854 198.442,67.645 198.574,67.491 C198.816,67.238 199.091,67.084 199.377,67.084 C199.63,67.084 199.817,67.183 199.927,67.293 C200.048,67.425 200.081,67.623 200.081,67.755 C200.081,67.854 200.059,67.975 199.817,67.975 L198.387,67.986 Z M205.559,71.044 C205.669,71.044 205.757,71.033 205.757,70.967 C205.757,70.923 205.691,70.901 205.592,70.857 C205.295,70.78 205.262,70.714 205.251,69.966 C205.251,69.416 205.24,69.328 205.24,68.745 C205.229,68.118 205.141,67.568 204.888,67.304 C204.745,67.15 204.481,66.93 204.03,66.93 C203.843,66.93 203.612,66.952 203.381,67.062 C203.139,67.161 202.875,67.348 202.6,67.557 C202.578,67.579 202.545,67.546 202.545,67.524 C202.534,67.37 202.556,67.073 202.567,66.941 C202.578,66.886 202.523,66.842 202.49,66.853 C202.303,66.974 201.863,67.161 201.621,67.227 C201.522,67.26 201.467,67.293 201.467,67.315 C201.467,67.348 201.489,67.37 201.555,67.414 C201.819,67.557 201.841,67.678 201.841,67.788 L201.840185,68.7067037 C201.838556,69.3292222 201.833667,69.955 201.819,70.483 C201.808,70.703 201.764,70.78 201.489,70.835 C201.357,70.857 201.258,70.901 201.258,70.945 C201.258,71 201.346,71.022 201.467,71.022 C201.676,71.022 201.907,71 202.05,71 C202.303,71 202.842,71.044 202.93,71.044 C203.04,71.044 203.15,71.044 203.15,70.978 C203.15,70.923 203.095,70.901 202.963,70.868 C202.787,70.813 202.655,70.758 202.622,70.516 C202.6,70.362 202.567,70.076 202.556,69.361 L202.555041,69.0128017 C202.552364,68.5111818 202.545,68.116 202.545,68.008 C202.545,67.92 202.6,67.755 202.677,67.678 C202.963,67.436 203.249,67.326 203.535,67.326 C203.788,67.326 203.997,67.403 204.162,67.535 C204.437,67.744 204.514,68.008 204.514,68.899 L204.514,70.395 C204.514,70.714 204.47,70.791 204.206,70.857 C204.063,70.89 203.997,70.934 203.997,70.978 C203.997,71.022 204.074,71.044 204.173,71.044 C204.338,71.044 204.481,71 204.855,71 C205.097,71 205.416,71.044 205.559,71.044 Z M207.748,71.099 C208.056,71.099 208.397,71 208.639,70.813 C208.782,70.703 208.881,70.593 208.881,70.527 C208.881,70.483 208.848,70.472 208.771,70.527 C208.672,70.593 208.474,70.692 208.166,70.692 C207.88,70.692 207.649,70.604 207.484,70.395 C207.407,70.285 207.385,70.153 207.363,69.801 C207.352,69.46 207.341,67.733 207.341,67.546 C207.341,67.48 207.363,67.447 207.495,67.447 C207.792,67.447 208.331,67.458 208.716,67.458 C208.771,67.458 208.826,67.37 208.826,67.183 C208.826,67.106 208.782,67.029 208.76,67.029 C208.529,67.029 207.616,67.062 207.418,67.062 C207.374,67.062 207.363,66.996 207.363,66.963 C207.352,66.831 207.374,66.523 207.374,66.424 C207.374,66.369 207.297,66.347 207.198,66.457 C206.934,66.798 206.571,67.095 206.296,67.194 C206.175,67.249 206.164,67.282 206.164,67.304 C206.164,67.348 206.219,67.381 206.307,67.403 C206.406,67.425 206.527,67.447 206.571,67.469 C206.615,67.491 206.626,67.568 206.626,67.689 L206.626,69.966 C206.626,70.23 206.67,70.45 206.758,70.593 C206.945,70.945 207.286,71.099 207.748,71.099 Z M173.296,82.066 C173.406,82.066 173.527,82.055 173.527,81.989 C173.527,81.945 173.461,81.912 173.373,81.89 C172.867,81.769 172.801,81.703 172.79,81.285 C172.768,80.79 172.746,79.074 172.757,78.876 C172.757,78.821 172.845,78.733 172.867,78.733 L173.273916,78.7335891 C174.451524,78.7372902 174.610762,78.7581429 174.77,78.788 C174.902,78.821 175.012,78.931 175.1,79.173 C175.166,79.327 175.21,79.415 175.254,79.415 C175.309,79.415 175.331,79.371 175.331,79.228 C175.32,79.085 175.287,78.931 175.287,78.7 C175.287,78.469 175.331,78.139 175.342,78.018 C175.353,77.908 175.331,77.853 175.287,77.853 C175.254,77.853 175.221,77.897 175.166,78.007 C175.001,78.381 174.847,78.414 174.693,78.436 C174.517,78.458 173.989,78.469 172.867,78.469 C172.845,78.469 172.768,78.425 172.768,78.337 C172.746,77.072 172.768,75.807 172.779,75.499 C172.779,75.444 172.856,75.301 172.933,75.301 L173.718892,75.3019613 C174.213621,75.3041243 174.515308,75.3111538 174.759,75.334 C175.155,75.367 175.397,75.532 175.584,75.961 C175.639,76.104 175.672,76.181 175.716,76.181 C175.771,76.181 175.793,76.082 175.771,75.972 C175.749,75.84 175.716,75.356 175.694,75.202 C175.694,75.125 175.617,75.07 175.386,75.07 C174.968,75.07 173.802,75.103 172.647,75.103 C172.163,75.103 171.558,75.059 171.426,75.059 C171.327,75.059 171.261,75.081 171.261,75.125 C171.261,75.18 171.338,75.213 171.437,75.235 C171.833,75.334 171.866,75.433 171.888,75.829 C171.921,76.5 171.921,77.171 171.921,78.337 C171.921,79.547 171.921,80.911 171.888,81.274 C171.866,81.681 171.811,81.769 171.393,81.857 C171.25,81.89 171.195,81.923 171.195,81.967 C171.195,82.022 171.272,82.044 171.371,82.044 C171.525,82.044 171.8,82 172.218,82 C172.669,82 173.142,82.066 173.296,82.066 Z M178.554,82.121 C178.906,82.121 179.247,81.956 179.401,81.648 C179.445,81.549 179.401,81.516 179.335,81.549 C179.214,81.615 179.104,81.648 179.016,81.648 C178.708,81.648 178.609,81.439 178.609,81.23 C178.609,80.944 178.642,79.899 178.642,79.492 C178.642,79.151 178.598,78.7 178.488,78.491 C178.356,78.15 178.015,77.93 177.641,77.93 C177.454,77.93 177.234,77.996 176.981,78.128 C176.761,78.238 176.398,78.469 176.145,78.766 C176.013,78.92 175.936,79.019 175.936,79.096 C175.936,79.14 175.991,79.206 176.046,79.195 C176.123,79.184 176.453,79.03 176.563,78.953 C176.585,78.931 176.607,78.898 176.607,78.865 C176.607,78.788 176.607,78.7 176.618,78.656 C176.64,78.535 176.706,78.458 176.783,78.392 C176.948,78.293 177.058,78.26 177.223,78.26 C177.355,78.26 177.542,78.326 177.685,78.436 C177.872,78.579 177.949,78.887 177.949,79.338 C177.949,79.492 177.949,79.712 177.927,79.844 C177.927,79.888 177.872,79.987 177.784,80.009 C177.553,80.097 176.552,80.394 176.288,80.537 C176.189,80.592 175.892,80.812 175.892,81.164 C175.892,81.736 176.332,82.11 176.772,82.11 C177.19,82.11 177.52,81.923 177.85,81.615 C177.861,81.604 177.894,81.604 177.905,81.626 C178.004,81.879 178.246,82.121 178.554,82.121 Z M177.256,81.692 C176.915,81.692 176.596,81.439 176.596,81.076 C176.596,80.757 176.739,80.592 176.871,80.526 C177.102,80.405 177.74,80.174 177.883,80.152 C177.905,80.141 177.927,80.196 177.927,80.207 C177.927,80.625 177.905,81.065 177.872,81.252 C177.861,81.373 177.795,81.472 177.751,81.516 C177.63,81.626 177.443,81.692 177.256,81.692 Z M181.667,82.121 C182.481,82.121 182.987,81.659 183.185,81.395 C183.251,81.318 183.273,81.263 183.273,81.219 C183.273,81.186 183.218,81.197 183.196,81.219 C182.811,81.56 182.525,81.637 182.052,81.637 C181.722,81.637 181.315,81.516 181.029,81.252 C180.765,81.021 180.479,80.559 180.479,79.822 C180.479,78.557 181.238,78.117 181.7,78.117 C181.821,78.117 181.986,78.139 182.118,78.205 C182.283,78.293 182.558,78.48 182.734,78.656 C182.8,78.722 182.877,78.766 182.921,78.766 C182.998,78.766 183.196,78.623 183.196,78.414 C183.196,78.359 183.163,78.271 183.042,78.205 C182.855,78.062 182.514,77.93 182.041,77.93 C181.326,77.93 180.754,78.249 180.413,78.568 C180.083,78.876 179.742,79.404 179.742,80.097 C179.742,80.702 179.94,81.23 180.292,81.582 C180.655,81.934 181.172,82.121 181.667,82.121 Z M184.637,76.874 C184.78,76.874 185.044,76.753 185.044,76.456 C185.044,76.269 184.912,76.038 184.659,76.038 C184.483,76.038 184.274,76.192 184.274,76.467 C184.274,76.687 184.439,76.874 184.637,76.874 Z M185.242,82.044 C185.33,82.044 185.418,82.022 185.418,81.967 C185.418,81.923 185.363,81.901 185.253,81.879 C185.077,81.835 184.967,81.78 184.945,81.56 C184.923,81.373 184.923,80.559 184.923,79.635 C184.923,78.931 184.923,78.26 184.945,78.04 C184.956,77.919 184.934,77.886 184.901,77.886 C184.879,77.886 184.824,77.908 184.736,77.963 C184.505,78.062 184.241,78.172 183.944,78.249 C183.845,78.271 183.812,78.304 183.812,78.337 C183.812,78.359 183.845,78.392 183.9,78.425 C184.173778,78.5716667 184.212889,78.6401111 184.2182,78.7616694 L184.21814,78.9215807 C184.213976,79.367917 184.195706,80.9608235 184.186,81.252 C184.175,81.703 184.076,81.791 183.834,81.857 C183.68,81.879 183.625,81.912 183.625,81.956 C183.625,82 183.702,82.022 183.779,82.022 C183.9,82.022 184.076,82 184.439,82 C184.736,82 185.143,82.044 185.242,82.044 Z M187.53,82.022 C187.673,82.022 187.75,81.989 187.75,81.945 C187.75,81.912 187.673,81.879 187.607,81.868 C187.299,81.813 187.233,81.736 187.222,81.439 C187.211,81.23 187.2,80.713 187.2,79.327 L187.2,78.161 C187.2,76.511 187.244,74.608 187.244,74.531 C187.244,74.476 187.233,74.41 187.211,74.41 C187.167,74.41 187.112,74.432 187.079,74.443 C186.837,74.531 186.573,74.63 186.254,74.696 C186.155,74.718 186.089,74.751 186.089,74.784 C186.089,74.817 186.122,74.839 186.199,74.883 C186.485,75.059 186.507,75.114 186.507,75.356 C186.518,75.84 186.507,76.742 186.507,77.633 C186.496,78.953 186.452,80.812 186.43,81.219 C186.386,81.703 186.32,81.802 186.045,81.857 C185.902,81.89 185.847,81.901 185.847,81.956 C185.847,82.011 185.902,82.022 186.034,82.022 C186.199,82.022 186.485,82 186.771,82 C186.958,82 187.354,82.022 187.53,82.022 Z M189.29,76.874 C189.433,76.874 189.697,76.753 189.697,76.456 C189.697,76.269 189.565,76.038 189.312,76.038 C189.136,76.038 188.927,76.192 188.927,76.467 C188.927,76.687 189.092,76.874 189.29,76.874 Z M189.895,82.044 C189.983,82.044 190.071,82.022 190.071,81.967 C190.071,81.923 190.016,81.901 189.906,81.879 C189.73,81.835 189.62,81.78 189.598,81.56 C189.576,81.373 189.576,80.559 189.576,79.635 C189.576,78.931 189.576,78.26 189.598,78.04 C189.609,77.919 189.587,77.886 189.554,77.886 C189.532,77.886 189.477,77.908 189.389,77.963 C189.158,78.062 188.894,78.172 188.597,78.249 C188.498,78.271 188.465,78.304 188.465,78.337 C188.465,78.359 188.498,78.392 188.553,78.425 C188.861,78.59 188.872,78.656 188.872,78.81 C188.872,78.92 188.85,80.922 188.839,81.252 C188.828,81.703 188.729,81.791 188.487,81.857 C188.333,81.879 188.278,81.912 188.278,81.956 C188.278,82 188.355,82.022 188.432,82.022 C188.553,82.022 188.729,82 189.092,82 C189.389,82 189.796,82.044 189.895,82.044 Z M192.095,82.099 C192.403,82.099 192.744,82 192.986,81.813 C193.129,81.703 193.228,81.593 193.228,81.527 C193.228,81.483 193.195,81.472 193.118,81.527 C193.019,81.593 192.821,81.692 192.513,81.692 C192.227,81.692 191.996,81.604 191.831,81.395 C191.754,81.285 191.732,81.153 191.71,80.801 C191.699,80.46 191.688,78.733 191.688,78.546 C191.688,78.48 191.71,78.447 191.842,78.447 C192.139,78.447 192.678,78.458 193.063,78.458 C193.118,78.458 193.173,78.37 193.173,78.183 C193.173,78.106 193.129,78.029 193.107,78.029 C192.876,78.029 191.963,78.062 191.765,78.062 C191.721,78.062 191.71,77.996 191.71,77.963 C191.699,77.831 191.721,77.523 191.721,77.424 C191.721,77.369 191.644,77.347 191.545,77.457 C191.281,77.798 190.918,78.095 190.643,78.194 C190.522,78.249 190.511,78.282 190.511,78.304 C190.511,78.348 190.566,78.381 190.654,78.403 C190.753,78.425 190.874,78.447 190.918,78.469 C190.962,78.491 190.973,78.568 190.973,78.689 L190.973,80.966 C190.973,81.23 191.017,81.45 191.105,81.593 C191.292,81.945 191.633,82.099 192.095,82.099 Z M194.185,85.08 C194.306,85.08 194.438,85.047 194.548,84.893 C194.625,84.794 194.68,84.684 194.757,84.486 C194.911,84.112 195.329,82.968 195.593,82.33 C195.824,81.736 195.923,81.483 196.055,81.12 C196.22,80.702 196.902,79.008 197.034,78.733 C197.21,78.326 197.32,78.249 197.54,78.183 C197.65,78.15 197.694,78.106 197.694,78.073 C197.694,78.04 197.628,78.029 197.562,78.029 C197.397,78.029 197.254,78.062 197.056,78.062 C196.891,78.062 196.66,78.029 196.528,78.029 C196.429,78.029 196.374,78.051 196.374,78.095 C196.374,78.128 196.407,78.161 196.572,78.194 C196.759,78.249 196.814,78.337 196.814,78.414 C196.814,78.469 196.814,78.601 196.759,78.733 C196.671,78.986 196.055,80.57 195.912,80.944 C195.901,80.977 195.868,80.988 195.846,80.944 C195.626,80.482 195.021,78.997 194.878,78.612 C194.779,78.326 194.801,78.271 195.043,78.194 C195.109,78.183 195.186,78.15 195.186,78.106 C195.186,78.062 195.109,78.029 194.999,78.029 C194.856,78.029 194.57,78.062 194.416,78.062 C194.152,78.062 193.844,78.018 193.646,78.018 C193.569,78.018 193.47,78.04 193.47,78.095 C193.47,78.128 193.536,78.172 193.668,78.205 C193.855,78.249 193.987,78.359 194.064,78.502 C194.559,79.58 195.263,81.362 195.428,81.791 C195.461,81.89 195.483,82 195.439,82.143 C195.065,83.1 194.746,84.002 194.636,84.233 C194.57,84.387 194.482,84.42 194.35,84.42 L194.13,84.398 L194.13,84.398 C193.965,84.398 193.822,84.552 193.822,84.717 C193.822,84.937 194.009,85.08 194.185,85.08 Z"/>
    <path fill="#333838" fill-rule="nonzero" d="M7.5785,11.121 C7.7875,11.121 7.9855,11.11 8.0845,11.066 C8.1615,11.044 8.2055,11 8.2055,10.978 C8.2055,10.945 8.1395,10.912 8.0625,10.912 C7.8535,10.901 7.5675,10.824 7.2375,10.483 C7.0065,10.252 6.7755,9.966 6.4345,9.482 C6.0825,8.965 5.4555,7.942 5.2465,7.524 C5.2025,7.414 5.1915,7.348 5.2355,7.326 C5.4005,7.26 5.6975,7.139 5.8625,6.985 C6.1155,6.798 6.4895,6.468 6.4895,5.753 C6.4895,5.247 6.2805,4.774 5.8075,4.433 C5.4445,4.169 4.9935,4.037 4.3335,4.037 C3.7615,4.037 3.4645,4.092 3.0025,4.092 C2.6175,4.092 2.2985,4.059 2.1445,4.059 C2.0125,4.059 1.9465,4.081 1.9465,4.125 C1.9465,4.18 2.0345,4.202 2.1335,4.224 C2.5955,4.301 2.6065,4.466 2.6285,4.774 C2.64920588,5.126 2.68939965,5.76057439 2.69405669,7.10874944 L2.6945,7.37 C2.6945,8.745 2.6725,9.625 2.6395,10.252 C2.6065,10.703 2.4965,10.802 2.1335,10.879 C1.9905,10.901 1.9245,10.934 1.9245,10.978 C1.9245,11.033 2.0015,11.055 2.1115,11.055 C2.3205,11.055 2.7165,11 3.1125,11 C3.5195,11 3.8495,11.055 4.0475,11.055 C4.1685,11.055 4.2565,11.022 4.2565,10.978 C4.2565,10.934 4.2125,10.901 4.0915,10.879 C3.7065,10.813 3.6185,10.692 3.5855,10.56 C3.5415,10.461 3.4975,10.098 3.4975,9.515 C3.4865,9.097 3.4865,7.821 3.5085,7.689 C3.5195,7.634 3.5635,7.59 3.6075,7.579 C3.8385,7.568 3.9705,7.59 4.0695,7.612 C4.2125,7.634 4.3225,7.733 4.4655,7.92 C4.6855,8.261 5.4885,9.603 5.9725,10.241 C6.4125,10.813 6.8965,11.121 7.5785,11.121 Z M3.8385,7.414 C3.7615,7.414 3.6295,7.414 3.5745,7.392 C3.5305,7.392 3.4865,7.348 3.4865,7.205 L3.48689232,7.0702085 C3.48894444,6.53291358 3.49872222,4.69577778 3.5085,4.51 C3.5195,4.323 3.5525,4.312 3.5745,4.301 C3.6295,4.257 3.7835,4.224 3.9265,4.224 C4.4765,4.224 4.8615,4.356 5.1805,4.664 C5.4665,4.95 5.6205,5.368 5.6205,5.929 C5.6205,6.523 5.3125,6.952 5.0045,7.172 C4.7625,7.326 4.1245,7.403 3.8385,7.414 Z M9.3165,5.874 C9.4595,5.874 9.7235,5.753 9.7235,5.456 C9.7235,5.269 9.5915,5.038 9.3385,5.038 C9.1625,5.038 8.9535,5.192 8.9535,5.467 C8.9535,5.687 9.1185,5.874 9.3165,5.874 Z M9.9215,11.044 C10.0095,11.044 10.0975,11.022 10.0975,10.967 C10.0975,10.923 10.0425,10.901 9.9325,10.879 C9.7565,10.835 9.6465,10.78 9.6245,10.56 C9.60721429,10.4130714 9.6035102,9.87906633 9.60271647,9.20875984 L9.60294628,8.07484298 C9.60413636,7.59854545 9.6085,7.2 9.6245,7.04 C9.6355,6.919 9.6135,6.886 9.5805,6.886 C9.5585,6.886 9.5035,6.908 9.4155,6.963 C9.1845,7.062 8.9205,7.172 8.6235,7.249 C8.5245,7.271 8.4915,7.304 8.4915,7.337 C8.4915,7.359 8.5245,7.392 8.5795,7.425 C8.8875,7.59 8.8985,7.656 8.8985,7.81 C8.8985,7.92 8.8765,9.922 8.8655,10.252 C8.8545,10.703 8.7555,10.791 8.5135,10.857 C8.3595,10.879 8.3045,10.912 8.3045,10.956 C8.3045,11 8.3815,11.022 8.4585,11.022 C8.5795,11.022 8.7555,11 9.1185,11 C9.4155,11 9.8225,11.044 9.9215,11.044 Z M12.3195,11.154 C12.3525,11.154 12.3965,11.132 12.4515,10.967 C12.5725,10.582 12.7705,10.197 12.9795,9.735 C13.0895,9.471 13.6505,8.239 13.9035,7.689 C14.0355,7.381 14.1565,7.249 14.3765,7.194 C14.4755,7.161 14.5415,7.139 14.5415,7.095 C14.5415,7.051 14.4645,7.029 14.3875,7.029 C14.2885,7.029 14.0025,7.062 13.8265,7.062 C13.5845,7.062 13.4195,7.029 13.2875,7.029 C13.1995,7.029 13.1555,7.04 13.1555,7.073 C13.1555,7.117 13.1995,7.15 13.2875,7.172 C13.5845,7.238 13.6505,7.359 13.6505,7.425 C13.6505,7.557 13.5955,7.678 13.5295,7.876 C13.3975,8.272 12.7815,9.735 12.6385,9.999 C12.6275,10.032 12.6055,10.021 12.5945,9.977 C12.4515,9.713 11.7915,8.008 11.6925,7.667 C11.6045,7.337 11.6265,7.271 11.9125,7.194 C12.0005,7.172 12.0665,7.139 12.0665,7.095 C12.0665,7.051 12.0115,7.029 11.9015,7.029 C11.7255,7.029 11.5385,7.062 11.2415,7.062 C10.9115,7.062 10.7245,7.018 10.4165,7.018 C10.2845,7.018 10.2295,7.051 10.2295,7.095 C10.2295,7.128 10.2845,7.161 10.3835,7.183 C10.6585,7.249 10.7685,7.359 10.8785,7.568 C11.0655,7.92 11.7145,9.636 11.9125,10.142 C12.0665,10.56 12.1435,10.824 12.1985,10.989 C12.2425,11.143 12.2865,11.154 12.3195,11.154 Z M16.5215,11.121 C17.1485,11.121 17.6105,10.901 18.0505,10.428 C18.1165,10.351 18.1605,10.285 18.1605,10.252 C18.1605,10.197 18.1165,10.175 18.0285,10.263 C17.7645,10.516 17.4345,10.615 16.9835,10.615 C16.6205,10.615 16.1805,10.494 15.8835,10.164 C15.5975,9.845 15.3775,9.394 15.3775,8.833 C15.3775,8.525 15.4105,8.36 15.4655,8.228 C15.4875,8.195 15.5425,8.14 15.5645,8.14 L16.1585,8.14 C16.4115,8.14 17.8415,8.162 17.9295,8.173 C17.9845,8.173 18.0395,8.107 18.0395,8.052 C18.0395,7.381 17.3465,6.93 16.6975,6.93 C16.1255,6.93 15.6195,7.194 15.3225,7.48 C14.8605,7.931 14.6845,8.58 14.6845,9.086 C14.6845,9.68 14.8825,10.208 15.2125,10.56 C15.5425,10.912 16.0045,11.121 16.5215,11.121 Z M15.6085,7.986 C15.5865,7.986 15.5645,7.964 15.5645,7.942 C15.5645,7.854 15.6635,7.645 15.7955,7.491 C16.0375,7.238 16.3125,7.084 16.5985,7.084 C16.8515,7.084 17.0385,7.183 17.1485,7.293 C17.2695,7.425 17.3025,7.623 17.3025,7.755 C17.3025,7.854 17.2805,7.975 17.0385,7.975 L15.6085,7.986 Z M18.6555,11.066 C18.8095,11.066 18.9305,11 19.3265,11 C19.7885,11 20.1515,11.044 20.3605,11.044 C20.5255,11.044 20.6245,11.022 20.6245,10.967 C20.6245,10.912 20.5695,10.89 20.4155,10.868 C19.9975,10.824 19.8655,10.747 19.8215,10.406 C19.7995,10.175 19.7775,9.603 19.7775,8.789 C19.7775,8.569 19.7665,8.25 19.7885,8.118 C19.7995,7.986 19.8545,7.865 19.9755,7.733 C20.1185,7.601 20.2945,7.513 20.4595,7.513 C20.5805,7.513 20.7235,7.568 20.8445,7.645 C20.9655,7.711 21.0205,7.722 21.0425,7.722 C21.0755,7.722 21.1195,7.711 21.2185,7.623 C21.3505,7.502 21.4605,7.326 21.4605,7.249 C21.4605,7.194 21.4385,7.139 21.3835,7.095 C21.2735,7.007 21.1305,6.952 20.9985,6.952 C20.5585,6.952 20.1185,7.359 19.8105,7.744 C19.7775,7.777 19.7555,7.766 19.7555,7.733 C19.7555,7.557 19.7665,7.139 19.7665,7.018 C19.7665,6.908 19.7445,6.864 19.7225,6.864 C19.6895,6.864 19.6345,6.875 19.5575,6.919 C19.3815,7.018 19.0735,7.128 18.8535,7.183 C18.7545,7.216 18.6885,7.26 18.6885,7.282 C18.6885,7.304 18.6995,7.337 18.7765,7.392 C18.9855,7.568 19.0625,7.601 19.0625,7.678 L19.0625,8.899 C19.0625,9.625 19.0515,10.252 19.0295,10.439 C18.9855,10.736 18.8645,10.835 18.6335,10.89 C18.5455,10.912 18.4685,10.967 18.4685,11 C18.4685,11.044 18.5235,11.066 18.6555,11.066 Z M6.77,23.209 C6.825,23.209 6.858,23.143 6.935,22.956 C7.441,21.746 8.332,19.667 9.025,18.149 C9.718,16.587 9.916,16.356 10.378,16.235 C10.576,16.202 10.631,16.158 10.631,16.114 C10.631,16.07 10.576,16.059 10.433,16.059 C10.235,16.059 9.938,16.103 9.63,16.103 C9.3,16.103 9.146,16.059 8.86,16.059 C8.706,16.059 8.673,16.081 8.673,16.125 C8.673,16.169 8.739,16.191 8.915,16.246 C9.278,16.356 9.289,16.543 9.234,16.785 C9.003,17.599 7.672,20.679 7.144,21.823 C7.111,21.889 7.089,21.9 7.045,21.823 C6.671,20.998 6.187,19.953 5.912,19.304 C5.89,19.249 5.89,19.194 5.901,19.172 C6.088,18.831 6.627,17.742 6.913,17.192 C7.276,16.554 7.485,16.323 7.892,16.235 C8.046,16.202 8.101,16.169 8.101,16.114 C8.101,16.07 8.046,16.059 7.914,16.059 C7.661,16.059 7.485,16.103 7.1,16.103 C6.814,16.103 6.638,16.07 6.363,16.07 C6.231,16.07 6.165,16.092 6.165,16.125 C6.165,16.169 6.198,16.213 6.396,16.257 C6.869,16.367 6.88,16.477 6.539,17.28 C6.308,17.819 6.077,18.325 5.813,18.864 C5.78,18.919 5.736,18.908 5.725,18.886 C5.362,18.05 5.032,17.302 4.856,16.84 C4.691,16.433 4.801,16.301 5.098,16.246 C5.241,16.213 5.307,16.18 5.307,16.125 C5.307,16.081 5.23,16.059 5.12,16.059 C4.867,16.059 4.614,16.103 4.218,16.103 C3.822,16.103 3.613,16.059 3.294,16.059 C3.151,16.059 3.085,16.092 3.085,16.125 C3.085,16.18 3.14,16.224 3.316,16.257 C3.657,16.345 3.745,16.477 4.064,17.159 C4.306,17.687 5.043,19.359 5.219,19.777 C5.219,19.799 5.219,19.876 5.197,19.909 C4.9,20.613 4.636,21.163 4.328,21.79 C4.295,21.845 4.251,21.867 4.218,21.79 C3.47,20.14 2.381,17.797 1.919,16.653 C1.842,16.455 1.842,16.323 2.15,16.268 C2.282,16.246 2.348,16.213 2.348,16.158 C2.348,16.114 2.282,16.081 2.128,16.081 C1.897,16.081 1.633,16.103 1.391,16.103 C1.061,16.103 0.61,16.059 0.346,16.059 C0.203,16.059 0.126,16.103 0.126,16.136 C0.126,16.18 0.225,16.224 0.357,16.235 C0.775,16.29 0.863,16.488 1.259,17.346 C1.776,18.424 2.513,20.052 3.118,21.449 C3.261,21.779 3.602,22.582 3.745,22.945 C3.822,23.143 3.844,23.209 3.91,23.209 C3.954,23.209 4.02,23.121 4.086,22.945 C4.328,22.307 4.911,21.02 5.329,20.206 C5.351,20.173 5.384,20.173 5.406,20.217 C5.725,20.921 6.352,22.285 6.583,22.956 C6.649,23.132 6.693,23.209 6.77,23.209 Z M12.017,23.121 C12.369,23.121 12.71,22.956 12.864,22.648 C12.908,22.549 12.864,22.516 12.798,22.549 C12.677,22.615 12.567,22.648 12.479,22.648 C12.171,22.648 12.072,22.439 12.072,22.23 C12.072,21.944 12.105,20.899 12.105,20.492 C12.105,20.151 12.061,19.7 11.951,19.491 C11.819,19.15 11.478,18.93 11.104,18.93 C10.917,18.93 10.697,18.996 10.444,19.128 C10.224,19.238 9.861,19.469 9.608,19.766 C9.476,19.92 9.399,20.019 9.399,20.096 C9.399,20.14 9.454,20.206 9.509,20.195 C9.586,20.184 9.916,20.03 10.026,19.953 C10.048,19.931 10.07,19.898 10.07,19.865 C10.07,19.788 10.07,19.7 10.081,19.656 C10.103,19.535 10.169,19.458 10.246,19.392 C10.411,19.293 10.521,19.26 10.686,19.26 C10.818,19.26 11.005,19.326 11.148,19.436 C11.335,19.579 11.412,19.887 11.412,20.338 C11.412,20.492 11.412,20.712 11.39,20.844 C11.39,20.888 11.335,20.987 11.247,21.009 C11.016,21.097 10.015,21.394 9.751,21.537 C9.652,21.592 9.355,21.812 9.355,22.164 C9.355,22.736 9.795,23.11 10.235,23.11 C10.653,23.11 10.983,22.923 11.313,22.615 C11.324,22.604 11.357,22.604 11.368,22.626 C11.467,22.879 11.709,23.121 12.017,23.121 Z M10.719,22.692 C10.378,22.692 10.059,22.439 10.059,22.076 C10.059,21.757 10.202,21.592 10.334,21.526 C10.565,21.405 11.203,21.174 11.346,21.152 C11.368,21.141 11.39,21.196 11.39,21.207 C11.39,21.625 11.368,22.065 11.335,22.252 C11.324,22.373 11.258,22.472 11.214,22.516 C11.093,22.626 10.906,22.692 10.719,22.692 Z M14.602,23.099 C14.91,23.099 15.251,23 15.493,22.813 C15.636,22.703 15.735,22.593 15.735,22.527 C15.735,22.483 15.702,22.472 15.625,22.527 C15.526,22.593 15.328,22.692 15.02,22.692 C14.734,22.692 14.503,22.604 14.338,22.395 C14.261,22.285 14.239,22.153 14.217,21.801 C14.206,21.46 14.195,19.733 14.195,19.546 C14.195,19.48 14.217,19.447 14.349,19.447 C14.646,19.447 15.185,19.458 15.57,19.458 C15.625,19.458 15.68,19.37 15.68,19.183 C15.68,19.106 15.636,19.029 15.614,19.029 C15.383,19.029 14.47,19.062 14.272,19.062 C14.228,19.062 14.217,18.996 14.217,18.963 C14.206,18.831 14.228,18.523 14.228,18.424 C14.228,18.369 14.151,18.347 14.052,18.457 C13.788,18.798 13.425,19.095 13.15,19.194 C13.029,19.249 13.018,19.282 13.018,19.304 C13.018,19.348 13.073,19.381 13.161,19.403 C13.26,19.425 13.381,19.447 13.425,19.469 C13.469,19.491 13.48,19.568 13.48,19.689 L13.48,21.966 C13.48,22.23 13.524,22.45 13.612,22.593 C13.799,22.945 14.14,23.099 14.602,23.099 Z M17.825,23.121 C18.452,23.121 18.914,22.901 19.354,22.428 C19.42,22.351 19.464,22.285 19.464,22.252 C19.464,22.197 19.42,22.175 19.332,22.263 C19.068,22.516 18.738,22.615 18.287,22.615 C17.924,22.615 17.484,22.494 17.187,22.164 C16.901,21.845 16.681,21.394 16.681,20.833 C16.681,20.525 16.714,20.36 16.769,20.228 C16.791,20.195 16.846,20.14 16.868,20.14 L17.462,20.14 C17.715,20.14 19.145,20.162 19.233,20.173 C19.288,20.173 19.343,20.107 19.343,20.052 C19.343,19.381 18.65,18.93 18.001,18.93 C17.429,18.93 16.923,19.194 16.626,19.48 C16.164,19.931 15.988,20.58 15.988,21.086 C15.988,21.68 16.186,22.208 16.516,22.56 C16.846,22.912 17.308,23.121 17.825,23.121 Z M16.912,19.986 C16.89,19.986 16.868,19.964 16.868,19.942 C16.868,19.854 16.967,19.645 17.099,19.491 C17.341,19.238 17.616,19.084 17.902,19.084 C18.155,19.084 18.342,19.183 18.452,19.293 C18.573,19.425 18.606,19.623 18.606,19.755 C18.606,19.854 18.584,19.975 18.342,19.975 L16.912,19.986 Z M19.959,23.066 C20.113,23.066 20.234,23 20.63,23 C21.092,23 21.455,23.044 21.664,23.044 C21.829,23.044 21.928,23.022 21.928,22.967 C21.928,22.912 21.873,22.89 21.719,22.868 C21.301,22.824 21.169,22.747 21.125,22.406 C21.103,22.175 21.081,21.603 21.081,20.789 C21.081,20.569 21.07,20.25 21.092,20.118 C21.103,19.986 21.158,19.865 21.279,19.733 C21.422,19.601 21.598,19.513 21.763,19.513 C21.884,19.513 22.027,19.568 22.148,19.645 C22.269,19.711 22.324,19.722 22.346,19.722 C22.379,19.722 22.423,19.711 22.522,19.623 C22.654,19.502 22.764,19.326 22.764,19.249 C22.764,19.194 22.742,19.139 22.687,19.095 C22.577,19.007 22.434,18.952 22.302,18.952 C21.862,18.952 21.422,19.359 21.114,19.744 C21.081,19.777 21.059,19.766 21.059,19.733 C21.059,19.557 21.07,19.139 21.07,19.018 C21.07,18.908 21.048,18.864 21.026,18.864 C20.993,18.864 20.938,18.875 20.861,18.919 C20.685,19.018 20.377,19.128 20.157,19.183 C20.058,19.216 19.992,19.26 19.992,19.282 C19.992,19.304 20.003,19.337 20.08,19.392 C20.289,19.568 20.366,19.601 20.366,19.678 L20.366,20.899 C20.366,21.625 20.355,22.252 20.333,22.439 C20.289,22.736 20.168,22.835 19.937,22.89 C19.849,22.912 19.772,22.967 19.772,23 C19.772,23.044 19.827,23.066 19.959,23.066 Z" transform="translate(215.799 104)"/>
    <g fill-rule="nonzero" stroke-linecap="round" transform="translate(206.694 86.954)">
      <g stroke="#222F3C" stroke-width=".4" transform="translate(16.45 5.021)">
        <g transform="translate(1.636 1.983)">
          <path d="M.0723769531 1.483L.447621094 2.19296094.036 2.93954297M.0362548828 2.959L.411621094 3.66896094 0 4.41554297M.110254883 0L.485621094.710205078.074 1.45654297"/>
        </g>
        <path d="M.0733769531 1.483L.448621094 2.19296094.037 2.93954297M.0363769531 2.959L.411621094 3.66920508 0 4.41554297M.110376953 0L.485621094.710205078.074 1.45654297"/>
        <g transform="translate(3.978)">
          <g transform="translate(1.636 1.983)">
            <path d="M.0733769531 1.483L.448621094 2.19296094.037 2.93954297M.0363769531 2.959L.411621094 3.66896094 0 4.41554297M.110376953 0L.485621094.710205078.074 1.45654297"/>
          </g>
          <path d="M.0733769531 1.483L.448743164 2.19296094.037 2.93954297M.0363769531 2.959L.411621094 3.66920508 0 4.41554297M.110254883 0L.485621094.710205078.074 1.45654297"/>
        </g>
        <g transform="translate(7.956)">
          <g transform="translate(1.636 1.983)">
            <path d="M.0732548828 1.483L.448621094 2.19296094.037 2.93954297M.0363769531 2.959L.411621094 3.66896094 0 4.41554297M.110376953 0L.485621094.710205078.074 1.45654297"/>
          </g>
          <path d="M.0733769531 1.483L.448621094 2.19296094.037 2.93954297M.0363769531 2.959L.411621094 3.66920508 0 4.41554297M.110376953 0L.485621094.710205078.074 1.45654297"/>
        </g>
        <g transform="translate(11.935)">
          <path d="M.0723769531 1.483L.447621094 2.19296094.036 2.93954297M.0363769531 2.959L.411621094 3.66920508 0 4.41554297M.109376953 0L.484621094.710205078.073 1.45654297"/>
        </g>
      </g>
      <g stroke="#231F20" stroke-linejoin="round" stroke-width=".5" transform="translate(6.195)">
        <path d="M20.5140381 2.53884053C9.46606445-.790993457 5.12304687.219016309 0 2.41896748M20.027 2.3918457C29.5970684 4.7668457 35.1400371 5.20996094 44.8939434 0"/>
      </g>
      <g stroke="#231F20" stroke-linejoin="round" stroke-width=".5" transform="translate(0 13.071)">
        <path d="M9.67199707.74403125C4.36901855 2.34193164 1.68798828 2.38807422 0 .162M9.438.814451554C14.0319941-.325685165 16.6920283-.53857579 21.3740352 1.96240077"/>
      </g>
      <path stroke="#231F20" stroke-linejoin="round" stroke-width=".5" d="M11.9840088,0.422119141 C7.46789551,1.83813477 4.82495117,2.2121582 0,0" transform="translate(20.974 14.853)"/>
    </g>
    <g transform="translate(63 52.811)">
      <g transform="translate(0 14.93)">
        <g transform="translate(9.223)">
          <g fill-rule="nonzero" stroke="#222F3C" stroke-linecap="round" stroke-linejoin="round" stroke-width=".5" transform="translate(.584 7.493)">
            <g transform="translate(10.711 5.163)">
              <line x1="7.64" x2="7.64" y1="4.29" y2="6.487"/>
              <g transform="translate(.623 9.128)">
                <g transform="translate(0 1.02)">
                  <line x1="16.046" x2="16.046" y2="3.627"/>
                  <line y2="3.627"/>
                </g>
                <rect width="4.267" height="4.718" x="4.864" rx="1" transform="rotate(-180 6.997 2.359)"/>
                <line y2="3.627" transform="translate(26.569 1.02)"/>
              </g>
              <path d="M23.5020225,8.61938477 L15.3002402,8.61938477 L7.68537207,0 L21.2326133,0 L22.4645469,1.45678711"/>
              <line x1="7.615" y1=".012" y2="8.632"/>
            </g>
            <line x1="7.64" x2="7.64" y1="4.289" y2="6.486"/>
            <g transform="translate(.623 9.021)">
              <line y2="3.627" transform="translate(0 1.029)"/>
              <rect width="4.267" height="4.718" x="4.864" rx="1" transform="rotate(-180 6.997 2.359)"/>
            </g>
            <path d="M15.3001777,8.61938477 L7.68530957,0 L21.2325508,0 L25.8477852,5.13061523"/>
            <line x1="7.615" y1=".012" y2="8.631"/>
          </g>
          <g transform="translate(44.852 3.326)">
            <g transform="translate(0 9.33)">
              <g transform="translate(0 9.021)">
                <rect width="4.267" height="4.718" x="17.438" stroke="#222F3C" stroke-linecap="round" stroke-linejoin="round" stroke-width=".5" rx="1"/>
              </g>
              <g fill-rule="nonzero" stroke="#222F3C" stroke-linecap="round" stroke-linejoin="round" stroke-width=".5" transform="translate(2.528)">
                <path d="M0,8.61938477 L9.36437988,8.61938477 L16.979248,0 L3.43200684,0 L0.0266113281,4.01074219"/>
                <line x1="17.049" x2="24.664" y1=".012" y2="8.632"/>
              </g>
            </g>
            <g fill-rule="nonzero" stroke="#222F3C" stroke-linecap="round" stroke-linejoin="round" stroke-width=".5" transform="translate(12.056)">
              <path d="M4.26696777,2.50097656 L4.26696777,1 C4.26696777,0.447998047 3.81896973,0 3.26696777,0 L1,0 C0.447998047,0 0,0.447998047 0,1 L0,3.71777344 C0,4.26977539 0.447998047,4.71777344 1,4.71777344 L2.26696777,4.71777344" transform="translate(16.093 13.241)"/>
              <g transform="translate(0 4.167)">
                <path d="M10.5476074,8.61938477 L18.1624756,0 L4.61523437,0 L0,5.13061523"/>
                <line x1="18.232" x2="25.847" y1=".012" y2="8.631"/>
              </g>
              <g transform="translate(4.234)">
                <path d="M12.4024658,4.13012695 L16.0585938,0 L2.51135254,0 L0,2.83740234"/>
                <line x1="16.129" x2="23.744" y1=".012" y2="8.632"/>
              </g>
              <line y2="3.703" transform="translate(27.331 10.148)"/>
            </g>
          </g>
          <g fill-rule="nonzero" stroke="#222F3C" stroke-linecap="round" stroke-linejoin="round" stroke-width=".5">
            <path d="M0,0 L9.17028809,0 L12.5554199,3.5222168" transform="translate(22.773 5.164)"/>
            <path d="M11.5316074,4.10717773 L7.68492773,0 L21.2321689,0 L25.8472812,5.13061523"/>
            <line x1="7.615" y1=".012" y2="8.631"/>
          </g>
        </g>
        <g fill-rule="nonzero" stroke="#222F3C" stroke-linecap="round" stroke-linejoin="round" stroke-width=".5" transform="translate(0 21.233)">
          <line x1="103.57" x2="16.852" y1="5.289" y2="5.289"/>
          <line x1="16.232"/>
        </g>
        <g fill-rule="nonzero" stroke="#222F3C" stroke-linecap="round" stroke-linejoin="round" stroke-width=".5" transform="translate(41.399 11.133)">
          <path d="M8.55407715,2.8269043 C8.4630127,1.25195312 7.10205078,0 5.4329834,0 C3.76306152,0 2.40307617,1.25195312 2.31103516,2.8269043 C0.979980469,3.171875 0,4.33203125 0,5.71386719 C0,7.0949707 0.979003906,8.25488281 2.3079834,8.60009766 C2.30700684,8.63598633 2.30200195,8.671875 2.30200195,8.70800781 C2.30200195,10.3620605 3.70397949,11.7019043 5.4329834,11.7019043 C7.1619873,11.7019043 8.56298828,10.3620605 8.56298828,8.70800781 C8.56298828,8.671875 8.55908203,8.63598633 8.5579834,8.60009766"/>
          <line x1="5.47" x2="7.921" y1="6.562" y2="4.35"/>
          <line x1="5.297" x2="3.195" y1="7.859" y2="5.097"/>
          <g transform="translate(8.609 3.467)">
            <path d="M0,5.11987305 C0.247070312,5.86889648 0.873046875,6.45703125 1.67602539,6.66381836 C1.67504883,6.69189453 1.67199707,6.71899414 1.67199707,6.74682617 C1.67199707,8.02783203 2.76599121,9.06689453 4.11706543,9.06689453 C5.46704102,9.06689453 6.56201172,8.02783203 6.56201172,6.74682617 C6.56201172,6.71899414 6.5579834,6.69189453 6.55700684,6.66381836 C7.59606934,6.39599609 8.36096191,5.49682617 8.36096191,4.42700195 C8.36096191,3.35595703 7.5949707,2.45703125 6.55505371,2.18994141 C6.48303223,0.969970703 5.42102051,0 4.11706543,0 C3.22998047,0 2.4630127,0.452880859 2.03503418,1.12304688"/>
            <line x1="4.142" x2="6.06" y1="5.288" y2="3.37"/>
            <line x1="4.011" x2="2.369" y1="6.089" y2="3.949"/>
          </g>
        </g>
        <g transform="translate(23.163 31.655)">
          <g fill-rule="nonzero" stroke="#231F20" stroke-linecap="round" stroke-linejoin="round" stroke-width=".4">
            <path d="M0.109008789,10.5600586 C0.0480957031,10.5600586 0,10.5109863 0,10.4509277 L0,0.108886719 C0,0.0490722656 0.0480957031,0 0.109008789,0 L8.70202637,0 C8.72302246,0 8.74304199,0.00610351562 8.76098633,0.0170898438 C8.8470459,0.0729980469 10.8500977,1.36889648 11.4760742,3.03710937 C11.6690674,3.04101562 12.2349854,3.02294922 12.6199951,2.6730957 C12.8830566,2.43408203 13.0159912,2.08203125 13.0159912,1.62597656" transform="translate(1.164)"/>
            <g transform="translate(9.113 3.25)">
              <path d="M0.658008789,7.30995117 C0.597950195,7.30995117 0.549,7.26087891 0.549,7.20082031 L0.549,4.485"/>
              <path d="M5.55090332,0 L7.51000977,2.93896484 C7.52197266,2.95605469 7.52893066,2.97705078 7.52893066,2.99902344 L7.52893066,4.32592773 C7.52893066,4.38598633 7.47998047,4.43505859 7.41894531,4.43505859 L2.94689941,4.43505859 L2.94689941,7.20092773 C2.94689941,7.26098633 2.89892578,7.31005859 2.83789062,7.31005859 L1.70092773,7.31005859 C1.64099121,7.31005859 1.59191895,7.26098633 1.59191895,7.20092773 L1.59191895,4.46704102 L0,4.46704102"/>
            </g>
            <path d="M1.31994629,1.70703125 L1.31994629,2.76904297 C1.31994629,2.82788086 1.27197266,2.875 1.21398926,2.875 L0.105957031,2.875 C0.0469970703,2.875 0,2.82788086 0,2.76904297 L0,0" transform="translate(2.224 7.685)"/>
            <path d="M5.89196777,0 L1.83093262,0 C1.8059082,0.987792969 0.994018555,1.78491211 0,1.78491211" transform="translate(3.879 7.714)"/>
            <path d="M0,4.01196289 L0,3.18481445 C0,3.15600586 0.0109863281,3.12890625 0.0319824219,3.10791016 L0.405029297,2.73486328 L0.405029297,0" transform="translate(0 1.068)"/>
            <g transform="translate(13.955 4.764)">
              <path d="M0.869995117,0 C0.869995117,0.0600585938 0.821044922,0.109130859 0.760986328,0.109130859 L0.109985352,0.109130859 C0.0490722656,0.109130859 0,0.0600585938 0,0"/>
            </g>
            <g transform="translate(9.31 10.451)">
              <path d="M7.33203125,0 C7.33203125,0.0600585938 7.28308105,0.109130859 7.2220459,0.109130859 L0,0.109130859"/>
            </g>
          </g>
        </g>
        <g fill-rule="nonzero" stroke="#222F3C" stroke-linecap="round" stroke-linejoin="round" stroke-width=".4" transform="translate(44.078 33.987)">
          <g transform="translate(2.15)">
            <g transform="translate(0 1.244)">
              <path d="M2.53503418,8.50219727 L1.32299805,7.30908203 L0.0360107422,6.34399414 C0.0140380859,6.32714844 0,6.30102539 0,6.27197266 L0,5.79711914 C0,5.76000977 0.0240478516,5.72607422 0.0600585938,5.71313477 L1.22802734,5.29907227 C2.27807617,4.92700195 3.375,4.73901367 4.48901367,4.73901367 L5.45300293,4.73901367 L5.45410156,0.0891113281 C5.45410156,0.0400390625 5.49401855,0 5.54406738,0 L7.15710449,0 C7.18005371,0 7.20202637,0.00805664062 7.21899414,0.0241699219 L7.92407227,0.685058594 L8.25805664,0.800048828 C8.27099609,0.805175781 8.28308105,0.812011719 8.29199219,0.822021484 L8.77905273,1.30908203 C8.80505371,1.33398438 8.81298828,1.37304688 8.79907227,1.40600586 C8.78503418,1.44018555 8.7520752,1.46118164 8.71606445,1.46118164 L7,1.46118164 L6.98205566,3.95605469 L7.48803711,5.17407227 C7.49206543,5.18505859 7.49499512,5.19702148 7.49499512,5.20800781 L7.49499512,6.89916992 C7.49499512,6.92602539 7.48303223,6.95117188 7.46203613,6.96801758 L5.60009766,8.50708008 C5.58398437,8.52099609 5.56408691,8.52807617 5.54309082,8.52807617 L2.59802246,8.52807617 C2.57409668,8.52807617 2.55200195,8.51904297 2.53503418,8.50219727 Z M5.45300293,6.01416016 L5.45300293,5.45019531"/>
              <line y2="1.676" transform="translate(3.316 8.543)"/>
              <path d="M1.11071777,1.265625 L0,0.505859375 L0,0" transform="translate(4.027 8.999)"/>
              <path d="M3.54760742,0 L2.44592285,1.15917969 L0,1.15917969" transform="translate(1.882 6.031)"/>
              <g transform="translate(7.011 1.854)">
                <line x2="1.118"/>
              </g>
            </g>
            <path d="M1.49804688,1.23388672 L1.49804688,0.0900878906 C1.49804688,0.0400390625 1.45800781,0 1.40905762,0 L0.989990234,0 C0.966064453,0 0.942993164,0.00903320312 0.926025391,0.0258789062 L0.606079102,0.346923828 L0.361083984,0.346923828 C0.338012695,0.346923828 0.315063477,0.355957031 0.297973633,0.373046875 L0.0260009766,0.645019531 C0.0100097656,0.661865234 0,0.684082031 0,0.708007812 L0,1.23388672" transform="translate(5.567)"/>
            <path d="M0,1.48388672 L0.651000977,1.48388672 C0.700927734,1.48388672 0.740966797,1.44384766 0.740966797,1.39379883 L0.740966797,0.804931641 C0.740966797,0.794921875 0.739013672,0.784912109 0.735961914,0.774902344 L0.447998047,0" transform="translate(7.002 3.111)"/>
          </g>
          <line x1="13.115" transform="translate(0 11.52)"/>
          <line y1=".83" transform="translate(11.022 10.632)"/>
          <line y2=".355" transform="translate(10.382 11.107)"/>
          <line y1="1.219" transform="translate(9.752 10.243)"/>
          <line y1=".407" transform="translate(4.03 11.112)"/>
          <line y1=".786" transform="translate(3.415 10.697)"/>
        </g>
      </g>
      <path stroke="#222F3C" stroke-linecap="round" stroke-linejoin="round" stroke-width=".5" d="M4.76696777,0 C3.63598633,0.118896484 3.56201172,1.26489258 3.55895996,1.31396484 L3.53100586,1.83886719 L3.11499023,1.51806641 C1.76306152,0.473876953 0.0180664062,0.906982422 0,0.910888672" transform="translate(55.716 16.375)"/>
      <circle cx="5.492" cy="5.492" r="5.492" stroke="#222F3C" stroke-linecap="round" stroke-linejoin="round" stroke-width=".5" transform="translate(69.497)"/>
      <path stroke="#222F3C" stroke-linecap="round" stroke-linejoin="round" stroke-width=".5" d="M4.76696777,0 C3.63598633,0.118896484 3.56201172,1.26489258 3.55895996,1.31298828 L3.53100586,1.83886719 L3.11499023,1.51806641 C1.76293945,0.472900391 0.0179443359,0.906982422 0,0.910888672" transform="translate(62.48 11.605)"/>
    </g>
    <rect width="320" height="160" y=".7" stroke="#FFF" stroke-width=".5"/>
  </g>
</svg>
